<mxfile host="app.diagrams.net" agent="Mozilla/5.0 (Windows NT 10.0; Win64; x64) AppleWebKit/537.36 (KHTML, like Gecko) Chrome/134.0.0.0 Safari/537.36 Edg/134.0.0.0" version="26.0.16">
  <diagram name="Page-1" id="kiUKA1GZYYqz3AKJnCBb">
    <mxGraphModel dx="2626" dy="1231" grid="0" gridSize="10" guides="1" tooltips="1" connect="1" arrows="1" fold="1" page="0" pageScale="1" pageWidth="1920" pageHeight="1200" math="0" shadow="0">
      <root>
        <mxCell id="0" />
        <mxCell id="1" parent="0" />
        <mxCell id="wo_QYc2rkXZs_NssMeJh-8" value="" style="group" vertex="1" connectable="0" parent="1">
          <mxGeometry x="-838" y="-219" width="288" height="273" as="geometry" />
        </mxCell>
        <mxCell id="wo_QYc2rkXZs_NssMeJh-1" value="" style="rhombus;whiteSpace=wrap;html=1;hachureGap=4;fontFamily=Architects Daughter;fontSource=https%3A%2F%2Ffonts.googleapis.com%2Fcss%3Ffamily%3DArchitects%2BDaughter;rounded=0;strokeColor=light-dark(#ff0000, #ededed);strokeWidth=15;fillColor=none;" vertex="1" parent="wo_QYc2rkXZs_NssMeJh-8">
          <mxGeometry width="245" height="245" as="geometry" />
        </mxCell>
        <mxCell id="wo_QYc2rkXZs_NssMeJh-7" value="" style="shape=image;verticalLabelPosition=bottom;labelBackgroundColor=default;verticalAlign=top;aspect=fixed;imageAspect=0;image=data:image/png,iVBORw0KGgoAAAANSUhEUgAAAWUAAAHrCAYAAAAXP4wTAAAAAXNSR0IArs4c6QAAAARnQU1BAACxjwv8YQUAAAAJcEhZcwAADsMAAA7DAcdvqGQAAFu6SURBVHhe7Z0LnE3l+sffkTDGuI7cLyG5534JDVG5FQeDhDmEE3KUSuU2paRcCqdcSohcEo6US3U0IZQ7kSKGMGRE436Z9bz/zzNnz/lPz97D3jN77b3W2r/v5/P9dI6Z2et913rXs9/1rvd9XqUAAAAAAAAAAAAAAAAAAAAAAAAAAAAAIU50dHQurXVZ+e8AAACCQ9Pjx4/P1lpnlz8AAAAQQOrUqXOnUmrh+vXrbxBRKflzAAAAgaWEUuri/PnzNRG1lj8EAAAQWN5QSunXXnuNg/IL8ocAAAACRwWl1DUOyr1799aGYbwrfwEAAEDgeEkpRRyUa9euzUF5jvwFAAAAgaGoUmonB2Q2R44cHJTna63D5C8CAAAwn4eUUtfTgjL7448/fqu1zi9/EQAAgPlsShu6SHPBggVntdaV5C8CAAAwl0YyILPPPfecQUS15C8DAAAwl49lQGYfeughnhbXUP4yAAAA86itlEqUAZmNjIzkl30fyD8AAABgHp2UUikyIKe5Y8eOC/IPAAAAmMevMhCnd8qUKTzWDAAAIACEK6UMGYjT26VLFx5Xvl/+IQAAAP+z0dOsi/QWKlSIx5VXyD8EAADgX3il3gkZhD156NChDfKPAQAA+Je/K6VuyADsyRkzZvxERCXlBwAAAPAfo283dJFm+/btU7TWHeQHAAAA8A+8u8hRGXwzMiIiQqekpDwpPwQAAIB/KC0D7+385ptv1ssPAQAA4B8WyaB7O115MHgKHQAAAH8RExNzx+3mJnuyWrVqPF+5u/w8AAAAWaOyDLjempCQcBhJ7wEAwL+8KIOtt06cOPEsEVWUHwgAACDzTJPB1lsbNGiQQkSD5AcCAADIBK1atcqplFoig60vJiYmztZaZ5OfDQAAwEfCw8NLKKWOyEDri1OnTj2tteZ5zgAAALLIvZmZeZHepk2bEhHVlR8MAADAdx72dmn1rTx9+vQq+cEAAAB8Z6kMsJnxnXfe4YUkkfLDAQAA+MZFGWAzY7169XghST/54QAAAHwjy0MXaR46dOhDrTWvDgQAAJAJeNGHW3DNrHFxcb8RUSl5EAAAAN4xXAbWrFihQgUeV24oDwIAAMA7lsvAmlV/+OGHHfIgAAAAvGOtDKpZ9emnn+YdSQrIAwEAALg1nNntSxlUsyrvSHLt2rXZ8mAAAABuwf33389zijfJoOoPZ8+evVFrnUceEwAAQAaULl26ii978vligwYN+IVfK3lMAAAAGXDHHXc8qJS6KgOqv9y9ezeGMAAAwAda+3PhiHTQoEG8wi9CHhQAAIBnTA3K+fLl05cvX54rDwoAAMAzHJTdgqk/nTlzZgKmxwEAgHe0kUHU31auXPkmkhQBAIB3PCqDqBlu2bLlQ3lgAAAA7sTKAGqGPXr04BV+UfLgAAAA/spbMoCaYfbs2XVSUtIYeXAAAAB/ZaMMoGY5fvz4m1rrorIAAAAA/p8kGTzNsmTJkkZKSsrfZQEAAAD8Pzdk8DRR+vTTT5drrXPJQgAAAPgvhofgaZoNGzY8Q0RlZCEAAAD8l4AGZe4t79q1a5YsBAAAgP9i2hLrjOzevXsKEXEiJAAAAIKAB2U2MTFxFna8BgAAd4ISlIcNG5ZIRNVkYQAAINQJSlCOjIykCxcuvCwLAwAAoU5QgjL7+uuvH9da8x6BAAAAXLgFy0BZoEABunLlyvuyQAAAEMq4BctAOmXKlENEVFIWCgAAQhW3QBlIixcvfjMlJaW7LBQAAIQqboEy0M6ZM2evLBQAAIQqbkEy0FasWNEgooKyYAAAEIq4BclguHTp0nOYiQEAAB4CZDCsW7fuDa11jCwcAACEGkGbpyz96quvZmLpNQAg1LFMUG7evDknKqosCwgAAKGEZYIyu23btq+11tlkIQEAIFSwVFDu0KGD1lrXlIUEAIBQwVJBOSwsTO/Zs+dzrXVuWVAAAAgFLBWU2a5du57VWteRBQUAgFDAckE5W7Zs+pdffnlbFhQAAEIBywVltnfv3jwTo6osLAAAOB1LBuXs2bPrkydPvodVfgCAUMOSQZkdOHDgMSKqIgsMAABOxrJBOUeOHMbJkycnyQIDAICTsWxQZv/5z3+eQAY5AEAoYemgHB4ern///feZ6cqLMWYAgKOxdFBmhw0blkxEjVzlRVAGADgaywflPHnyGOfPnx8mCw4AAE7E8kGZHTFixGEiyikLDwAATsMWQTlPnjx08eLF6bLwAADgNGwRlNkxY8ZcJKIisgIAAOAkbBOU8+fPry9evPiWrAAAADgJ2wRl9o033vhRa13UVXbMxAAAOA5bBeWoqKiUS5cu1ZaVAAAAp2CroMzlfeutty7JSgAAbEh0dHT2/v37546Li8s9c+bM3AcPHsyJ/eBsF5R1kSJFNBF1lxUBANiPwUqpa0opQyl1WSn173z58jXv0aPHXQsWLIjSWueQf+Bw7pABzy5OnTp1IxGFywoBAOzFG/LmTuf53Llz94+NjS37008/FZJ/6ETKlCmTy8N5sIUlS5bkJPhdZZ0AADaibt26fBNzL9ntJk8n/3zZo48+WnXz5s0l5Gc4iQIFCuTzUH/b+P7776/H8BMANmbgwIEPcI9Y3twZSGFhYav69evX4PTp005dsMBfOrLetrFMmTL6xo0baYmKAAB2Y86cOfy4/oO8uW9nVFTUu//5z3+cOA2ruqyr3Zw7d26C1jpKVgwAYB++kTe2lx4YN25cM4e9XHrUQz1t5b333nuNiHrLigEAbMIdd9wxVd7YPnhi0KBBg7TW2eXn2pTRHupoOxcsWPC5rBgAwCaUL1+exyDdbmwfvNmvX7++RFRSfrYNWeGhfrazUqVKRETc63cCRdetW9eGiCLlDwBwJP3797/TDwsmro0ePfo9B/SYd3momy2dN2/eUSKKkBW0Ic8ULFjwUFJSUn/5AwCczO2mxXljyqJFi4ZrrfnloV35xUO9bGnFihV5ld/fZAXtxJIlS+7gGT/caWjfvv0RIrpH/g4ATuW0vKkzY65cuVJ+/fXXWK01r4yzIwdlnezs/PnzN2qtee61LZk0aRK/RE57EU1Lly5dpLVGJjwQEnwqb+jM2qBBg5+JqL48gE1wVFCuUKHCDSLqIStpFwYPHpxXKbUxrT7FihUzLly40F7+HgBO5B/yhs6KY8eOXUdEd8mDWJm4uDheCXdI1sXuzp8/f49d9/Jr164dz7femq4+NGjQoJ1a6wLydwFwGg/Kmzkr5syZUx8+fPhVOw1jREdH51FKHZF1sbuuseXnZH3tQJUqVSoopX5NX5877rjD2Lt371z5uwA4jXryZs6qLVq0SCSiavJAVqVGjRp3K6VOyno4waVLl/5gtycXJjIykqdrJsv6REdH8wIZW7/EBOB21JEN3w/SF1988aU8kFWJiIhoppT600M9bG+tWrV4g9Wmss42oAXP6pH1YZcvX77cIVP+APCIGUFZ161b9zoR8dCIHXhCKXVd1sEh0urVq7fLCtuAhzKaQ1+5cuVkImog/wAAp8DJhTw2/qy6YsWKL22STvIps86BFWzUqBHnW35EVtridJD1SO/s2bN/lH8AgFMwLShHR0dfJqLH5AEtyCCzzoFV3Lhx43pZaYszXtYhvSVKlDCIqJv8IwCcAA9fmBWQaP/+/e/KA1qQIR7K7igfffRRHltuLStuYX6SdZBOmDCBX2LacsofALfClDHlNPv06cP7AFqdybLcDpQOHjz4jKy4heF2I+vwF/Pnz5+SnJxs2wUyAGQEvzBxa/D+Mjw8XF+6dGmRPKjF+Mt8WKc6cODAG7LiFsabpzcaMWJEkvxDAOwOb08vG7tfff/995MtnkXOmwDgCJOSkqbIylsQfjnsVnZP5s+fX1++fBlZ5ICjWCcbur9t2LAhv/0fLA9sETjJjVuZneprr712xQZzfMvIct/KyZMnX7R5hkIA/oLHCfr+9tChQzMsuvS6uCyrk+XEPikpKS/Lk2AxeIqiW9kzsly5clynF+SHAGBH+M11QB7dx4wZc5WICssCWIBRsqxO97PPPvtYa80bHFiVtbLMt9MGdQLAK9rIxm2W9957LyfHaScLYAGOyrI63Xbt2t3QWpeVJ8JC7JNlvp1t2rThITLOYQKAreFNNt0auFnu37//nAUTlfOMBLeyOtmwsDCdmJj4rDwRFmK/LPPt5DodOXJkpPwgAGxDdHQ0z4bYLBu3mb711lvcW+aUjJagTp06/Lh7U5YzFBw1atRNrXV+eU6CTUxMTA6l1M+yvN44atQoXuVnu4x4AKSSL1++coFO7N64cWNtGMYYWZYgUiNQLzqtZqlSpfgLspc8IcGmTJkyPKzymyyvN5YrV47rxEvmAbAlvA19QB/d+RHz/PnzvNeaVZIUDQ3Ui04rumHDhi8tOD2OEyddkGX11vXr139NRJHyQwGwA32CEZAWL17M+QqsMgtjYjDOgVUcMGDAaSKqIk9KkPl7Vp5e+vXrd46IqssPBcAOLJANOhD26dPnita6pixMoOnfvz+PJ8+X5QslCxcuzI/7VsuHwavzMv1F6arT8/JDAbAD52SDDoTFixfXWmvuDQWVihUr8sacjtrBOjN++eWX/FLNSmQ5jeo333xzWH4oAFYnPKsNPyv+9NNPP8gCBYFSWXlMdop9+/YlK82IUUqNlWX01aefftpqdQLgtnBycLfGHCinTJlCFshVUFeWKxTlx33DMCbJkxNEvpVl9NVixYpxnfh9AQC2IV425ED6t7/9jcf9BspCBZgPZblC1e3bt2+10BJlv2xg+8MPP3yvteY5zwDYgmOyEQfSQoUKcU8m2Ltdn5flClVfffVVnoXBTw5WwJDly4zDhw9PIqKG8sMBsBzt2rXLrZRKlI040O7evXuP1rqALF+A4HMQtDF1q1mvXj3OG9FFnqQgwL11v1yX+vXrYw8/YA8KFCjQOCuT8/3l1KlTeZv4B2X5AgS/4XcrUyh74cIFK4wrc3twK1tmTU5OXiIPAIAVGWCFWQedO3fml30xsnABYqEsT6i7evXq0/IkBYE1slxZ8bPPPuPOBwCWh5OB++URMStGRUXxyz7eRTqgNGzYkKcDfiXLE+q+9NJL/CUZrOGkNPzyki/NoUOH8tQ4q6weBcAjnDaTpwq5NeBgmJCQsE0WMADwCy2/3vxOsEmTJvzydbY8WQHmqixXVqxbty7XiVdtAmBNXKkqfU4gbpYLFy4Mxu7K0VZ4UrCihmGclCcrUBQqVIiTCF2TZcqqycnJx+WxALASvP1T0MeT0+zXrx8/MvNMiEDyb1kO+F/37NmTFMR9FPkln99zW69du5brFOxhGQAyhFfRuTXcYMlbRBmG8a4spMn4ZR6sE124cOEFIqomT1iAGG3GE8y4ceOuE1FPeTAArEJT2WiD7enTp3nOdKDglz5uZYD/ddiwYTeJ6B/ypAWIN80Iyn/729/4ZZ/Vd+8GIcwm2WiD7eLFi38noryyoCYxXR4f/r/t2rXjADZCnrQAwC+gp8jy+MOSJUtabbcbAP6C33siWfWpp566RkSPy4KaAN/4u+Xx4f/r2nGchxECSoUKFfhLeassj788d+7cKq0170kJgHUoUqQIb/vj1mCDbbVq1QL1eFlSKcV5dt3KAP9r7ty5U8f4g7BdVzEztyZbtWrVxSC8UAbgtrSRjdUqnjlzJhCBINZKM0+s6pkzZzi7WqDTqnJua9Oe4iZNmsQbK+SRBwUg2HBuA7cGawUXL158lIh4up6ZvCOPC93dvn37hSAEsFayHP60f//+PCxTRh4UgGAzQzZWqzho0CAewjBzV2XOq3tRHhe6u2rVKs6uFujdoNfKcvjT5s2bWyF/NwD/j2uTUMsm4alYsSLfNDxdzyx4nqrbcaG78+fP52sR6KDs90Uj6S1RooROSUmxwhZkAPyXRo0a3aWU2iMbq5VMTEz8WpbbH7iWlv8ujwc9++677wY6KJc1czyZDQsL0xcvXrwsDwxA0MiRI0dFfyd78bcffvhhiknTlhpZve5WcuzYsfxSLJ88iSbyoiyDGe7bt48DPwCWobLZvZGs+vjjj3MPrbksuB8YbvW6W8mXX36Zg3JReRJNgueOcyJ6t3L42zVr1nC9sGcfsAwc7NwaqpXMmzev33cgrlChAs/oQAIiH3z++ef5y/FeeS7NoFKlSoWUUptlGcxwxowZXC9+YgTAElgmh/Kt/Oqrr1b7eToWZwf7Qx4HZuzQoUM5ePGWYYGgVqByW8fFxXG9essCABAsDspGakUHDhx4RmtdThY+C/BefBi68EFXUOaFRoGgRaCuz6BBg/z+JAZAVjBtCas/LVasGM9X5hvVXyTIY8BbO2TIEA7K7eSJNIll8vhm2alTJw7KM2UBAAgWbo3Uqm7cuHG9LHwm6S4/G97eYcOGmfXCVcIv+a7I45tldHQ0B+UPZCEACAaWSmx/OwcMGHDTDztF8A3/ofxseHtfe+01Dso15Ak1AU5CFZChC7ZatWoIysAylJYN1Mrmz59fX7lyZaqshC/kzJmzglLqqPxseHvffvttDsqcUc9sNshjm2mpUqVSN4bVWvMXNgBBpb1soFZ37ty5O4iIVyFmlibICJc5eeqYH55UbgfP7jgrj22mefLk4aC8wKQFSsAiVChYsOAX3377baDeVGcWW0yHS2/Dhg058f1DsiI+8Iv8TOidS5Ys4Z6y2TvBcC6SgO+VaBjGCiIKl4UBDqFMmTJ/dy3fPTt16tT75M8txGeycdpA2rFjR7ysiJdUDcYN7xTj4+MDkfvimDxuILx8+XK81jq/LAxwCE2bNuUNJjm7Fb+suPT000+3lL9jEUxNi2iWsbGxKZlM57lOfhb03r179/K0RDODcvFAvuBL7/nz5/cEcAk5CDS9evVqnS7RDTeylJiYmKfk71mAL2XjtItHjx7lzHZec+edd1ZXSh2XnwO999SpU2bnUz4jjxkoz5w5c1RrzS++gRMZMmQIPwadkxe+adOm32qtOV1k0Bk8eDDnfvhWltEu9urVK8nH6Vm95GdA30xJSfnTz0vd08PLnIO2kOnEiRO8c3p5WSjgLJLkhedec7169d47f/580Meu2rZtW0Ip9aOHMtrGXbt2vSrrdQuCMlbpFO+++24OypvM2JorJibmDqUUr6hzO26gTExM/IOIeLokcDCn5IVP84EHHtj+559/mj216JY0b968jt0TvNerV48fp3kc8nZwD8jt76H3ula9vWPSJraVgjWWnCaCcmhwy15o27Zt5wVhZ+D/cd999/Fy2YAtZTXLiRMnHrtV4nXXdlc/yb+DvtmjRw+eeTFKnt+s0rBhQ56GFvQ8JL///jsPh2H4wuHcbt876tmzZ0+TX5xkSI0aNR5xwiKKXLly0YEDB57TWvMjsCf4iSBZ/h30zREjRvDMi5Hy5GYRXkHXQR4rGJ4/fz6RiO6WBQTOYrC88J4cNWrUP2/V0zOL6tWr8wyRoD4y+svatWvzdCZ+BPbEaKfUM5jOnj2btNYvyZObRQoHekl1RqakpBwholKygMBZ8P5vbhffg5c//vjj5+Ufm021atV4taFjglW3bt1meVh+zctmsbuIH9y4ceMNIuojzm9W4GElDvJBb4PZsmXjoLwX85SdDwcItwaQgTc3bNjQLpBr750WlNlhw4aNJSLeRigNTp5zTf4e9N2zZ89eIqIG6c5tpomOjuZ2zsMWlmh/UVFRHJQ3BCCvBwgy3BNwawAZWahQoaSTJ082lR9iFk4MyhyAe/fu/RoR3dOmTRvu9bzl4Xegj3J2PsMw/vDjMBsnHQr6y700K1SowPX7IpOrRIHNcGsAt5CaNWv2DRFxfgbTadCggRODcqp169ZdoJSa4tT6BdpGjRpx0OJ59/6AF/xYaiVpw4YNuX5LsKN1aODWAG4jjR07dmkgXjg89NBD/KIPyXngbe3Tpw8HrdOyDWWCaq4xfkt9WbZv357rt8gqq22Bubg1AC+kjRs3jjV7DnPnzp05/WXQlrVC+zh+/HgOWjtkG/KRKkqpFVadhomecujgdvG9sWzZsqcuXrzYRX6YP+nbt29DpdQf8tgQSj///HNeODJUtiEv4RWAXV1pYi3VQ07vhQsX1gZrzQAILG4X31t79eq1W2vNCx9M4bnnniuDlW7QGw8dOsRBuYhsQ17APU8e2z8gP9Nqnjx5ElPiQgS3i++DtHz58o/M2ulh0qRJvLzVEhP3obU1DIOHuXyFn8Tmu4bILNtDTvPQoUNnsMw6NHC7+L6YP3/+c6dOnTJlGMO1SeRX8pgQprd69eoclHm2hLfcq5Saq5T6wU4vknft2nWViCrLygDn4XbxfbV169Y/iwUR/sSWO4/AwNm5c2ceunhGNhxJzpw5yymlliulvldKXbdD7zi933//Pe9mE5DpqCC4uF38zDhr1qzFJq324x6N2/EgTHPUqFEcrLrJhpOOsq5ttnh2hiVnVnjjhg0bOOEST9mzEr3feOONZZkczwcZ4HbxM2NkZOSV48ePd5Qf7gd452C340GY5oIFC25cvHjxcdFuuIPQWSn1nVJqv2uYwlY9Y2l8fLzVgjLf7yeLFy9+3TCM926RBRH4iNvFz6TUvHnzk/LDs0qVKlV4TzJ5LAj/Z9myZTnYblNK8ZQ4frLa55pNwYtJbDNmfDstFpR51lVi2hfd4sWLk82ciRVquF38LEjTpk3bKw+QFVzb8MjjQCjlndk5JzVvBsyBIk35e7Z1/fr1PHZuhaCcWyn1Sfrz26hRI06bGiN/EWQOt4ufFXPnzm0cPXrU32k+HXVzQZgZLTSmzENFbittt27dylu3AT/gdvGzKEVHR/NeYv6cjYFVfTDk3bZtmxWCMr805acSt/L16NGDy4csdn7A7eT6w7feeotXH/lrA0tONO52DAhDyR9//JE34Q3mlDgOuBku5sqePbs+deoUv1gFWcTt5PrL77//fow/AnOBAgW4d+D2+RCGkgkJCbyzCidNCha8q4tbudL7yiuvHNVa83xwkAXcTqy/LFGixOnk5OQs7wTRrl073tvOtvNLIfSHSUlJl26xz6PZVPDm3U7VqlV5CKOf/GPgG24n1p926NCBB8J488lMM2XKFN4yyTK7QEAYDFNSUk4HqRfK74eOyPJk5L59+3jVJMgCbifV377//vvztNZ55IG9JT4+nhcCzJOfC2GomDdvXg7KPxJRMXl/BIBx3vSS0xwxYgSPfSPFaBbw+mRn1ty5c188ePDgk/LAvlCmTJkJ8nMhDBXLli3LSZfWZqVzk0nq+7oAp1KlSjyfepD8IOA9pgdltmrVqgnXr1+/Tx7cW/r27dtOfiaEoWKDBg04KH8cyKXMuXLl4i3f/pRl8cbdu3cnBbKsTiMgQZl96qmnNhIRjw/7zJIlS/gCB6ysEFrJjh07clCeJe8Ls4iOjuYhwzcze8+NHDnykgXmVNuWTJ30THpzxowZEzL7DRoeHr7ew2dC6HiffvppDsrvy3vCRPip9hdZDm+tUKECz8IYLj8UeEcggzL7R3x8fG9ZCG/o0qUL7xQR6PJCGHTHjRvHQfkdeU+YQb58+fIrpRbKMvjq3r17eaNX7L6dCQIe5AoUKHD+119/bSELcjuWLFnC+6lx5i+3z4TQyS5cuJBfnmXpZbk3uBKAPSWPnxmnTJlyVmudTx4D3J6AB2W2XLlyWxMTE3ljVK/h1YE5cuTgqXFBKTOEwfL777/noHyPvCdMgI9xUB4/M3bp0oUzxwVrsYutCVaAo/vuu2/hn3/+ySuFvKZz586c9J638pGfB6FjTUriyQwBGQpYII+dWYsWLRqwIRenEaygnGqzZs2WEBFvZOkVS5Ys4aT3SfJzIHSqERER3Evm/202vM+hT3OSb+ehQ4c4wyPwEb9ehEx4s1WrVmsuX75cQhYsIwoXLvy5h8+B0JE2atSIV/Px06GZ8CIR3jnI7fhZce7cuTwLA/v3+YhbsuogSDVq1Fh1/PjxB2XhPBEXF1c72D18CAPlgAEDOCj/IO8DP/MfMzpo/fv3517+QHkwcGsuyhMZJI2iRYvu3rlz5/2ygBmwysNnQOg4Z8yYwYGNN4E1i/fM6pxVrVqVx5U/kAcEt8bvjyxZkMLDw39csWLFP7XWYbKg6encuXNf9JZhKOiaeeHPnXzS08XsjllSUtInWmteIQi8ZLc8iRbw9JgxYzgzVYbEx8fzVBuk84SO9+LFize01rxZqb/hTG48/c3Uzs1//vMfzm7n9TsjoNQX8iRaxOTHH398bkaNkb95q1atyuNg8u8gdIz169fn8eTvtNa8cMqf8JPoj2aMI0vfe++9q0SU6WRkocgMeRIt5NXatWtvzWgoY9myZXe5tpSXfwehI3zmmWd4THZsRvdAJuHPmmJ2DznNZ599lheR1JGFABkzSp5Ei5ly5513Jrz66quPyIIz5cuXb46tojJnsWLFUpX/Dq3j4sWLeUrZy7LdZ5GWgezMPProo7zwhY8JvGSAPIkWlL/Rr1asWHGV7DG48mEs9fA30AsnTZrk9m/QOp48eZI3S41N3+azSCNXQA5IL5mtXLky9/Zv+Y4I/JVegbxAWZTLeblr167N0lfg3nvvfcXD70IvPHjwIJUrV45XXZk+tgh9s0aNGjyezOurOWubP2jKWRrlcQJhSkoKv1AEXvKEjYJyelcOGDCgAL/w++ijjzp6+Dn0wo0bN17ZsGFDB6XUDvkzGFxffPFF7mHylFV/wC/MAzZkIU1ISLgpCwQyxq5BmcucnC9fvufHjh37UalSpeTPoRcuWrToHG9yOXTo0CZmLSCAmXPDhg3+WnjBc5yDmvJ2zZo1fL8CL7FrUIZ+cNy4cTwHNnUzzipVqnyFtmAN8+fPz4/8PGshl7xhfYS3X1siPz/Qvvvuu4HKcucIEJRD2EGDBvFqscrcEA4cOFA3Z86cQRlzhH/1iSee4KCcpaGL8PDw4kqpXfKzg2FcXBy3syqyjMADuXLl6o6gHLq2bduWb5bB3BZ4Zsvnn3/Ob8nRHoLsF198kdU97jjF7XL5ucFyyJAh3M7+KQsJPFCyZEkE5RCW3/Cn3yWZX5zOnz//W2wkEDwLFy7MveRrRPTYX+/W2+OaMlpTKfWJle7rXr16cTv7WJYXeKBmzZoxnNNYnkQYGpYsWZJvFt5i63/wFKy5c+fyOCQW5QTBwYMH8zU5TETl018XL3nIKkMW6eUFJIZhcFoEcDtatGjRyuwsUdC6cq/MMAy3LF5ElHfevHlzeV64/Btorj/88MNfnl684aGHHopQSrVXSp2yUg85zaZNm3Lvf6MsN/BAly5dqimlTsiTCENDfstvGMbXHIRl22CWLVvGweGK/DtojrVr106ddZGJBD5DlVJ/ys+zitWrV09NrCQLDTwwZMgQXi3E2aLcTiR0vrlz5+apStsz2rKHiIovXbr07WzZslmu9+VE58yZw1+SW+R1yIicOXPyxsP8Au2a/CwrycNkCMpeEhcXl00ptV2eRBg6Goax71b5bnke85w5c+ZjcYm5ul7wGUTEO7Z7A78I5N2nLf+FyZu/Iij7xlZ5EmHoaBjGASIqJRtFerTWpVeuXMnbxVs+ANjV0aNH87XYw08n8vynp3DhwkWVUi+6nnBtcz0QlH2DB+DdTiIMDQ3D+FVrXVY2CgkRFV6/fv2onDlzJsnPgFn3999/57m8feR5TwdPd+utlOLZMpfk31tdV7J+f+aFdjT8MsftJMLQ8MKFC8e9nX5FROFff/11n1y5crl9Dsy8rh2r92mtC8hz7qKGUmq6aws02/SO04ug7Bs8V9ntJMLQ8Pz5878TUUXZKDKCtyb68ssve2Aqpf88fPgwT7noJM+1UqqMUup93pbSzulV+YUygrIP5MyZkx9d3U4kDA0NwzhDRPfKdnE7vvrqq+cwjznrxsbGcsA6kZiYWDjd6eUddXhV3jeuF6y27B2nGRkZiTFlXyhZsmS4PIkwNCxQoAAH5RNExFOrfIJX/i1YsGCg/Ezom5wXonHjxr8rpXjWxZNKqc9cL/Ecs6KS2xmCsm/wI4XbiYTO9+677+agnOkt4DkX8/jx41+1e0/OAnKqg6OuhVyOCcZpRkVFIShnArcTCZ1vrVq1OCh/xcFVNghv4ZdTvXv35hvO7fMhZO+66y4E5Uxg25cIMPO2aNGCg/IirfUdskH4AhEVa9++/SH5+RCyxYsXR1DOBPvliYTOt1OnThyUP5KNITNcvHix6r333ot2BN2sWLEignIm6CdPJHS+/fr181tQ5ulOP//8cw1+0y6PA0PbBx54AEE5E9wvTyR0vsOGDeOERJyi02/Mnz+/tjwODG1jYmIQlH2ldOnSHJTxBj3EnDZtGveUJ8v2kBW4x9ypUydsKwX/p2vFIvIp+0LLli3rIm9u6PnNN99wvoVHZXvIKufOnctXokSJI/J4MDR99dVX+ct/rWwn4BYMHTqUs4TtkycTOtvjx4/z8EU+2R78wddff82bd1o28ToMnK4nsimyjYBbMHPmzDuVUivkyYTOlZMKMbIt+JNnnnnmeWzCCpcvX85PZLx/IPCRxfJkQudas2ZN7r3w/HTTuHLlSqkiRYrslMeGoeWmTZv4+z+PbB/g9vBbeLcTCp1ply5dOChzzgVT+fDDDwdhx/TQ9uDBg/zSF/hKhQoVnpEnEzrXkSNHclCeKduBGdSuXftrzMYIXVNSUvhLGfhKTEwMv5hxO6HQmX788cc8zsfJ001nw4YNnK/5uCwDdL6unaw5OT/IJOjNhIj79+8nTr8pG4AZ8Nzlxx57bIQsA3S+nTt39vtc+FDjvDyp0Hnmy5ePb5SzRJRXNgCzOHr0aDH0lkPPUaNG8RPZI7I9AO+ZI08qdJ6u7HCriCinbABm0r1792eRkTC0dA2T8eI0kBnKly/fSJ5U6DxfeuklDsrjAr1n2u7duyOwe3pouWPHDt5/kPOhgMzwxBNP8CMmxpUd7tKlS4mIRsvrHwgeeugh9JZDyGvXrp3RWleS7QB4ycyZM6OUUknyxEJneeLECe69/FNe/0CwatUqnomBPCshYJkyZXjmxbeBeqHsSA4ePMhjjEvlyYXOkfdLMwzjMhHVl9c/UJQuXfpNWS7oPDt06MBtbaHWOptsA8AHoqKi3pInFzpH1xSl80TEu5gHhfHjxxfFEIbznThxIre1GfL6Ax/p1KkT70LiuB114X+dMWMG3yh75XUPNDly5MBMH4e7efNmnnnxN3ntA0ZMTMwdUVFR3Xbv3n2X/JmdmDZtGpf/qjzB0Blyuk4ielhe90DTtWvXJ/Hl71yzZ8+ub9y4YVpqWK/goKyU+qVAgQLbt23bxrMY7EyiPMnQ/laoUIF7ySlaa07VGlS++OILHsI4LMsInaFrXz7+0g0653hKWcGCBfdu3769qfyhXYiKimotTzK0v7wtDy8akdc7GPAc6cKFC/8gywid4YsvvshBeb287sEgLVG8kSdPnmOBnpzvL/r37889KcxXdpj//ve/+XGyv7zewWLo0KE8Pc6tnND+fv755zxM1lBe84CTI0eOmHQFo3z58iVt3rw5aG+5s8jP8kRD+xoWFqYvXLhwk4i6ygsdLFydlmuyrND+nj9/3iCiQvKaB5z777+/uehh8lDGjzZ9+fecPNHQvjZp0oSHLn4hoiLyQgeTokWL9pRlhfb2vvvu46GLLVrr3PJ6B5wBAwbU87RZZIECBVL27dtXUP6+lalevXpfDGE4x7feeouD8lZ5nYNNv379ZEcG2twRI0aQYRivyWsdFN59913ehypeFpKNioo6+tNPP9kmMcfIkSPvU0qdlvWA9jQhIYHH+J6S1znYrFy5kpf2fy/LC+3r5s2beeiCn7Qtw79lIdOMioo6f/DgwcLyDyzMLlkHaD8rV67MveSbVn3xnDt37k9kmaE9veuuu3jo4iIRlZLXOWiEhYXNkgVNb8GCBQ8eOHCguPw7K1K2bNlxeLS0vzw9SWu9XV5fq9C2bdv0L8ihje3bty8H5RPyGgeVGjVqcJZ9t8KmNyoq6sv9+/dXlX9rQbhndV2WH9rLTZs2carOR+XFtRhY3ecAP/vsM34qGysvblBxrexzK6w0X758ydu3b69k1UfKdGySZYf2sVixYnyT/EFE/I7AyuyQZYf28+LFi5ZYMeqJC7KwnoyMjFy/bds2fvtsWcqUKdMBQxj29R//+AcH5TXBzArnDUWKFGkryw7t5aOPPspDFwfktbUKC2SBMzJv3ry/b9iwobHWOrv8ECvw4osv1lJKnZHlhvbwyy+/5KDM6VgtTWxsbFml1E1ZfmgfZ8+ezcNkw+W1tQoNfOld5sqVa9/q1at7yA+xAgkJCbmUUl/LMkPrGxkZyT0XngpXTV5Xq+HKTnhQ1gHaw4iICH358mWedcF5c6xHrVq1yviaxDt79uwXPvnkk65WfMwsX778CFleaH179OjBveSj8npakfj4eH5SnCvrAO1h//79U4cuiMiaU3779evHqTt/lwX3wt/ff//9Z+TnBZuxY8fy0lyve/7QGq5YsYJ7yUPl9bQq4eHhE9DO7Om2bdtSd0iX19QyzJw5k9d8fyEL7qXnx48fP1RrzcMGliEsLAx799nI8PBwffXq1etEVFJeS6sSHR3N85URlG1m9erVuZd8jYgsv/5iiiy8D14ZOnToq1rrHPJDg8XDDz98P24Y++jai+87IoqU19KqxMXF8a7HaGM2c8qUKdzWeNGctcmZM+eYLDawi08++eR7VhljXrBgAeco+NFDOaEF/fjjjzkpzGQbzIOXYCsym5mUlHSDiB6UF9Jy3H///W2yGJRZiomJeccKeUl5yl7+/PlneygjtKDJyckpRNRZXkcbgGEyG8kvk1NSUnZorXl7L1OpU6fOnVrrZvLfvWbIkCH8KObTDIwMvNS4ceMVSUlJQX8MffbZZ3mhiywftJitWrXix8nrWusC8hpanbx589aX9YHWdfv27dzWAvJEVrNmzYcMw1id1RWD/lrPT+XKlfvs4MGDvJAjaBw8eDBntmzZznooH7SQ06dP5xvlM3n97EB0dDRPjcvqEyYMgI0bN+ZeMi8Y4W29zCasevXqE1NSUs4QUU75Q1/wZ+rLlMjIyF3x8fEt5UECSefOnaM9lA1aRN726Y8//uCpcIG4UczihqwXtJ7Lli3jL/9X5cUzg1KlShWvVq3ajykpKclZ6pVHRETw+IdbZbLooUmTJvWSxwoUrhOC5DEWtVGjRnyjcO4VO4Ndri1uuXLl0vImB+rLv+p99913nYOy/IFP8MC0rIwf5Ee7UzExMcvk8QJFzZo1R+ER05q6tn2aKK+ZzXhd1gtay6lTp3I7m5PV8V1vCQsLe79GjRqU5aDswqzdeq/XrVt3YTBeAC5atKg8toqypgcO8EpX62375CNDZL2gdSxQoEBqik4iaicvnIlccG3IynugZplVslJ+9HqhQoWOL1myJJ88qJlorbPdc889SB5jMfmR0jCMRCK6V14zO1G4cOGn8SRmXV966aXU4BioXrJSqj23B1dQPi9/mBl4A0G3ivlRbrzJPXr06CQPbCazZ8/mPbhkWWAQHTx4MAflA1l6EWIBmjZtym35iqwfDL68fP/06dP8Ipnz4QSKNRzn6tWr55+gXKxYsUB86/PnU9GiRTctWbKEdz4JCEWLFj3soSwwSK5atYqD8mJ5nezGk08+yTc87/PmVkcYXMeMGcNtjDeHDhR3K6V+4WM3bdqUg3KS/AWf6dChQ8cAfutzcL7QoUOHQoF4tHjrrbd4TMkfC2RgFs2RIwcnICKtdR55nWwKvvAtZvHixTlnMi+p7ikvlonwqtTUTm3Lli05KB+Rv+AzU6ZMyauU4py2bpU0UYqMjHxv8uTJRczc0eTChQtRBQoU4F2S5fFhgOVVfFprv7wEsQi/yjrC4Dp37tzUXdH5nZK8WCbBCdm4Z5x6fN5uyjCMePlLmSW1+x0EjerVq7ffvn07JxMyhXHjxiEHrgWcPHkyj/O9IK+Pjdkr6wiDZ61atbiXepWI6soLZRIc+PulL4Mr8+F78hczC4/BuFU0QHLAXDFgwIDKZk2fi4qKSvBwXBhAf/nll5u2yNTlPe/LOsLguX79es46yMmiAkU5Xo+Rvgw9e/bkjsez8hczRa1atWrISgbBK5GRkc/FxcXVzOraccmkSZN46TU2vQySxYoV4x7EEbtPhRM8JOtpZfPnz+/2b06xffv2qS/YAthL5skK0+QTeN++fTkod5e/nBWs8oiflCtXricGDBgQ/euvv/JmlVmGiEoUKVLkZw/HggHwiSee4KC8VmsdsJk3ZlOlSpWCsp5WlmclyH9zgjwF7ujRo9y+3pHXyCS4DT/qKV7ylE8i4i9rv3FOHiSIcoW5Z/tWs2bN2n700UelZWF9Zd68eTz177qHY9lOvvjy36zsBx98wDfNQnlNbA7PtXa7Ma3qmTNnjIiICL7HbVNmb5w4cWLahqiByOnO1zzDHY5eeOEFDsr3yT/KCnzTuB3IAvKUtg/y5s3bJTY2tsXq1aszPbTRpEkT3o34sodj2EqmWbNmF/2YetVUDx06xI21h7weDsDjzWk1eazTMIy9VapU4Udu27f/NOvWrcsB+QIRdZMXxiSqKaU2ynKkOXr0aP8uWilYsCBvCul2IAvJNwDPDf2nUqp3q1atHuUpdbIet2L79u08N3qtXW4mT5YuXZpvsEsnTpyYUqhQoe/kz60mjycz/n5PYBFskcJz9+7dBhF1bdGiBWdM+03+3K7u3r2b74UvtNaBSOPQQCn16a1iB/fa/br+olWrVg/bpZG5TgzPrZ6slHo6IiJi0IMPPvjUiBEjHlyxYsUtZ3AMHTq0q4lJmEz3gQce4Ib4FW84unbtWt5pJVH+jpV0jSeflNfBIVh+Vd8jjzzCvcmDvPt8XFwcrwk4IH/HjrryW1zy9xhuBtRWSn0ryyCdNWsW/9d/jBkzht+M82oUt4NZXA7QLI8Xb1VKvamUevHuu+9+rlOnTs3i4uL+suP2oUOHGhUvXpwf/eXn2MLY2Fj+Nu6fVp9//OMfnLHMsjNL3nvvPe4lx6W/Bg5iiayv1fzqq694qti/0uUb2SN/x26WL19eX7p0iXv/I8X18Dd8znorpVbfqoec5vLly/l3/Ifr0f4beSAby4FqkytIv6KUelkpNYDHp+38wu+VV17h1Jf/m++rtc5RvHhxyw7JbNiwgYMyj8U5ER5Kc6uzVaxatWpaond+okrje/l7djM+Pp6/aHgvPLNX7nHM8DoF8Lp16/wblF04cadePlH8spC3hv/dNXRhyQDmjQsXLuQeQtP0F+3jjz/mm86SL3D++OMPXjTC+a2dCOeNcauzVfzwww956GhR+vH8sLAwzmjm9rt28Y033kjNxEZEDf96KfxKI6UUrwTmnEBex4odO3b4Pyg3aNCAx1vdDgat444dO5LlJHm+6Zo2bTrJlwYUCEuWLMlB4Sci8st8cwvCCa/c6m0FK1SowMGLvxB5Ydj/CAsLmyN/1y526NCB68RPiv1MnPM+Wim1PjOJzI4cOeL/oPzCCy/wSzK3g0HreOnSpT28GEZeu127dvG/rZO/H0xbt27NQfljv76RthYclC31RZjmJ598wuf+XVlgpRRvleb2+1a3YsWK+vz58zxsMdWk9lRZKfWhUorzIWfqmp4/f54nSpjCWXkwaA3Lli3LN9qqjBplv379YgOYhvW2Pv/88xkFBqdgyaB8//3383n/3dMjfunSpa0+9dVNXrW3f/9+rtM2Tx2SLMI5LPg9E/eOszTvPyUlhWOnKXD33e2AMPg+9thj3DCXywuWxm+//cZLf3+UfxcsOZWiYRhvy3I6hSJFilgyKO/YsYPP+zda69yyzA0aNLBCnhuf/PTTT9O+ZGrJ+mQBDsY873iz631Tlq5jVFQUB2WeWOB/qlWrxuOVbgeFwfeVV17hxsmrsjJk8ODB/NLP7W+D4ffff88zLwbLMjqFSpUqWS4o//3vf+c2wuOu/DjuRvv27fPLv7GyL7/8Mge7o0TURtYlE/BsDX5vtkEptdOf6zIqV67M553XTfif/v37V8pqNx6a42effcZBrrG8ZulxbRrwl5SCwTIhIcHvuQCsxP3338+BwjL3St68eXViYiKfcx7Gygiee+v2t1a0R48eaS/2OmY0ZOclvJHHRFcg5gU//EXq1y/TFi1a8HnnNQP+Z+HChbx02TKPwPD/PXbsGC8c+ctiGE906dKFN/b0a6PLjFevXuWGGi7L5xRatWrVwkpj+HPmzEkbtuDe8K0Ietu4nW3atOGAzF3+Tplcol9WKbXMtYLxEG9EJI/hT125lPvKQvgF14Ts2fKgMLhyPlxGXi9P7Nu3r0KwV2fmyZPH6/Lale7du9fxZXGBmT7++ONpOUYekeX0gKVXtPKu0LxizzCMST4EZB4/55Wu+5RSx13XhReJ+b1X7ElXhrg+slB+o0SJEvzG3O3AMHg2b96ce0HcyG4Lf7G2bds2qEuAeSms04PywIEDy1ghlwQ/OrsC8kAv5+/+ID/DKt5zzz2cZpTb+jEi4vPrCR6C4VWii5RSnFflD9dUNn5q4fnFpgdhqWu7M/OCco8ePTgjktuBYfDkHMq8tFReq4zYvHkzDxsEvHGm6ZqWxTeIYxkyZAgPEwQ1wNWvX18nJyfz/N0JXgZkhl9IuX2WFeQFIm3btuUXZ9ty5MjBWe24ThFKqb+5skTyilx+QcemBeCA9IZv5eLFi3nsm/NkmEpQKwn/Ki+ZJaJ68iLdiqZNm3LClqBcR765DMPgpOqOZfDgwfxozW/y3eofCGNiYujSpUs3DMPgsVNfeEZ+lgXldstT1YLS8/XVDRs2XOf0qPJE+xsel3E7OAyO27dv52/iUvIi3YoNGzYUVkr9GYxG/eSTT6ZO9pdlchJxcXH8/iUoqyjHjRvHvWNecv+kLJcX/GUXZph1Dx48eI6IeC9Q8yhRokRneWAYPA3DuEFEJeV1uh1NmjQZEYygzJtIaq15XNvpfC3rbqYdO3bUe/bsuc45qrXW/KIxM/AsAbfPhpn30qVLvDGwz/enT8TGxubKTFIO6H+rV6/OQZkn0HPP1ye2bt3KvWtTpwN5snfv3lzm92R5HEjAgvLu3bu5d/ybYRifaq2jZEF8gPerdPt8mDmLFCnC0/f2ZXEu9e1ZsmQJz4e1/M4KoaJhGOu01nnkdfKGbt26cY81oL3lXr16cZkdu8Q6HQEJyrxKzzCMg57yWWQCfnpyOwbMnI0aNeKgzJsHmItrpwJe0utWCBh4DcNYylv6yOvkLUWLFv0lkIHZtQ3UVFkOB8IbDLjV358ahnHVMIx4mbI1C/xLHgNmXl44kpKSwqsFzadEiRLPYgjDGhqGwXNuvJ1I78Z3333HS4IDNozRvXt3LjPn7nU6K2Xd/SXjGjvmXdj9CU+tdDsezJxxcXF8nT6XJ9kUHn/8cV4ddEkWAgZewzA+yUpQ5iefRYsW8XCC35Kw3MouXbpwmX2dqmVHeAGDW/2zqmEYVwzD+JrzKaTbX89f8LJjt2PCzDlv3jzzllhL5syZw4/LlkhuE+pygMvK8EUa77//PgcR05fZ8iwBzsMgj+9AOBevW/0zq6t3fJGHfnydAukDltw6zK5u2rSJg3JAd9ex/UaLTtAwjH/7I7kPERVZtGgRZ8wydXy5cePGXGZObOV03pF191XXSzzmV8MwZhuG8boJveP0mHrtQ83Tp0/zfwNHsWLFustCwMDrr54yQ0QRW7ZsmZ4/f37Tesyu/fl4o1qn86qsuzdOnTqVzw+zh/PwGobxFhH19JSY3s/wghe38sDMyYm3eC9EeZJNpX///jz3Dt+sQTarL/okRBT5008/vV6mTBnTrq1hGJynwOm8IOt9K6tWrar37dvHPeONRBRHRI+aPr/1r3CSH7dywcxZs2bN1CT88iQHgv2yMDCwGoax0Jtcyr6gtc6XnJz8Qt++fblH63bMrHr48GEO+E5nkKx3Rnbq1CktedAMImoqPyhA+PQlAm+ta+rndHmSA0GcLAwMrIZhrPTHmLIniOiJHTt2fFOvXj2/9prj4+P5vZWZY6NWYICstydHjhzJ1/A8ET1rwuafvrBRlg1m3jfffJNf8vGmEoGlevXqvAOuX29Y6JtXrlzZR0S8MaopEFF9Inpq/Pjxe+WxM+tHH33EDbaQPJbDuG3GNdcGspf5/Lq26womeOr1o6tWrSKtdTN5kk1n6NChvItsoiwQDJyfffbZJbN7WBww+LH65MmTzzz77LPn+CWGLIcvvvrqqxyUH5XHcRgvynqnmTNnTr1mzZrUbG5a6w5mPel4S8WKFTlfBuckdisrzJzHjh1L8vMu297hSpi+VRYIBs4+ffr4nLozs/DsDCJqcebMmRGDBw/O9B50sbGx3EN8TX6+w/AYlPkL7dtvv+X6c/aw9vKPggTvvo3FYH4yKiqKX/Jt0loXkCc6IOTKlWuVLBQMnIUKFeLx2b/L62Im3Ni01k0SEhIG9uvXjxPW+zSE5ZoW5/T8F0NlvSMiIvTmzZu57vs5X4UFhizS4FVnPl1DmLGuLdpWBu29SZs2be6XhYKBNT4+/pi8LoGAe85a65qJiYn/GDRoUIos1608fPiwXxa9WBjOD/O/+kZGRuotW7bwzbo5KI+1t4bnVCMo+8khQ4akrh+QJzlgxMXF8be9W8Fg4IyNjeUhjPLy2gQKXthARPcdOXJkVc+ePSlbtmxuZZTOmDGDZxxktAGmE/jf8EXu3LnTAjKPIZcOWg8qY36T1wdm3lmzZvG15hWdQWW5LBgMrOfOnZslL0qg4QTrRFT96NGje1588UXioRVZzjS7devGXyQV5Gc4CB4zT63runXr+KXeN0R0j/wlC8Ar+ZDx0Y/u3LmTX2TzCELwKFWqVBNZMBhYx40bt8f0bWe8gHuBvPiEp7wR0aCFCxdeqFOnjlt5CxcuzL2JsfLvHcSbXM81a9ZwPS9lcUcQM1korw3MvOHh4RyQ+T1PcN8XDBgwoLJSKkkWEAbOokWLGkGZF3kLeGt7zstBRLU3btyYEBMT85cy79mzh/M4O5VnpkyZwgGZr4vZeSuyAmZd+NEHHniAZ17w+5Xg4tq915T8sdB733333T/ktbESvKtvUlLSlbfffptq1KhB/N/MbmVldbp3716ds7wR0XPyZxaCp8Jx0hy3tgQz59ChQ/mLODCJ7W9HRESEX/PHQt8tU6YMPzoFK3eCV/BjHSdR4qXFp06d+pWHOuTvOAWei23xlYvjMevCvy5ZsoTvwQbyRAeFjh07NpcFhIH3gw8+2OuvVJ5m4lol6OQpcZamWLFiPKTylWw/MGseOXKEH48sNasoIFsKwYwtXbp0ChH9Q14YAAT8Hgi9ZD9atGhRHk8+TUTF5MkOJvGyoDDwTp8+faPWmsf5AcgI3rzWre3AzNuhQwceT17kz/zmWaZ58+bcbce3b5AtXry4vnr1qqVmYgBLgYT2Jvjmm2/yfPQJ8mQHlSlTpuRVSh2XhYWBd8KECbxirrC8RiC0cc2UmiHbC8y6O3bs4NlE/eU5DyquR+b30FsOvgULFrx54cKFwGxvDuxEUaXUDtleYNbkxVApKSn8kq+IPOFBp3LlykOUUj4lp4GmSC+++OJaO8zEAAHlZXSa/C9v/5SSknJKnmxLMHLkSM6AdVkWGgZFOnHixEB5jUDIUhsr+MzRtZvOCHnCrQSnknQrOAy83bt3v8q5e+UFAqFFbGwsPzEtkO0D+sdTp07xeLJ1l9Pfc889vLTUreAwOO7YseMDDGOEPLzKzJTdyUPdatWq8dDFEXnCLcXgwYN5nh7GlS1igwYNjmmtK8nrBEIKTq+LsWQTdOW7eFeecCvyhSw8DJ6LFy9eIi8QCBl4q3skHjLJ+Ph4nnXxlDzplqNKlSqD8M1sHYsVK0aXL1/mawJCiKJFi/JcdUyBM8m8efPq69evJ/G2aPLcW47XXnuNM++flZWAwXP48OE/E9G98loBR8Nz1ZGTxiR79uzJ48mHtNZ3yhNvOXbv3h2hlPpRVgIG1etHjx59Wl4r4Fj4HvzFQzuAfnLp0qW8ywjvMmMPatasOVxWAgbXVq1aHUbKzJCBk61jCNEkc+TIoS9fvszzk4vLE29ZJk6cyPuSuVXGqfJWMPLfLCitXLmSX8ICZ9MDL/fMtW3btjx0wU8itiMkdrret2+fTk5O1vfee6/leyYlS5a8fuXKlVh5oYAziIiIuEsp9Z287tC/zpgxg3vJ1p91IWnbtm2bUHiEOnDgAM9VXLB///6ncubMyWvg3X7HQtKIESMOWSrvK/AnPMZ53cN1h3709OnTvFq2hTz5luff//53qVB44bd///6LRFSVA93SpUt7yp9bUOPAgQOT5PUCtoenPSL3jMm2adOGhy62EBGnK7YXWuuwqKioZbJSTnP79u0JadvA8P5zH3/8cZz8HavZtGnT60TECaSAM6ihlEqQ1xn638WLF/OT8Sp5AWzDc889V09WymlOnDjxLBHxU0EqWus7lixZMj179uyWHrqZNWvWpxjGcAxLQ2GoMNhGREToK1eu8Hiy7RN9JcvKOcn69euTp4UZa9as+WeePHl4fM+SN0u+fPl0UlLSg7LcwD64dhMZKq8tNMd+/frx0AUPEdmbhg0b1rdqYPKXCQkJM2W9mV9++eWF6tWrX5S/bxVjY2MNrXU+WW5gG1orpSzbvpzmt99+y2k6O8iLYDs++OAD3iblD1lBJzlu3DjuLReUdWcuXbrUu1evXqf5BZv8Oyv43XffrcEwhi3h6W+b5fUMtnfddZdd5u37ZLly5biXnEREd8sLYTv4hV+uXLkmO7m3XKdOHR78ny3rngYRNVq8ePHOiIgIywXmKlWqJBMR97iATYiMjCzkWrXndj2DaY8ePYyFCxfeDAsLc9y9/vrrr/M9Psu1H6n9GTRoECdHsVxA8qeHDh3aSESRsu5p8O4ER48e3dylS5ckq31BTZw4ES/9bEKFChX4OvEmxW7XMVgWLlyYli5devbw4cM78+XL95PV2rc/PH36NL/gGyyvh21xfbskyoo6yREjRvB8Zc6QlyGcUYqIXt61a9f6li1bWuYFaO7cuXViYmJnWV5gSbpbKfvbY489RklJSQnXrl0bXaNGjYpKKX4qdlQHrHv37jx0cY2IONGTc3jwwQcdnaSI8xanpKR4lYmNe6WGYbyzcePGH+rWrcsNOOg9iy5duiRqrcvKsgJLwS/NLbGzT/HixTlT2g3DMH4gol6dO3fmZFecW3ijFdqzP920aRMPXSyWF8MpHJUVdpLLly8/JCt8K4iohmEYn6xcufLXypUrB7shU3x8/BRZRmAZSiuldnm4bgF3yJAh+s8//7yhtV5CRPfxeyOlFC9G+sRpAblWrVrcS76gtS4gL4gjKFGiBC/vddRFS2+rVq143KmxrPet4MUmRBRrGMbcb775ZnuXLl2MnDlzBuUcVapUKenatWuVZRlB0OGZFtOCfe9UqVJFb9261TAMY4thGNOIiF84qty5cxdVSq2Uv+8EP/zww9QVfHyfyoviCMaNG9dMKXVeVtxJHjt2jC8g9xx8whWcHzIMY+r58+c/mjhx4gXeLVd+vtlOmDCBez/2W9fvXDhn77hgBuQiRYrot99+m4PTGcMwphBRU1HGN6w0zu0vCxYsyL1kTj7Eex06E84NoZT6j6y8kxw+fPgpIqom6+4L/KiktX7JMIyJ+/fv3/jyyy/fLF++fEBuyty5c9Phw4d7OGbqj/15Ryl1RV6nQFi2bFk9ffp0MgyDF018S0RDZOGUUl2VUlfl3zrBuLg4Dsq8OYTHNQiOoW/fvu2C+a1vtoUKFUq5fPmyX6bOuHrPDxDRcMMwXt26devnL7/88uXo6OjUdfjy2P6yefPmu2y1q4IDKVasWG6l1OhgBOTKlSvrjz76iHvGHJDXEVFcBsNylZRSB+XfO0G+v86dO8fDkf+QlXYqvO2924lwitOmTeM30H6Fe678UoWIBhLRc4ZhTNi+ffv+6dOn3+jTpw/VqFHDrRxZcebMmR/x3GpZDmA+NWrU4KlXrwV6alnHjh31119/zcE4hRdKENFQImp4i+E4ni9tidkg/nbUqFHcS14fMk+MPXv25N5ywHsAgfLuu++mmzdvch1Ng4c4eCUeEfXjXRCI6Onr169P2bp1608zZ868PnDgQGrYsGHqHGRZPm/MkycPHT9+/CUsKgkK/1JKXQjEEyUPUYwdO5aTU3EwPqm1fkVr3V9rzbM9bgVPfzsjP88J5smTR589e5Znl/SXlXYsBw8eLKyU2i5PhpNcvnz5NtcYekBw9aSLaa1bElF3IupJRH34xWFiYuKvO3fuvLp69WpjxowZFBcXR/369aO2bdtS/fr1eSur1Jc5uXLl4iDwv0DQsmXL41prvvlA4OhodoeFA/HQoUP1xo0beXjimmEY03kGEBE95s1L3jJlyuRyzbYw/UsjGA4fPpx7yQeIqISsu6Pp1q3bP+XJcJL16tVLISLexDJouAJ1Ca11M9cN1zGd/DLvJa31XMMwPuPcHbygxTCMhadOnTr6888/3/z+++8vcpCXnwvMgYcJWrVqNTE8PNyvwS48PFw3a9ZMjx49Wu/YsYN7xByI5xFRVyJqnz4fuJd0UUpdk8dxgjyWfPbsWR5LHiEr7Xh27tzJvWXHTaNJJ61fv/4rqy7N5F48p+3kVXycD5qIynBPm4jK80sdInrYZepcVBAYXAuKXl2/fv2WMWPGXH3ooYeoePHiXgVpDr78kq5169b6qaee0pMnT9bff/8994ZvulbeDSCiR3jqJWc7y+R4KfeSf3ZqL3nEiBGpOZO11jz3OvRo3749JypyOzFOsVGjRpwPo4KsNwAZwb1l/iIkoiqcS0Vr3YSfaq5cubJt69atN+Pj43Wa69ev1zt37qSEhISU5OTkq4ZhnDYMY5PW+k0i6szziV1/z1+yvI+kPzoIi5wakAsVKqTPnz/PaXhDZsaFG3v27Cnp1Ck1aa5bt26PrDcAvqC1zsVf7ryvIhHVFvK/1eKxf54f73rSKaS1ziE/xw/wXoCOnJPM8gKZlJSUzUTET/GhCc/DffLJJ6fKk+MkGzVqxN+8PMEeALvDaRLc2rgTLFWqFI8ja9d7loymAIYG586dy8eryORJcpKrV6/+JJAzMQAwgfJKqVOybTvFOXPm8AvQZK11HlnxkOS1117jC+7YwFynTp3rRNRA1hsAG8EzLhx5j1atWpWHLbibXE5WOmThx4WSJUvOkCfLQdJHH310UtYbABvBO7PLdu0I165dy73kKZmcjeJcFixY0Ib3GZUnzCmWKFGCx6x6ynoDYANGyfbsFGNiYriXfElrXUdWGiilGjZsuEWeNCf56quv7kE+CWAnqlSpwrM4OJeLW3u2u5GRkfrkyZM8j3uFrDf4K47Nt8wrtU6cODFIVhgAC/OYUuqmbMtO8N133+Ut3PjlJbgVQ4cOfdypSzjZbt26JWOVHLARY2QbdoL16tVL2wzVuQns/cWFCxei7rrrrm/lSXSSn3/++QyTJvcD4E94VlRA04cGwuzZs+sff/yRX+59wQtzZKWBB5YtW/Y3pdRFeTKdYvHixS8nJyc3lPUGwCr079//TqXUJtl2naBrR5GjvPpR1hvcgtatW8914re0S4qNjV2M3jKwMPcppc56aLu2tkmTJvrGjRu8SOTvssLgNhw5cqRMrly5DsuT6iBp1apVvWS9AbAIU5y2WCRfvnz6t99+42GLhVrr/LLCwAumT58+0GkNI71FixY1zp49i2EMYDV4t5lE2V7t7hdffMEBeTcR1ZMVBl7Cg/AdOnT41MmB+cEHH/wOszGAxXDcBhRPP/00jyMnENGjsrLARy5fvlyiTJky2xwcmGnSpEkTZL0BCBK1nDYvuVatWhyQDSIaorXmF5ggq2zZsuWx7Nmzm7pvWTDNnj27sWPHDizBBkGlVatWPGwxXbZPO8vjyEePHuVhi2m8046sM8gkPEthwoQJIx3cW+bNLI/98ccf1WXdAQggnP/hmGybdnb16tUckNeGdOJ6s+CcEe3atfvYwYGZWrZsuRrT5ECQ4Hzfqzy0S9vKG8WmpKScISK8TDeL5OTke2rUqHFAnnwHScOGDZvqp73UAPCFoR7ao219+OGHU3MkE1E3pOQ0mePHjzcvWrTo7/IiOMgrixcvfibkt6QBgYT33jvhoS3a0rvvvlsnJSVx9rdxCMgBYufOnd1z5MjhuHmUaebMmfP4zp07n5f1BsAEeLhss1OGBQsWLKh/+eUXHkfeSER3ycoCk+D5y5999ln7sLAwt4viFIsVK3b69OnTPWTdAfAXrlzJjnlPkzt3br1r1660BSJVZX2ByfALsSlTpvBEcEc0KE/Wq1ePJ7uXknUHwE88ycNlst3Z1XXr1nFA3kBEPNcaBAPeIXr06NHvOTgwU6dOnX4mokhZdwCySGWl1Gkn3Dv8xPzpp59yQOYXe/fgfUyQ4cQizzzzTLy8UA6SRo8ezfMsMT4G/AU/2h/10NZs6YwZMzgg847xFRCQLQKv1ImNjV0oL5aDvDlhwgRO/A9AVsmjlFrrlB7yzJkz0wLyU7KiIMhwYH788cd/kRfOQRqTJ0/mt+QAZIX1SqkUD+3LdroCMg9ZPKK1vkNWFFiE2NjYX53QC8hAmjZt2nOyzgB4yTwPbcqWfvDBB2k95DayksBiEFHBsWPHxoeFhTl215LJkyc/jWxXwFvq1KnDbYUf723fWeEhi9mzZ/PCkCta6w6yrsDCrFixYm94ePhVeVEdIg0fPvxtbPoIbkeFChU489t4D23IdoaHh+tly5ZxQD5HRLVlXYHF4Z7k3r173ylWrNif8uI6xQEDBgzTWheQdQfABY+zDnJCfuTixYvr3bt3c0DmufvtZUWBjTh58uSwxo0bH3fCo5snu3bt+gECM5CUKVOG96Br5oR2X7duXX3y5MkUwzB+RFt3CDdv3mw7cuTIH7Jly2b7BupBatCgwRtJSUn3ynqD0KRkyZLhSqlXnNBDjomJ0ZcuXbpmGMY6rXVpWVdgY7TWUV999dWmQoUKOXKcuXTp0j8cOHAASfJDnFy5cnHg6mP3HnK2bNn02LFjeYZFkmEYi2Q9gUPgb9rExMQPmzdvfk42AgdI+fLl27Jy5cqHka4wZCmmlJpj94DMWzitWbOGx49/IKKRaM8hgGEYr0+bNm1v/vz53RqE3Q0LC0sePnz43zBlLuTg3TXesXtArlq1qk5ISEhLvYkZFqEEEbU7ffr07B49epyUDcPm8k2Z9OCDDw46depUWVlv4Eiq8f7CHtqCrezUqZNOTk6+ycMVCMghCi/NJKJB69evX1mxYkVebGLrXoaQSpQoMeuHH36oKesNHMUjSql/e7j+tpHzILuSCt3ArtMgFa11JcMw3vjXv/61s2jRom6Nxsbyl8wXU6dO7YXhDEfSUim128N1t40tWrTQR44c4fHjTYZhvKq15oRJAKQG5jBeR09Eo6ZPn762RIkSTuo1n+jWrVsc0ho6A9eOIXFKqa12fbrj3vF7772Xmr+CO0Raa55TDYA7ruBcl4ie/fDDD78oW7asU3JoXC1cuPDE+fPn15N1BvYhMjKykFJqgp3nIPNO066XebuI6Bki4nnVANwerXVNIuq3aNGizTVq1LBlj0TIXzDxrVu3fhOpDm0Jb3PEecOve7i2lrdkyZJ6+fLlqXOPiehFImqB6W4gUxBRIyLqsXbt2i0tWrSwe3Dm8l/OkyfPvMmTJ/PW8sAe1FdK8UYHtmt/OXLk0C+//LK+fPkyL5WewLkrtNa5ZQUB8AnXsEY9Iuq4d+/eT7t27cqPj7a7QdLJveZNDRs2fHP79u24QazNGKXU93Zsb23bttW//vor944P8L1DREVk5QDIEq7gXIEfvc6fP99vxowZFx544IHUPK+yQdrE83feeee6Z599trmsK7AE45RSf9gtIHMw3rZtGwfji0Q0lDs0eNEMTIcfwYioPifb/u23346MHTuWeEWSbKA2kG/4n6OiolbMmzcvQtYTBIW8ruGK8x6ulyXljknHjh313r17U+cca61f4vuDiLguAAQOngNMRPcS0X1ENHDfvn0nxo8fr5s0aeLWcC0sB+YbSqm9FStWnDtr1qxIWU8QMO5WSu1wDTHJ62RJe/bsqX/++ee0BSBvEFENBGNgCbj3rLUu6xriaHPu3LkD8+bNo44dO1JERIRbY7agHJyvKKV+rVSp0uwVK1YgOAeWN5RSR+0yXDFgwIC06W3X+GU4EZXHijxgWbTW2YmoMBEVI6IqN27cWLlly5ab48aN04888ojOkyePWyO3mJzmNLF27dr9Zd2AKUzjmTEeroOl5CxuL730kj5z5kzqbtKGYYwjouJaa17UAoA9cL0gDOdHOg7ShmFM5t7Fd999R6+//jq1bt1aWzhrHfecv5N1An6D99HbaPX5x3Xq1NHvvvuu/vPPPzkQM7wsugARcfkBsDc8aZ4XcLjGo6torZcYhnHpyJEjvDmkHjZsmG7ZsqWOjIx0uzmCID9Kp405v+9a5gv8Ay+e+M2qwxWcC+a5557T+/fv1wzvIk1E3bndYjYFCBlcgbq5YRg7+SY4dOjQtcWLF1976aWXbrRs2dIoXLiwFW7g04ULF+4UFxeXIz4+PrusA7gtnCDqaSsul+aOQGxsLK1evZp7w7wV01XDMD4jIl7iDQBwDX0UJKIuhmF8bRjGmRMnTvyxcuXKP8aMGXO5ffv2RsWKFdN6s4EO2BxUZjZp0qTAhAkTMJ3u9nDvkmclLPdwLoNmoUKFqE+fPmmBONkwjLOGYazEvngA+IDWOhfn5uDELoZhHGMPHDhw/PPPP//9zTffTH7yySdvPPDAA1SkSBG3m9AEefrWCqVUufr165f88MMPC/OLTlnmUKZKlSqclvI+pdROD+cv4DZo0EC/8MILtH79eu4JJ7ra0A6tdRNZdgBAJuBxalePmrPcDTEMY5VhGPt4ievly5cPHDhw4Jc1a9YcmzVr1rlRo0Zd7d27dwrn8uBednh4uD972Dz2vCUqKqrtCy+8cO/GjRtLI5+zKqOUei0ITzKp5s2bN3XGz2uvvUbx8fGcg+KMYRi/GIbxk2EY84iooiwwAMBkXCsQOWC/yFvuGIax3jCMrYZhbGPPnj27fffu3btWrVq1b8aMGQkjR478o3fv3ldbtGiRUrlyZcrES0cOQNyD3h0eHt6hVatWtf71r3/x1KmQeUEUGxuby9U7/jGQAbl8+fKpCzr+9a9/pezZs4d3hObgy73g7YZhrCOi3kiZCYDFcfW0I1yLXzjh/2jDMOYbhrFaa/0tB/FLly59d+DAgZ3r1q07Nnfu3OQ33njjxqBBg4xOnTpRo0aNqHTp0unHtmUQ4ilf85VSD95zzz01n3/++aL79u1z7EyOChUq8FSxbkqpCzJo+tOaNWumLk4aOXIkLVu27ObZs2dPGoaxxfWly9eOlzvfg6cVAByIaxy7IhH1NAzjHcMwPuEXQq6hkjRX//777+t27dq1fc2aNYfnzJnzx+uvv35t4MCBqcG7cePGN8qWLbsvZ86c45VSHZRS9WrXrl1+yJAh+ZcsWeKUPM93KaWeUEole/hy8sm7775bc9Krbt26pU6VnDZtmvH1119fOXbsGI8Bf+96+ctv6PjcL+Wl/jyMJQsEAAhRxNj2E7zIwDCMWYZhLHbNx/7UFcwXXbhwYf5vv/02eefOnQO/+eab6E8++eTuWbNmFZ88eXLpLVu2FLHjy0Kex/3AAw/0j46OPhcdHW1ER0eTJ9u2bUs9e/akIUOG0CuvvJIyZcqUG/Pnz7+4du3aEzt37txx5swZDrb8hbfMdc7SXGwYxgwi6uua454nlIaEAAB+hIOHa/k5r24sRERleONaIqruSuh0n9a6Du/ZRkQNeDhFfobVcY3d9zUM4z3DMGZrrefeSsMw5ri+tKa7ksAP5nnqPB2NiCKxOwcAIOhw0NZa57frtlWcB8KuZQcAAAAAAAAAAAAAAAAAAAAAAAAAAAAAAAAAAAAAAAAAAAAAAAAAAAAAAAAAAAAAAAAAAAAAAAAAAAAAAAAAAAAAAAAAAAAAAAAAAAAAAAAAAAAAAAAAAAAAAAAgYwYrpd5x+bbLtP8fTCcLM/p3CL1Rti+z9XRMWabMlk/+bWaVn+sP02LI/0xISKglgw7IgF69epVQSiUqpcilkc60f4MQQm9NH0NSPXr06EIiipTxB3ige/fudZRSGkIIzTIhISGJiBrK+AM80LVr11LyBEIIoT89duzYVSL6m4w/wAP9+/e/0/XI4XYiIYTQHyYkJFwkotYy/oCMQVCGEJrmsWPHTmmta8rAAzIGQRlCaJoJCQkHtdZFZeABnglDUIYQmmlCQsI+rXUeGXyAB1xjym4nEUII/WVCQsJerXUuGX+AB2JiYnLIEwghhP6UgzIR5ZTxB3gAPWUIodkePXp0j9aaO4DAC3hM2e0kQgihvzx27NhurTV3AIGXuJ1ECCH0l66gnF0GHpAxbicRQgj9JYYvfMftJEIIob/E7AvfcTuJEELoLxMSEn4konAZeEDGuJ1ECCH0lxyUtda5ZeABGeN2EiGE0F+ip+wDcXFx2eQJhBBCf4qesg/ExMTcIU8ghBD6UwRlH4iOjua5g24nEUII/aVr+CJCxh/gAfSUIYRmi56yb2CZNYTQVBGUfQP5lCGEporhCx9wzb5AUIYQmuaxY8f2E1GkjD/AA507d+a5gwjKEELT5O2giKiIjD/AA7169SqBoAwhNNOEhIQTRFRNxh/ggW7dutVCUIYQmmlCQsIfRNRUxh/gga5du5ZHUIYQmumxY8dOa63ryPgDPDBz5sw7R40adTMuLk5DCKEZ/vnnn5zkHrtZe4vWOsYwjDOGYfC32ZtEdD8R3UdEtfjbjYjqElFDImqstW7CjyFa62ZE1IKIHtJatySiBz3Ygn/m+jn/Lsv/3jxN1+dEE9EDrs9tkqarHI1c8vGlaT/zJP9t4zTTfWZTk+Typ9YhK6avf0bKvxGmleNW8vlOlc9/etNfm/TX0QRlW/HqOOna00NE9LDwESJqdRtb38a03+PPYtN/fmpbF+3ZzfS/k/a/vfk7H73VOUv7Wfpr+Zd7Lt31lm0jrR2l3TvyHmzgUt5/9Tle8Lgx64obfP6eIqIBRMRP5MBbeEcArXVRl3m01tm01mFC/rf03mGC8hh20ip1kOfUyWYPsPL4TlS2J1/kNQ9pMYVjBp+zXEhuDwAAAAAAgNX4P+iRcKf97amRAAAAAElFTkSuQmCC;" vertex="1" parent="wo_QYc2rkXZs_NssMeJh-8">
          <mxGeometry x="70.15" y="34" width="104.7" height="144" as="geometry" />
        </mxCell>
        <mxCell id="wo_QYc2rkXZs_NssMeJh-14" value="" style="shape=stencil(7VrLchs3EPwaXlEABs+z4/yHqyxHqiiSS5bz+PsMwmC56OE2w1MuvikOmovBvLoHOMmHb4+fvj6cov/2/vb668MfT5/fH0/y0ynGp5fHh7end/3rJB9P8uHL69vDL2+v318+n//766excvz12+vv4xf+POOqOOkDFf1f539J0aX2z7/8fAY8P73sAcElWQHJZTkGlO4CAJqrlQCqy2kB5ORaIIDsWlkAJbjmCSC5FFZAdqkTQHA1LoDqnU/HgKxGrzboQbMt5eJyXQF1HvR1gLi8bqnpJtkXgut+BSRXiNHZuwhfqK7nY4D6VVZA964QT6fiZN1Sj84TTydxdXVcT64TG1JAP/TmEtmSdBdXP/Q+D/o6QKM1IODfcLwOyK42BHS2peT8Gt7Ba/QRV0t0ku9DqKOS2RQpA7G5Hg2AmB2ri+acWDTF7LI3AJIRUYOjGwBxXdQqIQhoBBD6LFw7AMu5UF0pCMgkXkN20dggJDhCnGVlBwjkWIM3Aa6uJKWsYunrvHxrJfVmPXGbYD/R9dQJ2B2GwSTwtAJYe8n+/fz6vmKQ/XuT/1oRiAP0/CEkyjyxg/UeIiLT1rMl+rZebuwH1/MabPfjaYE09jbuL3Oerd3YD/hLu1Qg/jLx0ApPSYy3xv2VnAiuZ/bW+fXdes/i32NNaTKL91GJgLbc1MPshNLcwAbw06ijqtXXflO7S8wGLSoFAZ4lcceoqJrFJCrUbTEhoLHuEWf72gOIn9XRpSGAFcZYkGoPAGuZzQVvAKxldsyFASChIYLJr6yzkmQQzRUwWrk54QnSXIHQEBcJIPnZjTZApPVLOWHICBBGIjPmgwIi+0KdlPG/ArorwQCI0crNq7WBJJAqItQXKtvIllRfAJlXIcdkW25Yx1TysDpW/Ay1TVRtvr8OiJhApVAmorINQkMBnhxrqSg9VeexfFCt6hMCWHPTM2kGwPiapksA6anFmAEKAjLvnyODQT5nGnxaevMafBqOQiqftg8gqSnRlqsNChynWc7Cu2XMOC08ntSl0fPX8JYwee51QENaO/QG+YKynLRGq/Yk1h96mIVxA6Sp8a8Dqmur0X6OKa6vbzPSLuuZxhu8GtdHEkhDeazZo9SJxNFFC21HSvP/Iue2qJhN/oD4GKrKmdv4AFDJWxsqKLTpWEgBkAhhG7IcumCNOiVnrKMPHwcEMBE8gsh8gTUGBYixQUiNVACMI/ocylxfXzAPKje54DQvT7cc7mc9IuFerjh0CrTr6HqYOXmq+dVl0cN6Rm2HPMbfD+z3tfx3WM+mo5eJwyUtb/w+lAmh86yRZevvZ9duZCUQbTppGmUF440x/75Jj11A0yxu8/u7lGHU6H6AoD7SUscUmEpwsEGNLuyQPE6mJM9521H/6ysgBepm7bAgqFKho9fRw9dTUlrRSKIprYAReOaTI1WlEHnlxt1Fn7R9RyAZkVcuFSBWA03mmlE6K+FjXEppO0q2QtNhME6jU1nbH5wWZGelk1plzVHu+kLGiqQARr7KJgH3WpsBAg6P1feZ2KCR0wDAReG4f1lDQ0krG0NaBdYS7cxD48HcJlPmP1RkRACj2UOndgRENqpSrWK2xHi5am0c5mVa+bSoRGMDY0jSsTu3MsX0dYCpS43Pa8WO2P105dGQBAqZUnvGMGRT1ruRKpOddtAzAMQPdvY0ADfGYfWeL4SK3FkBrD+ouMGLCKG8LciM/t1gm151BHO9WOlkuOMNqTbuzGqxK+YqJRO3mUnvoB7sNujHzcWPmwvmr//55sLcxOl6VrbMTZ+uZyN2c5M4fp/t31xVjl7Aipa5DB0Ws5GC6QXjsoZtyVzojn7Gipa5Mm6Z1lF7Kd34zNJeeyuA3QfZm/gBYC3Wu2K2xNiXbOpmB2DEXJu4JAREVno9DiGUfbFcTtEEX5gjwyNuVC1tZoA2X9PsqD8TSNnjK6TxtordrEe86SiNqpEsKFTLDY5acBahzJsdazaKSpk3HckHPCUl0oU9HxMktZmzrzGAX21IiQ5sinnBM970MJ7g0YbLg5sjkQdVQ1OKAgRlpPDLl/GMr5kvsFcdMqX1DsAkWDU5LYEySAVA9dZTaszo5NJaBLSOsIFzTcizhVe+K4BKH8uMLa3hPe4zSakcRoMf+CuncawwVgk0gYbjDIC+37n7hedtgP5xeVD65en5+fwedf//8QGq/tP58ap8/Bs=);lineShape=1;strokeColor=default;sketch=1;hachureGap=4;jiggle=2;curveFitting=1;fontFamily=Architects Daughter;fontSource=https%3A%2F%2Ffonts.googleapis.com%2Fcss%3Ffamily%3DArchitects%2BDaughter;" vertex="1" parent="1">
          <mxGeometry x="-705.4136946256406" y="-134.04202521804683" width="14.602727190010569" height="3.548188299553715" as="geometry" />
        </mxCell>
        <mxCell id="wo_QYc2rkXZs_NssMeJh-15" value="" style="shape=stencil(lVnZUlsxDP2avGrkRV6eKf0PZgglUwoM0O3vKzdj51pOToa3cPG51q4j3V24eX+8e93vPL9/vL183/8+3H887sKXnfeH58f92+FDf+3C7S7cPLy87b+9vfx8vj/+/XrXTrZfP15+tTf8OeJqJR8byvPf4xPnyNX/T74eAU+H5y0gU0wzQCh4AIjk8wTwnmoAAE9pvsFn8gIATHXWIXhyQKRSu4oDoDcggP57BkRHGVipRGvWWChHAHAUeQJI6HY7C8jZWkkyOWDWLJTNDZUSECkHktlxaXjmPMB1Iw6AQJGS+mEWKeXuyvOARHlWOjMFdEOkWGaAxwBvHZcjuQIATDzroIauwErqpjybVV2ZQfCJkMgMqBRBaGjkuFnp4okdAHBPyAEQYpBxGsxpzodSKCBAslWjum6G84BIPN+gdSQCs2pCptlKVQMeeDrUXrYGIMEyE1JP+Q0ggNAIKrFYAHJcK1vZAgTo4CvVRQcBImklrYtICQHS4odEhQFgKfcKqCD4tBuYFNUWg6LVsw0+BTggkitdgC0A+MGNSroBeFCXWgtMCwD0Bxe6mzaAgG5w3epbALpB65K3gIh6nC187TxIB297qFKJDCJJ89Pb8xUpQJzteVQAmMTIU2ADZfLGxzjX1J7mfIT25B7E47yHjYRt0a7Dg5f0nQNCSzAibty70jiviQzs6Zb3Jyi/t/7S84hTKZdY3l9RNe0dadty4HmbkupxoG+w+qq/IsjIsHS0CCtpWPJL+wnMr2LeX6A8ymuWfBHo3zLHp+NBZS4AvNgLMqjT3AnvRgHUkLkXwG2VhgnPJmGUbQKDLkSt4jmELTnVAML6BsO6CnQw24repgwgj7N8RRMGUVk97z5zfmkAJUD51w7TAKgDLD1MAQVYdO2SDYBEWvqwAiqK6aXTNwDKmoVL6KjHiKItbEUBiK2sfKgBQGFfGVebPq9wuuUGxCVW1qgAQTosvFQBCQAa800LAHSPMJrvFgBiqbH3uOiA5wP3KbPqBGKWBFeCL4YzAEYzjiwlhvEUlfuEv5k1UROM1a5SMs5p8X3u20zkESgt0d6gMz/q45JtaCTpVO88oNpOmAJc1iRnqaM+qcCsadhkALiPSecBYhNIlKyBaE3Fsh0RKsBKbQ9i1kEeJlDWMjMXMmE4gWTNr7lU6lBf0Q2pSzwAATLOPPrlAFzZ4zm7GQlXtmzLVkHrSAYiFbFbhcBwQ6U93HRdLZ4MYqlUK1JjZnjbWWaAS1BppTnGrK0RoxVvtDldSIAb6hLdEVYl5XWmFDPMT+WNpl8xJEononw6j4itnje8hGHYKe91Ys6jgnQaXIcDerJeOp9NDPVcvXTeRESghOw/Bu+R+nDbtxkMRr2D7b9dMJeKDFdATWEzu8DRsU025qMFXgN//ivHdYD+OH1UeTg8PR2/yWz/bz/C6KPjB5xw+w8=);lineShape=1;strokeColor=default;sketch=1;hachureGap=4;jiggle=2;curveFitting=1;fontFamily=Architects Daughter;fontSource=https%3A%2F%2Ffonts.googleapis.com%2Fcss%3Ffamily%3DArchitects%2BDaughter;" vertex="1" parent="1">
          <mxGeometry x="-692.5993578866716" y="-121.21236208369379" width="14.061087644163536" height="3.545690606589517" as="geometry" />
        </mxCell>
        <mxCell id="wo_QYc2rkXZs_NssMeJh-16" value="" style="shape=stencil(lVjZUlsxDP2avGq8yNszpf/BDKFkmhImQJe/r9yML9dSctK8hYuPZUlH6ybevT0/vG43wb29Hw/ft792j+/Pm/hlE8Lu5Xl73L3Lr02838S7p8Nx++14+Hh5PP39+tBP9l8/Dj/7Db9PuFYp+o4K7s/ypcV/X76eAPvdyxqQKGQNqBkAAjEbCekyoDbiYAAOAPIZHUoDgEje6JARwFFoRkK9DChl2GQBNHIFABJlrwERSRAdogYk4IfiKCUNyMAPuQwirADFA0AyVhIAkhDGA9YAoHR25JwGVPCkVCgaP9QAADxUXAMYAIKW4N3yyrMIFrMrfoulgec4U1MRlMiBGGWmUGeAh45gr2O0JmogIGIjP3uuepg2Yh4xPwBFMg9wRGSqs6uLfEFPEjKVGeApAW5ECYhZ6VyHVmcBoRLP3MgM6RqyDojsxxXnAUx+1iFVcsBKIZCbdRACZwDwTVuJJfUB8vlCPPObRSZQ2kdKs+PElR4Amo448SSD+PEjzY3zYmYU0k5HT8DR44hnpnYjA1o48nM4e6ERIKrJYWKxiu9XOY8YXs/z8TTy/oXjdaaoGB/UKT9kj+MO3h50ocWpMQxHfh6vgDlRqxrJoQwxzLxEI+SZsHbmpXfQNKx19ZKwwPk4MuxyXpIqqDRRl41uLpRyhzFWvEcNQjC8LyO5XKBCqfq8B8nND+1W7ynAPsIs9f6lbbtwPnhtT8x8p+I2wYrkdKoVPjSgr9NFOMOm1Jk0CPs/r2/3V5ylkqDDdUV3o0J9QLUbjzfdWKZRic+/PYx8ugpcRDTWz6mUkCmzTjsiEbmqB+qsgFRJ1C71WJwB8iQISDpYpCgm5LCixzLpuNDAIU6IcyMgPV1G6cekfo4UUP4xCUsaWVToYhpN6sILyQFIglh9liDdDwphdrptTbgLlV5H94iYGtJ6t9msMkYVJKHodkYGNWQlsYlTfa4YGtSxPqEoAG4J7AwkADT42SmrA4DSdo7rAEA+Oyl2ACgGdhbtAOA4O+0KAJVXO093AJBgJ/aChyy7EygZVkC7dRAAg8xn9xoCQGa1mxMBoO2P3c10CTdtfwSA1hR2v9QBIB7sBqsDgB/sjqwDAL37csjogFZerekeX1yJVl4C0Eo3XHLNlFWXmf8SoM1PEt+jMWu19lgQGb7pHKKNYeo/H9UXGzep3Rg2qdawLV97kh7PCuarIUdfPiJf37yivQ6QH58b4afdfn9aKK//rzfI8um0fY73fwE=);lineShape=1;strokeColor=default;sketch=1;hachureGap=4;jiggle=2;curveFitting=1;fontFamily=Architects Daughter;fontSource=https%3A%2F%2Ffonts.googleapis.com%2Fcss%3Ffamily%3DArchitects%2BDaughter;" vertex="1" parent="1">
          <mxGeometry x="-682.8488146792333" y="-97.33244242945602" width="11.798396205875065" height="1.802864544955355" as="geometry" />
        </mxCell>
        <mxCell id="wo_QYc2rkXZs_NssMeJh-17" value="" style="shape=stencil(lVfLctswDPwaXTEkwOc5Tf8jM3FqT9044zh9/H2haiiLkLSd3GR5lyLAXQAc5OH9+PR2GNi9366X74dfp+fbcZAvA/Pp9Xi4nm76NMjjIA8vl+vh2/Xy8fo8/X57GpHj04/Lz3GF3xOvVgphZLH7M71JFP2/F18n/Pn0usRn8qnDe0clAwJTNYRMFRBKpdIT2FOKgCAUS0cQR172CVljlp4QKDIgRIquJ5QW1TbBk/MdITAVkNaUSGJPiBTAlpKG2J9bdOTCPiGGtt5MiCQFEBxJH0MsFOs+IQhVIyWhDE466I77g0uFEviCJKr9wWUmhwieSv+FXEiANDg2qTWCqgvJ21crjaLSAGnN5HKHr4UyOOhItV9fHZuAklTJ1p+aZgdyRL7aDxRgN2/PQPEeeMFR9TZgB47AEfcnULUigf3M0c340FK2t77BCzHcTzHxesoA75vRZ7yD+xdyRnGafyCIlY8LFkRsHlzgKygUydZr3X+Ggi5G0Nwi2i7XFFb5T+C8ijVYjcRgP4X8Sj8V5Cev9qMlAlXe9u9C/wIqRCS3wlegH81GWOGBv7gVtAU+QP8y23gR3lm91bmE7fnR7Ec7GawPpglU3DXUTSu9MdCPb9Et9Izqw6fxuZXLucdkaDAW68gssEKrpHNfohOWqGjPMgTNEfCANtbUb0l7PRo/dJzJ/alF7SOoLalJ+i0FNSoIOrLtG2FubduEuhoDtTAiIyebJcEzV1YrGAJTAFLNoVX+eZTNLdHbhNIG15kgrf1sFztvv6ADiQDxFS2GfQyeKYEvaLcz9S7Bgx7d29cv3+b5bXxo1fyOR7oYu3sfscMXltjGqzvegwSN00YweGROrYaS7PpoP8UO7g6WX8UXNvlxaP3apvo7PqP1q3Uytwa0hzcCEuiyxfg5GxkLrtqAI5xvPn2D/S9eH+7X5ZfT+Tzdtpf/2+u1vpqu5vL4Fw==);lineShape=1;strokeColor=default;sketch=1;hachureGap=4;jiggle=2;curveFitting=1;fontFamily=Architects Daughter;fontSource=https%3A%2F%2Ffonts.googleapis.com%2Fcss%3Ffamily%3DArchitects%2BDaughter;" vertex="1" parent="1">
          <mxGeometry x="-701.9119552489275" y="-95.95969086854791" width="6.1205235060116365" height="5.007983136675875" as="geometry" />
        </mxCell>
        <mxCell id="wo_QYc2rkXZs_NssMeJh-18" value="" style="shape=stencil(lVnbUlsxDPyavGrku/1M2/9gprRkSoGh9Pb3lZvxIZJz1uEtBK1vklYr5RBuftzfPt8dPP94fXn6dvf7+Pn1/hA+HLw/Pt7fvRxf5dMhfDyEmy9PL3dfX55+Pn4+/f182y37p+9Pv/oKf064lin5jvL89/SNJ1/+f/HpZP9wfDyzr5FKUfaBUti3L5WCtpcFgH0u5IOyL8TgPClSq8q+UUz79tFT1us7Rw1sECL5qAGR2O0DfKaaNCBTQABHST+Ra8QRAHist/nMUQZ3kPWavkP3QoUA42W5VQLPKoBsjrQ5fg8QdNwFpughwGlHB08BH4mbBsQRW5cBlaoBYMd1gL50qOTRkSoVvUNkcsDTHaAvLfGLgm++QwyUF6+k8yEm8oz9kDUgU0FHauTNkepqh2AAEl04WqMGJDcOuQcwGZeEFpAf2vj3BojkcLQW1oBEGV+6aNZImPgEUM0OdZWiRXs686C2K3M6S/DhSyd9pByo4h2Mp3NaetocqeAUFYBOoFwHPe/eQfuhCNviWMqayIpb7ZD1kUqggHhpclyJg3j2Coo3R8KvJOQedXiXNpbYK4qmxlU3qO0yoFDTrFHl0iAfgvhBH0mURwM7dCbVoVGlZAHHCTEaMq4VBp/QVtas0Zgq2CFJ9Gs/tAB3KGlUgw0gJAB2EL+2ZgEBZFyVV2ILQHqsTrHUMHt3QLKAggBsC3vbSv2epHTBAhJ+1sAWgBxXhOc0wDGPry7L1morimyBZKUQXZgAKIOEe8t064h2YCv6BMCAmATgzJEqzCABJGcBqGZlkdrmDmXUmMuAOJqRMwBSWL19mBICCSZhd5vUmRqgPuFeno6EQkNy1BBTK1CHlqmMCiCB0JAMMuTa/YBYwI2Sdu5pTBvZJHWDUkBytDkLQH1Zyban6fmAkjpcYAGYcZMkWyZ1tvKk8wba4r0A6RecYdc0fHkZwCM4z0oKSjkp7WzYVXwJdhDxEPUOUhYdiL7eEBgtkLBiSoNVNoCnimqQbeQkHBPSoWMicSZ/ELXySJbNPg8W2bPX51noMbZVfSH4eBTYKxUlW5JcSFYeffOVmpjfKbrZqsmFqufxGle2DXLfd/Ulk78WjQ+P1a7srNhWhEXrxjbpF73hJJAWzSdbBbbobnlIxivbZ/GvGRng/pytlF8MADaCunLCwNNUBY8w2KqQ1YzE8sNqCDPZL6Y8Y7Urx0iTsFvMqdgqx8UgbCr2i0nbJAMXozy2I97FrHDq7BbDSLbv2aedMJ6N2vcBCuX5/A7OwNlOahxWKt7mr6uwHiUbby6PHXfqqakvUpHR+n05MzOXZgQ4WN6jTEP2CCJUAtIMFRtkICGEZiZNlNELVTttjkOp7XVnZiq6qc29psCIJgcjtGZbMhhmfC12rLv18Zftm5XfDBmrTQ0vVsYtjrHEmT3w15uqPTs/eP/e8FRjj/wl7UuNxj4Df4ksz/b9G2J0njjCDRGyt4FNGShZ2zRVd1BSvjV4GwdhB7zzZ761vXx4+03xy/Hh4fST5Pn/7W+Q8tXp98vw8R8=);lineShape=1;strokeColor=default;sketch=1;hachureGap=4;jiggle=2;curveFitting=1;fontFamily=Architects Daughter;fontSource=https%3A%2F%2Ffonts.googleapis.com%2Fcss%3Ffamily%3DArchitects%2BDaughter;" vertex="1" parent="1">
          <mxGeometry x="-733.9935681441347" y="-102.21338250937242" width="2.4574962373188782" height="16.914299551291265" as="geometry" />
        </mxCell>
        <mxCell id="wo_QYc2rkXZs_NssMeJh-19" value="" style="shape=stencil(rVjbbtswDP2avBK6U3ruuv8o0HQJ1iVFmt3+fvQyuSZln6LA3hJZxxR5yCPSu3j3enh42e+Ce71ezl/3P4+P18MuftqFcDwd9pfjVX7t4v0u3j2dL/svl/P30+Pt/8vDtHP69e38Y3rDrxsuELsJFNzv24KjwH8XPt+2Px9Pi+2ZclTbI/myvd078vr1spLB+32kyBowm1wHMDltQTxIbhsgj1vQAKYKjiQulqZ9ztDpUKjqI8VKvm4DoqdQLODfIdcBkTgpQHJUPACIi1UDMgVwpOQpax9S7cysAxI57UMWHhCgUM4aEKg2AGjkNHE5UwJRyp6SdjozNWBB3te8BjSKIJdypaKztXjygAd5HLTTJVJCAGFah7XkTuU6oFDQqVEqrAf25DRAVlBqcKSs60FWSgaAQs4ACnlQ01wpa6dlBVmo3qYGN8rAhxqpagtVlApZkJpOFpCQhWYrTgAMeGhMZThSARZa7ZkzAyT5QHo3KSBzpNBtbgGKFoGaqAHiBGC0tXLP3437wVn5bg6qsZgwRLQItVIASZdcK92trbhWXdSyUpCF2q+DGdCIEXNsmZsClwCg9ExYADzyQUrOOM0UQX63bIu6pV4iW4BoLHhq6EgDoFZixPRwpCrSB7RydFrKPCLihrBKBaHuZCRuKmpEnKQGW0BDPgzJJzXqcD2Y9JYahakxFJBoG+JhpUYncfuQDLTwnm4YoRHyYW4MUiaBc5iIseTyh+R4EYf/hJjCmO2h0OX+xtRSOEBgpQBG4YAWXL83l3FClzv37mLBBFIaTl3qFlyjvo8DZUOddCCgrAsPNdRgWUtL5Qygwr6vhH4hLKUJdWUyVRnhiLBBkVbUDB3CjAN6nKP1gRu85vI86C2arAhKKElYTZOVYfLJiGFSY2oUgfjJENM0oDQoAzImBQPAxMXUE2HRf6NcktHM64G3OCivQXoFnd4yQyDFD0N3PA0dIKzBUzSTVoLa5+fpczn8Aaf9PFfN82jDQ7gfRuQImwHu/dE8g8/99Xpm9FFyMeSjZtpbEjzDe9r35n/eX6iBxBPrupwlZAwC5IavGviSlhzTBPjQG4mN/W74zILUYtjPUIKdLYIM+1vxVrMbYSvpeuhmcvsIu8WVuWb78LeVCppa10fw9eqytYKv8A9+Pnt3u/x4+1L3dHx+vn3oWz63X/Zk6fZVMN7/AQ==);lineShape=1;strokeColor=default;sketch=1;hachureGap=4;jiggle=2;curveFitting=1;fontFamily=Architects Daughter;fontSource=https%3A%2F%2Ffonts.googleapis.com%2Fcss%3Ffamily%3DArchitects%2BDaughter;" vertex="1" parent="1">
          <mxGeometry x="-743.4698939022525" y="-123.97141868077097" width="10.143819492317334" height="2.4587813141953916" as="geometry" />
        </mxCell>
        <mxCell id="wo_QYc2rkXZs_NssMeJh-20" value="" style="shape=stencil(rVjLbhsxDPwaXwmJpF7ntP2PAHEao2kcOOnr78vFQknJeMdN0ZuzGa5Ecjga7U6unu6uH/c7Tk/Pp+OX/Y/DzfPdTj7smA8Pd/vT4dl+7eTjTq5uj6f959Px28PN+vfj9YJcfn09fl/e8HONS5TSEsTp1/pgNNL1yacVf3948Pjh8Uy9beMziTh879TzNl4os8cXYtnGF8rN4zPp2MZ3Gj7f1kgq2H+m4hdoQpVBgFLyGdRBDVWoxhLVSqzbAdaDFlZIcEtcZ4tmQLGiFtAEIekuQAd1sIIyJfUBSgrKqpWK74Na3zroc44rSCcFRLIUq6+SFBLA7MpUfdI8ZqHPB9j7sg+oVAFXa4vkM7on0OmW5izOgDxg41qOSWemgcZBYtK4DTaNoW9GRpByt5Q54BnUdBiTR8An0LQhVHLAZ4SvUb/STOg8vkd9yfPBefyg4vO1yQD1yemNAAtO2BaoAT/Qhjqxxyt1QDkrEPuClpnRVgNqCfgBErYG96B2lACj7bhINby/I7yNfdy/ILxQi/WpQFY6R4LaC0C/DB8IylBUbD/s65nh6dF1CvMroQcQXhvIUM8Ez79uGqgBjyTL7EDpEY/4YCdRxAt6f6NSYr6In4NyjfVE+xk0fL7WcDzw3ff3ZSC25rGFo3UO9H/BL/YqCLrMCm8FSChQxQxtlMM5iTV0oahvmeWg6NDgqFncIUmbJR1EkUlADnZOajAHHdLaLFn3Y29+JYOympsIZTVHhOxHaZFI2qYLOx8gkdkFj7KWeNYXneTacnVhNm2TyE2I+R+/pYr7IDkmbR4JccksWSireaSBzHKNKzSFB5TNb+CSsQslvbDfByyaD7aUjcyeS73CO44NpPoBMlVWIDK5UPKu5dItrUQuXbgG2i0nyKQJFTQ6SjxiALxHvTkIFylHZc1R+V690ob3ijKziDnyCvNm+aKUCbvTN+NwKUCjylzYkdWovStlGvk9NU3x4nihaS/m/i9Z8Q9fHy7g7cfrp47bw/39+qXkz//HTyP2aP2sIh9/Aw==);lineShape=1;strokeColor=default;sketch=1;hachureGap=4;jiggle=2;curveFitting=1;fontFamily=Architects Daughter;fontSource=https%3A%2F%2Ffonts.googleapis.com%2Fcss%3Ffamily%3DArchitects%2BDaughter;" vertex="1" parent="1">
          <mxGeometry x="-685.2076387148851" y="-85.22439244750956" width="2.7400054998264523" height="7.930518397305036" as="geometry" />
        </mxCell>
        <mxCell id="wo_QYc2rkXZs_NssMeJh-21" value="" style="shape=stencil(rVjZbhsxDPwavxLULT2n6X8EiNMYTePAca+/L7eGtia1nt0WfXNijUWKw+GxC3fvzw9v+53n9/Pp+Hn//fB4ft6FDzvvD6/P+9PhLJ924X4X7p6Op/2n0/Hr6+Pl77eH6eT06cvx2/QLPy44n6i5CeX55+U/jjL//sfHy/mXw6s+n7w6HykXfF7/fqGQ4fmszzdq2J4StP2eAjaoNQ2IlAIAZPJFAzIldEPuvzcDKqUIASUrgGdKyOlMTZvkPUV0QyGXNCBSqBAQWAMyBQ8BUTvtK3kU6EJJmxSYPHK6UDYATw4FrlCJGhCJUeAKVc29kIkdBug4hEINxaFRrTp7XH+GRUAQtupnjQk+a2id/TNAYg8iLQY4nQ+xwQQSgFGM5CgCakRP3gACRRBpsZj1KyUhPLghMQX9SqlSRYBARb9S5k6WZYDImDYp+x6ZZYCohn7WHKmBOAjA3iBOg0gLoOhnzbVHZhGQXZetWYpF64HT8ntB+1AixXYbUJii9qFkWE3EAGdMEqlEN7jOnA6oDLVVDPBaNWqAJtVoyVdzLzHLgEasZaZWyCXHTKydaKUL+iKiNcvvVnuZXAbMOT8DGlSBFqiyBSBuiNemDxAAylF5VyOuV++wjGBy0V5RwTNJrHmwCalr8Va/BYAqhNDP3lA75W9lRNalXUJTEV9d//oK4EGop5Q03MiwI5MMc9kCPABU35lwBWCgTLVY3ZgAwOnmbJWbTEKAZPV7cholRB3oWjq7bqWcqdQCKMBpAZSRGoDe8jVrZZrIhwDJCs1EbwQY2dog+UTpjLqu5qgb+N1gB1SGxnISGpRBUqoHKfMoqaVEFBsIeAMPI8ccmv8DyGPk8JSV5JX0DVJTUL8uHVDVKSexDKCQSo8VTdWK/d2WAbH3/zPA947lZp9oTJJ3Q32i6+383AwUqDPSnRv5FjF0wOkw9icMi9Y0w5guTnosEGmZCJrOB4k90plxupQ2LaOpxlvpSziB3DARCLsKIJ+Mt177IN1vBnFwwUqfTASIGjKis74hVlh3q+2NYyYH4pbsxCHshaOiLYkyszAg0tDAhblc3DpvRlc8J3L3buMgynaGW5l0ZdLW77kySnMXn42zOvcxYeMygDvlN24b2NaElXUG26xc2Zc4y4eVhcwwlaxsfIaqubJSGvqjtZ1Vj87WpZjV9pWlW5/3N+70KJpsxCtD27WsbCStvDnygDrB9qZSOYGgJ2sMw4cf5i6GrXWzy0uGsiNRTNYa1J25ZHm5cr5a3mB7pjxMf+GuxKrZ34c0jj2LtgVrWjabvIJc+Ifl98p5+fBn0/50eHm5LOqvv7ebefnXZasf7n8B);lineShape=1;strokeColor=default;sketch=1;hachureGap=4;jiggle=2;curveFitting=1;fontFamily=Architects Daughter;fontSource=https%3A%2F%2Ffonts.googleapis.com%2Fcss%3Ffamily%3DArchitects%2BDaughter;" vertex="1" parent="1">
          <mxGeometry x="-742.7439333945897" y="-86.45710664514388" width="1.7469501819825837" height="12.907015920701724" as="geometry" />
        </mxCell>
        <mxCell id="wo_QYc2rkXZs_NssMeJh-22" value="" style="shape=stencil(lVjbUttADP2avGr2vtIzbf+DGULJlBIm0NvfV25mjSXbp/DmODrWXTq7h3zz8nD7fDyk8PJ6OX87/jrdvT4c8qdDSqenh+Pl9KpPh/z5kG/uz5fj18v5x9Pd9ffz7SQ5PX0//5y+8PuKY8oygVL4c32RqJV/L75cxR9PT1Y8G/FOKSDxEox4DCR9X14oJitfqAJz9HOxWIBaiACRkvM3UUKATNG6kCrW0EmaBQhJ3QekMiI+ALlSQQChan0ogRhkISfqDlCJgQY1oEYDqIFaAwD2Ya2FUtwHlLTS0EegtwFMYjW0NGpxE1AjsS3V1igCH9RitiY1GXHbBmimXTOkUe+bgBYpVwtQncCkxhSdBg102gd0dbobAAfqCKDfsxo4UwcmcaHgNLTxie2W1hnABiCFMgOAULEapMIWVYDrOFGTgA8TwDotHdaSArLTwBigf9ta0k+g4lOLJXhAR05rTGyUYggUQPVJprZSIaA2JFFoHlCRhnkMLcKEOohlbINFIhjsBwU020EaOAY+KIBXxdTRBtJB5zI3z4VtQPTDVQEBDFfNg5uV+qaihihjfywABVVfW2Vac48yzatMl7FY9xoirpwW3EHcfB4EhHVRzYtUQ+4gK6/VLZQ5Lc4VANmkxVlWHQQzV/0OEswFprDXFQBp0D26AjQEiBTZAwKaTB8F9HW5BrwWdUPY2uBOAfjQZlI4A3D1VfbDkuN4s8cFHBHVRSmgIZQfJTs2eoMdVNrYaQvywMAHZUzN5kHjhkpDOVlwAF3tiPUpE7aAKtCkifzbKNVKETSQUl23IDRuGQwmJedu8SpzbcCkODfkDIiQnugBw9GT3AbD2TtyuJ7OOo0RxRrHhVk+DKe2E+3bR78Q0XHAM4eU8Ylm8IqZOAiMkBJIW9lRkwwCtJrb/znzBU8o8ZEyjJn+vgNr8Aw6QZKkk8rutQhHV/R7U4sDtGQcXOVNHB70fOQDLATd8eLEkavFbz8sXv34wcY034fY1e7vFXAg+9jT70sTj+PA+4rg43ciWFwf3q5f7k+Pj9fbm+X//rpGX12vevLnvw==);lineShape=1;strokeColor=default;sketch=1;hachureGap=4;jiggle=2;curveFitting=1;fontFamily=Architects Daughter;fontSource=https%3A%2F%2Ffonts.googleapis.com%2Fcss%3Ffamily%3DArchitects%2BDaughter;" vertex="1" parent="1">
          <mxGeometry x="-747.7099176463388" y="-103.95791493458506" width="5.000558829809961" height="7.874200313277811" as="geometry" />
        </mxCell>
        <mxCell id="wo_QYc2rkXZs_NssMeJh-24" value="" style="shape=stencil(lVnJUhtBDP0aX1WtVq9nQv6DKiC4QoACsv19NHH1YKntN/jm5Wm6tT9pdnL19nDzcreL4e399fn73e/97fvDTr7sYtw/Pdy97t/1006ud3J1//x69+31+efT7eH7y82CXD79eP61POHPQY5DoBAWsRj+Hn4K1Mr/H74eBB73T0cCvVNvBh9JNvDF4IV6wPhk8JlSxvhq8IWqQLzY+1Rq6PmNcjb4hu3TSMTgV4XO4Zf/jvDMFJACjbhbgUihXyQgxBtXYiuQiNtFOmSKWIdoncyFYsUC1mtcSRgL2LBgdQw6oVKxfuNOBSmtcWYDY8kcpHSmZjMtMnWkQxrPWwXiSKbTAjJuvAqkceZpAfZKa/ZEJBBGbK4ClQJIn9YpWD9o/gSgQ6tTfdGMBeHd1A82vIVhRWrZKy1CFfihyQi1VaBQiecF6lSTBMdSLdTsCSkSg2itadhkFUhUgNJVPe1OqJRBtBatGtZKWcMbXKmoEa3jcqIKYik3SlaHrMEC6lKOPh/0zAzMmoqv9aVCK6XgY0nthvwgUxFQzzAwq6x+XQXUDyD4NL+6vVLT8AZm1f7a7AktUQJKa51z/UFzEKWoFvfsTuiwGGuD6tZKWngSsBIHXzW0tGWUD6OhrfgMEy76Mqa0oCKVqVaPb6AoqXrJ4zu4j7Z8mztHvOykgAZqnA4ACgRKPCkA8TwpXEHJm/qC4jPIZcVP9xHQR/Q+weMZ3l8mPLZntjmgBKIBhwXqMuGBfXi6zxa+5Evuw541K76DANUylCd7AvtHihNegH/j4H/H8QAyPp7wL+rJ7IvcRjwz5eLxKF940KDPJ2S7KOM14CaF0VwUPGNeDAQqYhgl/Ahf4PPDdJ8EHHDq+REWiDgVLEQcL8XnUW6OOgDkmWOqXPGYW+tUFm2J7nhQ1pkpuMGxUQEpoxON4xJKbWGOTUnWBFK0WPxQ1AIMIgneqspUUZRK9qyxauMGYaHE2MV1DYMWnqZoyVPlUmCiZfZXKhGWxlx8s1+YKvB0YU/RlPmiAbtMflBujTxduh/slL0HYNYaKdl0TpiXKm11BTUx5KVKW13BE5ygGmrN6qDkmdHYFacTdBADntbor1ZpjV+0e1FinN2s2SBtXEZHN81W6Gll0mzLZFynz3PzcrZ1T0d4AZ7+qEKrgOBFB3squDRftIaIfopa6Co6QfwIv4wYaDOSfDPc2u4kb6Wt/VHyhWzZUCGzJk8Ylh0YPqE4HQSbdR3Yj/d42EquP+iYtLE/8iSVCloUZh8ZDXLCeQNW4MC/4N2GAK92y5jJPrk6Vrx18sZquvghamP1PTWGMFj6OXxnh0d9pFffqcLgHOfwyeOhv6q3f4AVe1kcF49H9m8+ZzbxbmjZuI9yhX6Jvt0PdRv27J5abPir+7UGjoeL37V8QkA/fLzaud8/Ph7eDB3/718F6U+H10hy/Q8=);lineShape=1;strokeColor=default;sketch=1;hachureGap=4;jiggle=2;curveFitting=1;fontFamily=Architects Daughter;fontSource=https%3A%2F%2Ffonts.googleapis.com%2Fcss%3Ffamily%3DArchitects%2BDaughter;" vertex="1" parent="1">
          <mxGeometry x="-670.9507016261017" y="-104.60265030819176" width="6.304105288263827" height="11.970874919994912" as="geometry" />
        </mxCell>
        <mxCell id="wo_QYc2rkXZs_NssMeJh-43" value="" style="shape=stencil(lVbLUsMwDPyaXDWWbPlxhvIfzNDSDKVl2vL6e2QySSq3EcPNcbKxV7sru/N3p+3j27ojdzofDy/rz/7pvO38fUfU77frY3+WUedXnb/bHI7r5+Phff80PL891i/r6PXwUf/wNeByASwVRe57mPERAv3OPAyAXb+/AJQIFBQgyIw3AAVSVgBOkJIJCKwAsUAOBoCBNIeMgMYKWTZAClAccF4GpASsSZcEriwDIkPWK6Bz4Nwygn1bJqmDM4QIBLEBBCBeBngPsSlTBDRYk5RJs04M0agrMYSklfOQ0VwBnfYGQrY4ULtCQHCGN+pr1P4mYEsHHL02AuomjRVmihOAgQ3ScxEvVkiGmapMTUbFLFbkJiNMVaLR8UuRc9qubAt34eZJajaVq4HRdq2higZAIqnLVGNrsK6hjzoQDN6QurYVrVxtPcaW+CoQc3O77b4r5YrdLKX5el2luUEvAsp/ABTBaW9kEc4gjbGtUnaAltJA2hlJQmvI4Ns+Jolyxv/FF5oASyc0CFw5VXqC2ZTAaRt5NPlGiDo7hKbt0I/lmM4GGk+L2xuiNp1iIoOA7Lfo5NhN9fok+fOoYmy+T0oAGcwXjk2/2w33lcv37QVFpobLjV/9AA==);lineShape=1;strokeColor=#FFFFFF;sketch=1;hachureGap=4;jiggle=2;curveFitting=1;fontFamily=Architects Daughter;fontSource=https%3A%2F%2Ffonts.googleapis.com%2Fcss%3Ffamily%3DArchitects%2BDaughter;" vertex="1" parent="1">
          <mxGeometry x="-171.4487364735719" y="-146.45047981520383" width="3.2230755116520413" height="3.224848179439732" as="geometry" />
        </mxCell>
        <mxCell id="wo_QYc2rkXZs_NssMeJh-44" value="" style="shape=stencil(lVbLUsMwDPyaXDWWbPlxhvIfzNDSDKVl2vL6e2QySSq3EcPNcbKxV7sru/N3p+3j27ojdzofDy/rz/7pvO38fUfU77frY3+WUedXnb/bHI7r5+Phff80PL891i/r6PXwUf/wNeByASwVRe57mPERAv3OPAyAXb+/AJQIFBQgyIw3AAVSVgBOkJIJCKwAsUAOBoCBNIeMgMYKWTZAClAccF4GpASsSZcEriwDIkPWK6Bz4Nwygn1bJqmDM4QIBLEBBCBeBngPsSlTBDRYk5RJs04M0agrMYSklfOQ0VwBnfYGQrY4ULtCQHCGN+pr1P4mYEsHHL02AuomjRVmihOAgQ3ScxEvVkiGmapMTUbFLFbkJiNMVaLR8UuRc9qubAt34eZJajaVq4HRdq2higZAIqnLVGNrsK6hjzoQDN6QurYVrVxtPcaW+CoQc3O77b4r5YrdLKX5el2luUEvAsp/ABTBaW9kEc4gjbGtUnaAltJA2hlJQmvI4Ns+Jolyxv/FF5oASyc0CFw5VXqC2ZTAaRt5NPlGiDo7hKbt0I/lmM4GGk+L2xuiNp1iIoOA7Lfo5NhN9fok+fOoYmy+T0oAGcwXjk2/2w33lcv37QVFpobLjV/9AA==);lineShape=1;strokeColor=#FFFFFF;sketch=1;hachureGap=4;jiggle=2;curveFitting=1;fontFamily=Architects Daughter;fontSource=https%3A%2F%2Ffonts.googleapis.com%2Fcss%3Ffamily%3DArchitects%2BDaughter;" vertex="1" parent="1">
          <mxGeometry x="-170.4487364735719" y="50.549520184796165" width="3.2230755116520413" height="3.224848179439732" as="geometry" />
        </mxCell>
        <mxCell id="wo_QYc2rkXZs_NssMeJh-45" value="" style="shape=stencil(lVbLUsMwDPyaXDWWbPlxhvIfzNDSDKVl2vL6e2QySSq3EcPNcbKxV7sru/N3p+3j27ojdzofDy/rz/7pvO38fUfU77frY3+WUedXnb/bHI7r5+Phff80PL891i/r6PXwUf/wNeByASwVRe57mPERAv3OPAyAXb+/AJQIFBQgyIw3AAVSVgBOkJIJCKwAsUAOBoCBNIeMgMYKWTZAClAccF4GpASsSZcEriwDIkPWK6Bz4Nwygn1bJqmDM4QIBLEBBCBeBngPsSlTBDRYk5RJs04M0agrMYSklfOQ0VwBnfYGQrY4ULtCQHCGN+pr1P4mYEsHHL02AuomjRVmihOAgQ3ScxEvVkiGmapMTUbFLFbkJiNMVaLR8UuRc9qubAt34eZJajaVq4HRdq2higZAIqnLVGNrsK6hjzoQDN6QurYVrVxtPcaW+CoQc3O77b4r5YrdLKX5el2luUEvAsp/ABTBaW9kEc4gjbGtUnaAltJA2hlJQmvI4Ns+Jolyxv/FF5oASyc0CFw5VXqC2ZTAaRt5NPlGiDo7hKbt0I/lmM4GGk+L2xuiNp1iIoOA7Lfo5NhN9fok+fOoYmy+T0oAGcwXjk2/2w33lcv37QVFpobLjV/9AA==);lineShape=1;strokeColor=#FFFFFF;sketch=1;hachureGap=4;jiggle=2;curveFitting=1;fontFamily=Architects Daughter;fontSource=https%3A%2F%2Ffonts.googleapis.com%2Fcss%3Ffamily%3DArchitects%2BDaughter;" vertex="1" parent="1">
          <mxGeometry x="-451.4487364735719" y="160.54952018479617" width="3.2230755116520413" height="3.224848179439732" as="geometry" />
        </mxCell>
        <mxCell id="wo_QYc2rkXZs_NssMeJh-46" value="" style="shape=stencil(lVbLUsMwDPyaXDWWbPlxhvIfzNDSDKVl2vL6e2QySSq3EcPNcbKxV7sru/N3p+3j27ojdzofDy/rz/7pvO38fUfU77frY3+WUedXnb/bHI7r5+Phff80PL891i/r6PXwUf/wNeByASwVRe57mPERAv3OPAyAXb+/AJQIFBQgyIw3AAVSVgBOkJIJCKwAsUAOBoCBNIeMgMYKWTZAClAccF4GpASsSZcEriwDIkPWK6Bz4Nwygn1bJqmDM4QIBLEBBCBeBngPsSlTBDRYk5RJs04M0agrMYSklfOQ0VwBnfYGQrY4ULtCQHCGN+pr1P4mYEsHHL02AuomjRVmihOAgQ3ScxEvVkiGmapMTUbFLFbkJiNMVaLR8UuRc9qubAt34eZJajaVq4HRdq2higZAIqnLVGNrsK6hjzoQDN6QurYVrVxtPcaW+CoQc3O77b4r5YrdLKX5el2luUEvAsp/ABTBaW9kEc4gjbGtUnaAltJA2hlJQmvI4Ns+Jolyxv/FF5oASyc0CFw5VXqC2ZTAaRt5NPlGiDo7hKbt0I/lmM4GGk+L2xuiNp1iIoOA7Lfo5NhN9fok+fOoYmy+T0oAGcwXjk2/2w33lcv37QVFpobLjV/9AA==);lineShape=1;strokeColor=#FFFFFF;sketch=1;hachureGap=4;jiggle=2;curveFitting=1;fontFamily=Architects Daughter;fontSource=https%3A%2F%2Ffonts.googleapis.com%2Fcss%3Ffamily%3DArchitects%2BDaughter;" vertex="1" parent="1">
          <mxGeometry x="-657.4487364735719" y="100.54952018479594" width="3.2230755116520413" height="3.2248481794399595" as="geometry" />
        </mxCell>
        <mxCell id="wo_QYc2rkXZs_NssMeJh-47" value="" style="shape=stencil(lVbLUsMwDPyaXDWWbPlxhvIfzNDSDKVl2vL6e2QySSq3EcPNcbKxV7sru/N3p+3j27ojdzofDy/rz/7pvO38fUfU77frY3+WUedXnb/bHI7r5+Phff80PL891i/r6PXwUf/wNeByASwVRe57mPERAv3OPAyAXb+/AJQIFBQgyIw3AAVSVgBOkJIJCKwAsUAOBoCBNIeMgMYKWTZAClAccF4GpASsSZcEriwDIkPWK6Bz4Nwygn1bJqmDM4QIBLEBBCBeBngPsSlTBDRYk5RJs04M0agrMYSklfOQ0VwBnfYGQrY4ULtCQHCGN+pr1P4mYEsHHL02AuomjRVmihOAgQ3ScxEvVkiGmapMTUbFLFbkJiNMVaLR8UuRc9qubAt34eZJajaVq4HRdq2higZAIqnLVGNrsK6hjzoQDN6QurYVrVxtPcaW+CoQc3O77b4r5YrdLKX5el2luUEvAsp/ABTBaW9kEc4gjbGtUnaAltJA2hlJQmvI4Ns+Jolyxv/FF5oASyc0CFw5VXqC2ZTAaRt5NPlGiDo7hKbt0I/lmM4GGk+L2xuiNp1iIoOA7Lfo5NhN9fok+fOoYmy+T0oAGcwXjk2/2w33lcv37QVFpobLjV/9AA==);lineShape=1;strokeColor=#FFFFFF;sketch=1;hachureGap=4;jiggle=2;curveFitting=1;fontFamily=Architects Daughter;fontSource=https%3A%2F%2Ffonts.googleapis.com%2Fcss%3Ffamily%3DArchitects%2BDaughter;" vertex="1" parent="1">
          <mxGeometry x="-440.4487364735719" y="404.54952018479617" width="3.2230755116520413" height="3.224848179439732" as="geometry" />
        </mxCell>
        <mxCell id="wo_QYc2rkXZs_NssMeJh-48" value="" style="shape=stencil(lVbLUsMwDPyaXDWWbPlxhvIfzNDSDKVl2vL6e2QySSq3EcPNcbKxV7sru/N3p+3j27ojdzofDy/rz/7pvO38fUfU77frY3+WUedXnb/bHI7r5+Phff80PL891i/r6PXwUf/wNeByASwVRe57mPERAv3OPAyAXb+/AJQIFBQgyIw3AAVSVgBOkJIJCKwAsUAOBoCBNIeMgMYKWTZAClAccF4GpASsSZcEriwDIkPWK6Bz4Nwygn1bJqmDM4QIBLEBBCBeBngPsSlTBDRYk5RJs04M0agrMYSklfOQ0VwBnfYGQrY4ULtCQHCGN+pr1P4mYEsHHL02AuomjRVmihOAgQ3ScxEvVkiGmapMTUbFLFbkJiNMVaLR8UuRc9qubAt34eZJajaVq4HRdq2higZAIqnLVGNrsK6hjzoQDN6QurYVrVxtPcaW+CoQc3O77b4r5YrdLKX5el2luUEvAsp/ABTBaW9kEc4gjbGtUnaAltJA2hlJQmvI4Ns+Jolyxv/FF5oASyc0CFw5VXqC2ZTAaRt5NPlGiDo7hKbt0I/lmM4GGk+L2xuiNp1iIoOA7Lfo5NhN9fok+fOoYmy+T0oAGcwXjk2/2w33lcv37QVFpobLjV/9AA==);lineShape=1;strokeColor=#FFFFFF;sketch=1;hachureGap=4;jiggle=2;curveFitting=1;fontFamily=Architects Daughter;fontSource=https%3A%2F%2Ffonts.googleapis.com%2Fcss%3Ffamily%3DArchitects%2BDaughter;" vertex="1" parent="1">
          <mxGeometry x="-291.4487364735719" y="192.54952018479617" width="3.2230755116520413" height="3.224848179439732" as="geometry" />
        </mxCell>
        <mxCell id="wo_QYc2rkXZs_NssMeJh-50" value="" style="shape=stencil(lVbLUsMwDPyaXDWWbPlxhvIfzNDSDKVl2vL6e2QySSq3EcPNcbKxV7sru/N3p+3j27ojdzofDy/rz/7pvO38fUfU77frY3+WUedXnb/bHI7r5+Phff80PL891i/r6PXwUf/wNeByASwVRe57mPERAv3OPAyAXb+/AJQIFBQgyIw3AAVSVgBOkJIJCKwAsUAOBoCBNIeMgMYKWTZAClAccF4GpASsSZcEriwDIkPWK6Bz4Nwygn1bJqmDM4QIBLEBBCBeBngPsSlTBDRYk5RJs04M0agrMYSklfOQ0VwBnfYGQrY4ULtCQHCGN+pr1P4mYEsHHL02AuomjRVmihOAgQ3ScxEvVkiGmapMTUbFLFbkJiNMVaLR8UuRc9qubAt34eZJajaVq4HRdq2higZAIqnLVGNrsK6hjzoQDN6QurYVrVxtPcaW+CoQc3O77b4r5YrdLKX5el2luUEvAsp/ABTBaW9kEc4gjbGtUnaAltJA2hlJQmvI4Ns+Jolyxv/FF5oASyc0CFw5VXqC2ZTAaRt5NPlGiDo7hKbt0I/lmM4GGk+L2xuiNp1iIoOA7Lfo5NhN9fok+fOoYmy+T0oAGcwXjk2/2w33lcv37QVFpobLjV/9AA==);lineShape=1;strokeColor=#FFFFFF;sketch=1;hachureGap=4;jiggle=2;curveFitting=1;fontFamily=Architects Daughter;fontSource=https%3A%2F%2Ffonts.googleapis.com%2Fcss%3Ffamily%3DArchitects%2BDaughter;" vertex="1" parent="1">
          <mxGeometry x="-593.4487364735721" y="-286.45047981520406" width="3.223075511652496" height="3.2248481794399595" as="geometry" />
        </mxCell>
        <mxCell id="wo_QYc2rkXZs_NssMeJh-51" value="" style="group" vertex="1" connectable="0" parent="1">
          <mxGeometry x="-549" y="-219" width="145" height="145" as="geometry" />
        </mxCell>
        <mxCell id="wo_QYc2rkXZs_NssMeJh-9" value="" style="rhombus;whiteSpace=wrap;html=1;hachureGap=4;fontFamily=Architects Daughter;fontSource=https%3A%2F%2Ffonts.googleapis.com%2Fcss%3Ffamily%3DArchitects%2BDaughter;rounded=0;strokeColor=light-dark(#000000,#EDEDED);strokeWidth=15;fillColor=light-dark(#000000, #ff9090);" vertex="1" parent="wo_QYc2rkXZs_NssMeJh-51">
          <mxGeometry width="145" height="145" as="geometry" />
        </mxCell>
        <mxCell id="wo_QYc2rkXZs_NssMeJh-11" value="" style="shape=image;verticalLabelPosition=bottom;labelBackgroundColor=default;verticalAlign=top;aspect=fixed;imageAspect=0;image=data:image/png,iVBORw0KGgoAAAANSUhEUgAAAWUAAAHrCAYAAAAXP4wTAAAAAXNSR0IArs4c6QAAAARnQU1BAACxjwv8YQUAAAAJcEhZcwAADsMAAA7DAcdvqGQAAFoGSURBVHhe7d0LnE1V+wfwNRIzxriO3C8hued+CQ2h3IowSJiX8Ia8SqVymygpl8IrlxIil4SkXKpXE4pyv6aIIQwZ0bhfZj/r/3nmf+Z9x9MM58w5+5y99/l9P5/z8b7NOWevtdfaz1l77XVRCgAAAAAAAAAAAAAAAAAAAAAAglxUVFSo1rqU/O8AABAYjY4fPz5ba51V/gEAAPyoZs2adyulFq5fv/4GERWXfwcAAP8qqpS6OH/+fE1ELeUfAQDAv97UWuvXX3+dg/JL8o8AAOA/ZZVS1zgo9+zZUxuGMVW+AQAA/OcVpRRxUK5RowYH5TnyDQAA4B+FlFI7OCCzbNmycVCer7UOkW8EAADzNVdKXU8Nymzv3r3faa3zyDcCAID5fkjtuki1YMGCs1rr8vKNAABgrvoyILMXXnjBIKLq8s0AAGCuj2VAZs2bN+dhcfXkmwEAwDw1lFIJMiCziIgIftj3gfwAAACYp4NSKlkG5FTbt2+/ID8AAADm+U0G4rQmT55M8gMAAGCOMKWUIQNxWp06deJ+5QflBwEAwPc2pjfqIq38+fNzv/IK+UEAAPAtnql3Qgbh9Bw6dGiD/DAAAPjWP5RSN2QATs+MGTN+JqJi8gsAAMB3Rt6p6yJV27ZteXRGO/kFAADgG7y7yFEZfDMSHh6uk5OTn5ZfAgAAvlFCBt47+fbbb9fLLwEAAN9YJIPunbjWweAhdAAA4CvR0dF33WlscnoqV67M45W7yu8DAADvVJAB113x8fGHseg9AIBvvSyDrbsmTJhwlojKyS8EAIDMmyaDrbvq1q2bTEQD5BcCAEAmtGjRIrtSaokMtp5ISEiYrbXOIr8bAAA8FBYWVlQpdUQGWk9MmTLltNaaxzkDAICX7s/MyIu0GjVqRERUS34xAAB47hF3p1bfzunTp1fJLwYAAM8tlQE2M959912eSBIhvxwAADxzUQbYzKhduzZPJOkjvxwAADzjdddFqkOHDn2otebZgQAAkAnlZGD1Rmxs7O9EVFweBAAA3DNUBlZvlC1blvuV68mDAACAe5bLwOqtn376abs8CAAAuGetDKreevbZZ3lHkrzyQAAAcHu8sttXMqh6i3ckuXbt2mx5MAAAuI0HH3yQxxT/IIOqL8yePXuj1jqnPCYAAGSgRIkSFT3Zk88TdevW5Qd+LeQxAQAgA3fdddfDSqmrMqD6yq5du9CFAQDggZa+nDgiDRgwgGf4hcuDAgBA+kwNyrlz59aXL1+eKw8KAADpaykDqa/NnDkzHsPjAADc00oGUV+rUKHCTSxSBADgnsdkEDXD5s2bP5QHBgCAv4uRAdQM3bp14xl+kfLgAABwq7dlADVD1qxZdWJi4mh5cAAAuBXPuvOLcePG3dRaF5IJAACA/0mUwdMsxYoVM5KTk/8hEwAAAP9zQwZPs/B46E8//ZSXCQ2ViQAAgP9nyOBppnr16p0hopIyEQAA8P/8GpS5tbxz585ZMhEAAPD/TJtinZGuXbsmExEvhAQAAILfgzJLSEiYhR2vAQD+LiBBeciQIQlEVFkmBgAg2AUkKEdERNCFCxdelYkBAAh2AQnK7I033jiuteY9AgEAgMlA6U958+alK1euvC/TBAAQtGSg9LfJkycfIqJiMl0AAEFJBkl/K1KkyM3k5OSuMl0AAEFJBslAmDNnzh6ZLgCAoCQDZCCUK1fOIKJ8Mm0AAEFHBshAWbp06TmMxACAoCeDY6DUqlWLV6uLlukDAAg2ARunLH399dczMfUaAIKdZYJykyZNeKGiCjKBAADBxDJBmW3duvUbrXUWmUgAgGBhqaDcrl07/qeaTCQAQLCwVFAOCQnRu3fv/kJrnUMmFAAgGFgqKLPOnTuf1VrXlAkFAAgGlgvKWbJk0b/++us7MqEAAMHAckGZ9ezZk0diVJKJBQBwOksG5axZs+qTJ0++h1l+ABBsLBmUWf/+/Y8RUUWZYAAAJ7NsUM6WLZtx8uTJiTLBAABOZtmgzP71r3+dwApyABBMLB2Uw8LC9B9//DEzTXrRxwwAjmbpoMyGDBmSRET1XelFUAYAR7N8UM6ZM6dx/vz5ITLhAABOZPmgzIYNG3aYiLLLxAMAOI0tgnLOnDnp4sWL02XiAQCcxhZBmY0ePfoiERWUGQAAcBLbBOU8efLoixcvvi0zAADgJLYJyuzNN9/cq7Uu5Eo7RmIAgOPYKihHRkYmX7p0qYbMBACAU9gqKHN633777UsyEwBgQ1FRUVn79u2bIzY2NsfMmTNzHDx4MDv2g7NXUGYFCxbURNRVZgQA7GegUuqaUspQSl1WSn2WO3fuJt26dbtnwYIFkbwGjvyAw90lA55dTJkyZSMRhckMAYC9vCkv7lRKqfM5cuToGxMTU+rnn3/OLz/oRCVLlgyV58EuihUrxovgd5Z5AgAbqVWrFl/EhrzA03K1opc99thjlTZt2lRUfoeT5M2bN7fMv528//7769H9BGBj/fv3f4hbxPLiTg/3tYaEhKzq06dP3dOnTzt1wkJRmW87KVmypL5x40bqQkUAYDdz5swJVUr9JC/uO4mMjJz6n//8x4nDsKrIvNrN3Llz47mIZMYAwD6+lRe2O5RSB8aOHdvYYQ+XHpP5tJv777//GhH1lBkDAJu46667psgL211KqRMDBgwYwPt6yu+1qZEyj3a0YMGCL2TGAMAmypQpU19e1J5QSt3s06dPbyIqJr/bhlbI/NlR+fLliYgek5mzqULr1q1rRUQR8g8AjtS3b9+7vZ0wwWOdR44c+Z4DWsw7Zd7sat68eUeJKFxm0Iaey5cv36HExMS+8g8ATnbbYXHuUEolL1q0aKjWmh8e2tWvMl92Va5cOZ7l94TMoJ0sWbLkLh7xw42Gtm3bHiGi++R7AJzqtLyoMyM0NDT5t99+i9Fa3yUPYBMHZZ7sbP78+Ru11rllJu1i4sSJ/BA55UE0B+alS5cu0lpjJTwICp/KCzqz6tat+wsR1ZEHsAlHBeWyZcveIKJuMpN2MXDgwFxKKf5hSVG4cGHjwoULbeX7AJzon7dezt4ZM2bMOiK6Rx7EymJjY3km3CGZF7ubP3/+brvu5demTRseb70lNS/cWh4wYMAOrXVe+V4Ap3n41kvZO9mzZ9eHDx8eZadujKioqJxKqSMyL3bn6lt+QebXDipWrFhWKfVb2vzcddddxp49e+bK9wI4Te20Fd8XmjZtmkBEleWBrKpq1ar3KqVOynw4wdKlS3+y250Li4iI4CnjSTI/UVFRPEHG1g8xAe6kpqz43uJbzS+//PIreSCrCg8Pb6yU+kvmwwmqV6/OG6w2knm2gaY8qkfmhy1fvny5Q4b8AaTL50GZ1apV6zoRPSwPZlFPKaWuyzw4Af9Arl69epvMsA00z2gMfYUKFZKIqK78AIBT8OJC6VZ+b61YseIrmywn+YxZ58AK6tevz+stPyozbXHtZD7Smj179l75AQCnMC0oR0VFXSaix+UBLWiAWefAKjZu3LheZtrixsk8pFW0aFGDiLrIDwE4QU2zAhJ/7/79+6fKA1rQIJl2p3nssce4b7mlzLiF/SzzII0fP54fYtpyyB/A7ZjSp5yqV69evA+g1U2S6XYa/oE8ePDgczLjFnZN5kHKkydPclJSkm0nyABkpK6s7L4UFhamL126tEge1GJuGQ/rVP37978hM25hd7x74/cMGzYsUX4QwO66ysrua++//z6PN7XyKnJ3DABOkZiYOFlm3oKyyHRnJE+ePPry5ctYRQ4cZZ2s6L5Wr149fvo/UB7YIkJkep3s9ddfv2KDMb4lZbpvZ9KkSRdtvkIhwC3SHaDva4cOHZph0anXRWRanYwX9klOTn5VngSLeUam+3ZKly7NeXpJfgmAHfGTa7/cuo8ePfoqERWQCbCAETKtTvf5559/rLXmDQ6saq1M853YIE8AbmklK7dZ7r//fl4cp41MgAUclWl1ujZt2tzQWpeSJ8JC9sk030mrVq24i4zXMAGwtS9k5TbT/v37z1lwoXIOUEElJCREJyQkPC9PhIXsl2m+E87TkSNHhssvArCNqKgoHg2xSVZuM7399tvcWuYlGS2hZs2afLt7U6YzGIwYMYLznUeek0CLjo7OppT6RabXHSNGjOBZfrZbEQ8gRe7cuUv7e2H3Bg0aaMMwRsu0BFBVfz3otJrixYvzD2QPeUICrWTJktyt8rtMrztKly7NeeIp8wC2xNvQ+/XWnW8xz58/z3utWWWRosH+etBpRRs2bPjKgsPjeOGkCzKt7lq/fv03RBQhvxTADnoFIiAtXryY1yuwyiiMCYE4B1bRr1+/00RUUZ6UAPuHN3cvffr0OUdEVeSXAtjBAlmh/aFXr15XtNbVZGL8rW/fvtyfPF+mL5gUKFCAb/etth4Gz87L9A+lK08vyi8FsAMeCeF3RYqkzNXg1lBAlStXjjfmdNQO1pnx1Vdf/SLPTYB5vYzqt99+e1h+KYDVhXlb8b3x888//yQTFADFvblNdorevXuTlUbEKKXGyDR66tlnn7VangDuqIusyP40efJk/kEI9FoFtWS6ghHf7huGMVGenAD6TqbRU4ULF+Y88fMCANuIkxXZn5544gnu9+svE+VnH8p0Batt27ZtsdAUZZ9sYPvTTz/9qLXmMc8AtnBMVmJ/yp8/P7dkAr3b9XmZrmA1atQoHoVRS56gADFk+jJj6NChiURUT345gOW0adMmh1IqQVZif9u1a9durXVemT4/4XMQsD51q6lduzavG9FJnqQA4Na6T8qlTp062MMP7CFv3rwNvBmc7ytTpkzhbeIflunzkwEyPcHuwoULVuhXflimyxtJSUlL5AEArKifFUYddOzYkVtE0TJxfrJQpifYrV69+rQ8SQGwRqbLG59//vkFeQAAK+LFwH1yi+iNyMhIftg3SCbObPXq1ePhgF/L9AS7V155hetEoLqTUvnkIV+qwYMH89A4q8weBUgXL5s5QVbeQImPj98qE+gH/EDLpxe/EzRs2JAfvs6WJ8vPrsp0eaNWrVqcp/nyIACW4Vqq0uMFxM2ycOHCQOyuHGWFOwUrMgzjpDxZ/pI/f35eROiaTJO3kpKSjstjAVgJb/8U8P7kVH369OHgyCMh/OkzmQ74f7t3704M4D6K/NDX52tbr127lvMU6G4ZgAyFykobSLxFlGEYU2UiTeaTcbBOtHDhwgtEVFmeMD8ZacYdzNixY68TUXd5MACraCQrbaCdPn06QSbSRAXk8eF/hgwZcpOI/ilPmp+8ZUZQfuKJJ/hhn9V374Yg9oOstIG2ePHiP4gol0yoSabL48P/tGnThgPYMHnS/IAfQE+W6fGFYsWKWW23G4Bb+Lwl4q1nnnnmGhE9KRNqAr7wd8njw/+4dhznbgS/Klu2LP8o8/obpjh37twqrTXvSQlgHQULFgyXldUKKleu7K/by2JKqcPy+PA/OXLkSOnjD8B2XYXN3Jps1apVFwPwQBngjlrJymoVZ86c8UcgiLHSyBOrOnPmDK+u5u9lVXlta9Pu4iZOnMj/5JQHBQi0lJppRYsXLz5KRDxcz0zvyuPC323bto3XRfF3AGsh0+FLffv25W6ZkvKgAIE2Q1ZWqxgwYAB3YZi5qzKvq8u3sHAHq1at4tXV/L0b9FqZDl9q0qSJFdbvBvgf1yahll2Ep1y5cnzRNJLp9qHu8piQvvnz53NZ+Dso+3zSSFpFixbVycnJVtiCDOD/1a9f/x6lFK9fbFkJCQnfyHT7gmtq+R/yeJC+qVOn+jsolzKzP5mFhIToixcvXpYHBgiYbNmylfP1Yi++9uGHH/JDODOGLdW3et6tZMyYlH1Lc8uTaKKXZRrMsG/fPpIHBgikCma3Rrz15JNPcgutiUy4Dwy1et6t5NVXX+V/CsmTaBIeO75EpsEMa9akLNWMPfvAMprISmo1uXLl8vkOxGXLluURHViAyAMvvvgi/zjeL8+lGcqXL59fKbVJpsEMM2bM4HzxHSOAJVhmDeXb+frrr1f7eDgWrw72pzwOZGzw4MEcvHjLMH+o7q+1rWNjYzlfPWUCAALloKykVtS/f/8zWuvSMvFeGICuC8+4gnIreSJN0tRf5TNgwACf34kBeMO0Kay+VLhwYR6vzBeqr8TLY8DtDRo0iINyG3kiTbJMHt8sHTp04KA8UyYAICBkBbWyjRs3rpfpz6Su8rvhzoYMGWLWA1eJH/Jdkcc3S1RUFAflD2QiAALBUgvb30m/fv14IoG3O0XwBf+h/G64s9dff52DclV5Qk3Ai1D5peuCVa5cGUEZLKOErKBWlidPHn3lypUpMhOeyJ49e1ml1FH53XBn77zzDgdlXlHPbBvksc1UvHjxlI1heS6JTAiAv7WVFdTq5s6du52IeBZiZjXEinCZw0PHfHCncic8uuOsPLaZcubMyUF5gUkTlMAiyubLl+/L7777zl9PqjPLFsPh0qpXrx4vfN9cZsQDv8rvBPcsWbKEW8pm7wTDe+b5fa9EwzBWEFGYTAw4RMmSJf/B03f5F3/KlCkPyL9byOeyclod9zVu3749TmbETZUCccE7RVxcnD/Wvjgmj+sPly9fjuMeMpkYcIhGjRrxBpM3OYAopS49++yzzeR7LMLUZRHNEhMTk5zJ5TzXye8C9+3Zs4eHJZoZlIv48wFfWufPn+dFufw1hRz8rUePHi1TF7pxBebk6OjoZ+T7LOArWTnt4ujRo7tlZm7n7rvvrqKUOi6/B9x36tQps9dT5glCAXHmzBl++FtCJggcYtCgQXwbdE4WfKNGjb7TWvNykQE3cOBAXvuB02NLPXr0SPRweFYP+R3gmeTkZJ727Mup7mnxNOeATWQ6ceIE75xeRiYKnCVRFjy3mmvXrv3e+fPnA9531bp166JKqb0yjXayc+fOUTJftxGQvkqnuPfeezko/2DG1lzR0dF3KaVmymP6U0JCwp9ExMMlwcFOyYJP9dBDD23766+/zB5adFtNmjSpafcF3mvXrs2309wPeSdl5GfBM65Zb7yXoRmb2JYPVF9yKgTl4HDbVmjr1q3nBWBn4P964IEHeLqs36aymmXChAncAs5w4XXXdlc/y8+BZ7p168YjL0bI8+utevXq8TC0gK9D8scff3B3GLovHO62+95xy6B79+7dTX5wkqGqVas+6oRJFKGhoXTgwIEXtNZ8C5weviNIkp8DzwwbNoxHXgyXJ9dLPIOunTxWIJw/fz6BiO6VCQRnGSgLPj0jRoz41+1aemapUqUKjxAJ6C2jr9SoUYOHM/EtcHpGOiWfgTR79mw+h6/Ik+ulAv6eUp2R5OTkI0RUXCYQnKW+LPj0KKUuf/zxxy/KD5utcuXKPNvQMcGqS5cus9KZfs3TZrG7iA9s3LjxBhH1EufXG9ytxEE+4HUwS5YsHJT3YJyy890jCz8jPNFkw4YNbfw5995pQZkNGTJkDBHxNkKpePGca/J94LmzZ89eIqK6ac5tpkVFRXE9b2eV+hcZGclBmVvsAX34Dua7Wxb+7eTPnz/x5MmTjeSXmMWJQZkDcM+ePV8novtatWrFrZ635XvAc7w6n2EYvHWWr7rZeNGhgD/cS1W2bFnO35eZnCUKdiIL/3Y4QDZu3PhbIuL1GUxXt25dxwXlVLVq1VqglJrs1Pz5W/369TloJco6lEk84cdSM0nr1avH+eOds7GjtdPJwr8TDiJjxoxZ6o8HDs2bN+cHfVicB+6oV69eHLROyzqUCZW5j99qP5Zt27bl/C2yymxbMJEsfHdwhd24ceMYs8cwd+zYkZe/DNi0VrCPcePGcdDaLuuQhyoqpVZYdRgmWspBQha8u0qVKnXq4sWLneT3+VLv3r3rKaW4nxDgtr744gueODJY1iE38QzAzrxMrNVayGlduHBhbaDmDIAfyYL3RI8ePXZprXnigyleeOGFkpjpBu44dOgQB+WCsg65gVue3Ld/QH6n1Zw8eRJD4oKBLHhPcKti+fLlH5m108PEiRN5eqslBu6DtRmGcUPWHzfwndh87iKzcgs51aFDh85gmnUQkAXvqTx58pw7deqUKd0Yrk0iv5bHBEirSpUqHJS/kvXnNu5XSs1VSv1kpwfJO3fuvEpEFWRmwGFkwWdGy5YtfxETInzJljuPgP907NiRuy6ekxVHyp49e2ml1HKl1I9Kqet2aB2n9eOPP/JuNn4ZjgoBJAs+s2bNmrXYpNl+c+WxANIaMWIEB6susuKkUYq32VJK8egMS46scMeGDRt4wSUesmclPd98881lmezPh/TIgs+siIiIK8ePH28vv98HustjAaS1YMGCGxcvXnxS1BtuIHRUSn2vlNrP3RR2axlLcXFxVgvKfL2fLFKkyHXDMN67zSqI4AlZ8JnFFb5JkyYn5fd7q2LFiiXksQDSKlWqFO8xuVUpxUPiuK94H4+mUErxZBLb9BnficWCMo+6Skj9oVu8eDEvPWvaSKygIgveG1xA06ZN2yOP4Q3ehkceB0By7cyexJsBcz1Mfcn32dn69eu579wKQTmHUuqTtOe3fv36/L+j5RshE24tdu/lyJHDOHr0qK+X+XTUxQWQGRbqU+auor/NtN2yZcsf8o2QCfLEeosDaFRUFO8l5svRGJjVB0Fv69atVgjK/ND0pkwb69atG6cPq9h5S55YX3n77bd59pGvNrB8RX4/QLDZu3cvb8IbyCFxHHAznMyVNWtWferUKX6wCt6QJ9aXfvzxx9G+CMx58+atLL8bINjEx8fzziq8aFKg9JJpkl577bWjWmseDw6ZJU+qLxUtWvR0UlKS1ztBtGnThve2s+34UgBfSExMvHSbfR7NVtadZzuVKlXiLow+8sPgAXlSfa1du3bcEcabT2ba5MmTecsky+wCARAIycnJpwPUCuXnQ0dkejKyb98+njUJmSVPqBnef//9eVrrnPLY7oqLi+OJAPwdAEEpV65cHJT3ElFheX34wVh3Wsmphg0bxn3fWGLUC26f7MzKkSPHxYMHDz4tD+yJkiVLjpffCxAsSpUqxYsu8TowmW7cZFIdTyfglC9fnsdTD5BfBO4zPSizSpUqxV+/fv0BeXB39e7dm3fSBghKdevW5aD8sT+nMoeGhvKWb3/JtLhj165dif5Mq9P4JSizZ555ZiMRcf+wx5YsWcIF7Le0AlhJ+/btOSjPkteFWaKiorjL8K3MXnPDhw+/ZIEx1baVqZOeGTzofMaMGdwNkalf0LCwsPXyOwGCwbPPPstB+X15TZiI72p/lelwV9myZXkUxlD5peAevwVlxrPz4uLiespEuKNTp068U4Rf0wtgBWPHjuWg/K68JsyQO3fuPEqphTINntqzZw9v9IrdtzPB70Eub96853/77bemMiF3smTJEt5PjYcFAQSVhQsX8sMzrx6Wu4MXAFNKPSOPnxmTJ08+q7XOLY8Bd+b3oMxKly69JSEhgTdGdRvPDsyWLdu8QKUZIFB+/PFHDsr3yWvCBHyMg/L4mdGpUye+TgM12cXWAhLg+LgPPPDAwr/++otnCrmtY8eO3XkrH/l9AE6WmMiDGfzSFbBAHjuzChUq5LcuF6cJSFBO1bhx4yVExBtZumXJkiUllFIpNRQgGISHh3MrmRsyZuN9Dj0ak3wnhw4d+lMeBO7Mp4XgKR6R0aJFizWXL18uKhOWkQIFCnwhvwfAqerXr8+z+XijVzPxJJGT8tjemjt3Lo/CwP59HvrbYtX+xq31qlWrrjp+/PjDMnHpiY2NrRHoFj6Av/Tr14+D8k/yOvCx/5jRQOvbty+38vvLg8HtXZQnMhC4QhQqVGjXjh07HpQJzMAq+R0ATjRjxgwObLwJrFneM6txVqlSJe5X/kAeEG7P57csmcWt37CwsL0rVqz4l9Y6RCY0rY4dO/ZGaxmCgWvkhS938kmrk9kNs8TExE94DXx5YMjYLnkSA43HIo8ePZpXpspQXFwcD7XBcp7geBcvXuRWLG9W6mu8kttBsxs3//nPf3h1O7efGYFSX8qTaAW8M/GTTz45N6PKyL+8lSpV+o/8HICT1KlTh/uTv9da88QpX+I70b1m9CNL77333lUiyvRiZMFohjyJVsHbxdeoUWNLRl0Zy5Ytu4ffIz8H4BTPPfcc98mOyegayCT+rslmt5BTPf/883ycmjIRkLER8iRaCW8Ddffdd8ePGjXqUZlwVqZMmSbYKipzChcunPIC61q8eDEPKXtV1nsvNfNnY+axxx7jf/iY4KZ+8iRaDf+icyUqV64cj7i4pcXgWg9jqfwMuGfixInyP4GFnDx5kjdLjUlb571Un68lf7WSWYUKFbi1f9tnRHCrHv4sIG+4gvPlzp07N06bgfvvv/81+V5wz8GDB6l06dI868r0vkXwTNWqVbk/mWev8qptvtCIV2mUx/GH5ORkfqAIbnrKLkE5LaXUyn79+uXlB34fffRRe/l3cM/GjRuvbNiwoZ1Sarv8GwTWyy+/zC3Mk/KCzSR+YO63LgspPj7+pkwQZMyuQZlbzUm5c+d+ccyYMR8VL15cvgXcsGjRonO8yeXgwYMbmjWBADJnw4YNvpp4wWOcA7rk7Zo1a/h6BTfZMiiDb4wdO5YDccpmnBUrVvwadcEa8uTJw7f8XBah8oL1EG+/xovNB9TUqVP5H3+scucICMpBbMCAATxbrAJXhAMHDtTKnj17QPoc4VZPPfUUB2Wvui7CwsKKKKV2yu8OhNjYWK5nFWUaIR2hoaFdEZSDV+vWrfliGch1gUe2fPHFF/yUHPUhwL788ktv97jjJW6Xy+8NlEGDBnE9+5dMJKSjWLFiCMpBjJ/wp90lmR+czp8//ztsJBA4BQoU4FbyNSJ6/Nar9c5cQ0arKaU+sdJ13aNHD65nH8v0QjqqVasWzWsay5MIwaFYsWJ8sfAWW//FXZpz585dgkk5gTFw4EAuk8NEVCZtubipuVW6LNLiCSSGYfDyoHAnTZs2bWH2KlFgXdwqMwzjb6t4EVGuefPmzeVx4fIzYK6ffvrplrsXdzRv3jxcKdVWKXXKSi3kVI0aNeLW/0aZbkhHp06dKiulTsiTCMGBn/IbhvENB2FZN9iyZcs4OFyRnwNz1KhRI2XURSYW8BmslPpLfp9VVKlSJWVhJZloSMegQYN4ttBeeRIhOOTIkYP/2ZbRlj1EVGTp0qXvZMmSxXKtLyeaM2cO/0huluWQkezZs/PGw/wA7Zr8LivhbjIEZTfFxsZmUUptkycRgodhGPtut94tj2OeM2fOfEwuMZfrAZ9BRLxjuzv4QeACK3ZXSLz5K4KyZ3h5TAhShmEcIKLislKkpbUusXLlSt4u3vIBwK5GjhzJZbGb707k+U+rQIEChZRSL7vWQ7ZNeSAoe2ajPIEQPAzD+E1rXUpWComICqxfv35E9uzZeZEc8LE//viDx/L2kuc9DR7u1lMpxaNlLsnPW51rsX5frgvtaLPkCYTgceHChePuDr8iorBvvvmmV2hoqPwa8IJrx+p9Wuu88py7VFVKTect0OzUOk4LQdkz0fIEQvA4f/78H0RUTlaKjPDWRF999VU3DKX0ncOHD/OQiw7yXCulSiql3udtKe28vCo/UEZQ9kD27NlLyZMIwcMwjDNEdL+sF3fy9ddfv4BxzN6LiYnhgHUiISGhQJrTyzvq8Ky8b/kBq11bx6kiIiLQp+yJYsWKhcmTCMEhb968HJRPEBEPrfIID3NesGBBf/md4BleF6JBgwZ/KKV41MXTSqnPXQ/xHDOjkusZgrJnQuRJhOBw7733clDO9BbwvBbzuHHjRtm9JRdovNSBUuooT+RyUjBOFRkZiaDsKXkSIThUr16dg/LXHFxlnXAXN4R69uzJ/YUA6brnnnsQlDPBtg8RIPOaNm3KQXmR1vouWSE8QUSF27Zte0h+PwArUqQIgnIm7JcnEpyvQ4cOHJQ/kpUhMy5evFjp/vvvRz2CvylXrhyCcib0kScSnK9Pnz4+C8o83OmXX36pyk/aAdJ66KGHEJQz4UF5IsH5hgwZwv/wEp0+M3/+/BryOBDcoqOjEZQ9VaJEiQfxBD34TJs2jVvKk2R98Aa3mDt06IBtpeC/XDMWsZ6yJ5o1a1YL6+YGn2+//ZbXW3hM1gdvnTt3LnfRokWPyONBcBo1ahT/+K+V9QRuY/DgwbxKGM+9hyBy/Phx/ie3rA++8M033/DmnZZdeB38x3VHNlnWEbiNmTNn3q2UWiFPJjhX6qJCsi740nPPPfciNmGF5cuX8x0Z7x8IHlosTyY4V7Vq1bj1YshK4EtXrlwpXrBgwR3y2BBcfvjhB/4np6wfcGdz5ckE5+rUqRMHZV5zwVQffvjhAOyYHtwOHjxIsl6AG8qWLfucPJngXMOHD+egPFPWAzPUqFHjG4zGCF7Jycm8tgd4Kjo6uoQ8meBcH3/8Mffz8eLpptuwYQOv15zyVBGCi2sna16cHzIJrZkgsX//fi5r3s3cdDx2+fHHHx8m0wDO17FjR5+PhQ825+VJBefJnTs3XyhniSiXrABmOXr0aGG0loPPiBEj+I7sUVkfwH1z5EkF53GtDreKiLLLCmCmrl27Po8VCYOLq5uMJ6dBZpQpU6a+PKngPK+88goH5bH+3jNt165d4dg9Pbhs376d9x+sIesCuOmpp57iW0z0Kzvc0qVLiYhGyvL3h+bNm6O1HESuXbt2RmtdXtYDcNPMmTMjlVKJ8sSCs5w4cYJbL/+S5e8Pq1at4pEYWGclCJQsWZJHXnznrwfKjnTw4EHuY1wqTy44B++XZhjGZSKqI8vfX0qUKPGWTBc4T7t27biuLdRaZ5F1ADwQGRn5tjy54ByuIUrniShMlr2/jBs3rhC6MJxvwoQJXNdmyPIHD3Xo0KGPE3fUhf83Y8YMvlD2yHL3t2zZsmGkj8Nt2rSJR148Icveb6Kjo++KjIzssmvXrnvk3+xk2rRpnP6r8gSDM/BynUT0iCx3f+vcufPT+PF3rqxZs+obN27w/zRlaVi3cFBWSv2aN2/ebVu3buVRDHaWIE8y2F/ZsmW5lcyBkJdqDagvv/ySuzAOyzSCM7j25UuW5R4I53hIWb58+fZs27atkfyjXURGRraUJxnsj7fl4UkjsrwDgcdIFyhQ4CeZRnCGl19+mYPyelnugZCyUDw/xMiZM+cxfw/O95W+fftySwrjlR3ms88+43/6yvIOlMGDB5eTaQRn+OKLL7ibrJ4sc7/Lli1bdGqiOKjlzp07cdOmTQF7yu2lX249zWBnISEh+sKFCzeJqLMs6EBxNVquybSC/Z0/f94govyyzP3uwQcfbJK2henqythr04d/L9x6msHOGjZsyF0XvxJRQVnQgVSoUKHuMq1gbw888AB3XWzWWueQ5e13/fr1q53eZpF58+ZN3rdvXz75fiurUqVKb3RhOMfbb7/NQXmLLOdA69Onzy0NGbC/YcOGkWEYr8uyDoipU6fyPlRxMpEsMjLy6M8//2ybhTmGDx/+gFLqtMwH2FN8fDz38T0jyznQVq5cyVP7f5TpBfvatGkTd128IMs6kFKepqQnMjLy/MGDBwvID1jYTpkHsJ8KFSpwK5n3ybPkg+ccOXJ8ItMM9nTPPfdw18VFIiouyzlgQkJCZsmEppUvX76DBw4cKCI/Z0WlSpUai1tL++PhSVrrbbJ8raJ169b/fUAO9ta7d28OyidkGQdU1apVH5UJlSIjI7/av39/JflZC+KW1XWZfrCXH374gZfqfEwWrsVgdp8DfP7553xXNkYWbkDxzD6Z0PTkzp07adu2beWtekuZxg8y7WAfhQsX5ovkTyLiZwRWtl2mHezn4sWLlpgxmp4LMrHpiYiIWL9161Z++mxZJUuWbIcuDPv65z//yUF5TSBXhXNHwYIFW8u0g7089thj3HVxQJatVSyQCc5Irly5/tiwYUMDXsNDfokVvPzyy9WVUrx7ANjQV199xUH5bVmuVhMTE1NKKcUPI8GmZs+ezd1kQ2XZWkVdT1qXoaGh+1avXt1NfokVxMfHhyqlvpFpBuuLiIjglgsPhassy9VqXKsTHpR5AHsIDw/Xly9f5lEXLWXZWkL16tVLerqId9asWS988sknna14m1mmTJlhMr1gfd26deNW8lFZnlYUFxfHd4pzZR7AHvr27ZvSdUFE1hzy26dPH1668w+Z8Dvhz7z//vvPye8LtDFjxvDUXLdb/mANK1as4FbyYFmeVhUWFjYe9cyetm7dmrJDuixTy5g5cybP+f5SJtwdSqnz48aNG8y9GvJ7AykkJAR799lIWFiYvnr16nUiKibL0qqioqKiEZTtp0qVKtxKvkZElp9/MVkm3l282+/gwYNHaa2zyS8NlEceeeRBXDD24dqL73siipBlaVWxsbG86zHqmM1MnjyZ69osWZ6Wkz179tHeVDCl1MWnn376Pav0MS9YsIDXKNgr0wnW9PHHH/OiMJNsMA5ewlZkNpOYmHiDiB6WBWk5Dz74YCtvgjLjz0dHR79rhXVJ+Vlknjx5Zss0gjUlJSUlE1FHWY42gG4yG+GHycnJyTzxh7f3MlXNmjXv1lo3lv/dbYMGDeJbMY9GYKRHKXWpQYMGKxITEwN+G/r88883kekD62nRogXfTvL0+LyyDK0uV65cdWR+wLq2bdvGdc0vd2TVqlVrbhjGam9nDPpkPj+3mEuXLv35wYMHeSJHwBw8eDB7lixZzsr0gbVMnz6dL5TPZfnZQVRUFA+N8+oOE/yjQYMG3ErmCSPlZDmaIKRKlSoTkpOTzxBRdvlHT/hs6UsO8BERETvj4uKayYP4U8eOHaNk2sA6eNunP//8k4fC+eNCMUvK3vRgbcuWLeMf/1Gy8MxQvHjxIpUrV96bnJyc5FWrPDw8vLHMiLeUUocmTpzYQx7LX1wnBIvHWFT9+vX5Qrkgy81msMu1xZUuXTp13WR//fhXeuCBB65zUJZ/8IirY9qn+NZOKXUqOjp6mTyev1SrVm0EbjGtybXt0wRZZjbzhswXWMuUKVO4ns3xtn/XXSEhIe9XrVqVvA7KLqbs1svrHNeqVWthIB4ALlq0qAy2irKmAwd4pqv1tn3y0CCZL7COvHnzpizRSURtZMGZ6IJrQ9a/5B8yY5XMlK9wYM6fP//xJUuW5JYHNZPWOst9992HxWMshm8pDcNIIKL7ZZnZSYECBZ7FnZh1vfLKKynB0V+tZKVUW64PrqB8Xv4xM16QmfIlV3dGUrdu3TrIA5tp9uzZxWVaILAGDhzIQfmAVw9CLKBRo0Zcl6/I/EHg8fT906dP84NkXg/HX9ZwnKtdu7ZvgnLhwoVN/9V3BWYqVKjQD0uWLLlLpsEshQoVOizTAoGzatUqDsqLZTnZzdNPP80X/AmZPwi80aNHcx37TJaZie5VSv3Kx27UqBEH5UT5Bo+1a9euvb9+9V3B+UK7du3y++PW4u233+Y+Ja8nyID3smXLxgsQ8Y9/TllONoUffIspUqQIr5nMU6q7y8IyEc9KTWnUNmvWjIPyEfkGj02ePDmXUuqozKCZOBMRERHvTZo0qaCZO5pcuHAhMm/evNvk8cH/eBaf1tonD0Es4jeZRwisuXNTlrvm6z2LLCyT8IJsianH5+2mDMOIk2/KrJTmt79xK7ZKlSptt23bxosJmWLs2LFYA9cCJk2axP18L8nysbE9Mo8QONWrV+dW6lUiqiULyiQc+PukTYNr5cP35Bsz67O0X+5Pri6NFf369atg1vC5yMjIeHlc8K9ff/31pi1W6nLf+zKPEDjr16/nVQeXykIyUWmej5E2Dd27d+eGx/PyjZlSvXr1qmm/PBC4XzsiIuKF2NjYat7OHZcmTpwYhU0vA6dw4cLcgjhi96FwQnOZTyvLkyeP/E+O0bZt25QHbH5sJfNghWnyDrx3794clLvKN3vDErf43EcTGhr6VL9+/aJ+++033qzSa0RUtGDBgr/IY4F/PPXUUxyU12qt/TbyxmwVK1bMJ/NpZTwqwYl4CNzRo0e5fr0ry8gkXIcfSy9e8pBPImouP+CNc/IggeLq0rjJAygaN27c+qOPPiohE+upefPm8dA/Xi7S9rjw7eSDDz7gi2ahLBOb47HWf7swrerMmTNGeHj4OTul2R0TJkxI3RDVH2u6c5lnuMPRSy+9xEH5AfkhbyyUB7ECfhiolPogV65cnWJiYpquXr06010bDRs2nKuUuiyPYUeNGze+6KulV8126NAhrqzdZHk4QLoXp9VwX6dhGHsqVqzIt9yOqP+sVq1aHJAvEFEXWTAmqayU2ijTkWrkyJG+nbSSL1++aHkQK3G1ng8rpf6llOrZokWLx3hInczH7Wzbto3HRq+1y8WUnhIlSvAFdunEiROT8+fP/738u9VwfzLz9XMCi7DFEp67du0yiKhz06ZNecW03+Xf7WrXrl18LfAG0P5YxqGuUurT28UObrX7dP5FixYtHrFLJXMF6KNKqUlKqWfDw8MHPPzww88MGzbs4RUrVtx2BMfgwYM7m7UIkz889NBDXBG/5g1H165d20QplSDfYyWu/uSTshwcwvKz+h599FFuTfI6MKGxsbE8J4Cnuduea32LS77uw81ADaXUdzIN0qxZszg2+c7o0aP5yfgReSCrcwVofl1XSm1RSr2llHr53nvvfaFDhw6NY2Njb9lx+9ChQ/WLFClyUX6PXcTExPA/fVPz889//nOQlUeWvPfee9xKjk1bBg6yRObXar7++mseKvbvNOuN7JbvsZsyZcroS5cucet/uCgPX+Nz1lMptfp2LeRUy5cv5zjkO65b+2/lgezK9aDwB1eQfk0p9apSqh/3T9v5gd9rr73GS1/+d7wvz2AuUqSIZbtkNmzYwEGZ++Kc6F8yv1ZSqVKl1IXe+Y4q1Y/yfXYTFxfHPzS8F57ZM/c4Zri9BPC6det8G5RdHLdTr6sVzQ8Lryql/uCuC6sGMHcsXLiQWwiN0hbaxx9/zBedJR/g/PnnnzxphNe3dqL2Mr9W8uGHH3LX0aK0/fkhISFr5Pvs5M0330xZiY2I6t1aFD5VXynFM4GveBIrtm/f7vugXLdu3c7yQGAt27dvT5KD5Pmia9So0URPKpA/FCtWjIPCz0Tkk/HmFtRG5tkqypYty8GLfxCrpk1wSEgI78ZhS+3ateM88Z0iT282a8z7SKXU+swsZHbkyBHfB+WXXnopQh4IrOXSpUu7eTKMLLudO3fyf1sn3x9ILVu25KD8sU+fSFsLr0JoqR/CVJ988gmf+6kywUqpEfK9dlCuXDl9/vx57raYYlJ9qqCU+lApxeshZ6pMz58/f0N+qa+clQcDayhVqhRfaLxTTLqVsk+fPjH+WobVHS+++GJGgcEpLBmUH3zwQT7vf6R3i1+iRAlLD31ND8/a279/P+dpa3oNEi/xGhb8nIlbx16N+09OTj4rv9xXRsqDgTU8/vjjXDGXywJL9fvvv+dTSu2VnwsUXkrRMIx3ZDqdomDBgpYMytu3b+fzzg/tc8g0161bN+Dr3Hjq008/Tf2RqS7z4wUOxjzueJPreZNX5RgZGclBmQcW+F7lypVryQOCNbz22mtcOXlWVoYGDhzYRH4uUH788UceeTFQptEpypcvb7mg/I9//IPrCPe78u3437Rt29ZWKxO9+uqrHOyOElErmZdM4NEaPE9hg1Jqhy/nZVSoUIHPO8+b8L2+ffuW97YZD+b4/PPPOcg1kGWWlmvTgFuWFAyU+Ph4n68FYCUPPvggBwrLXCu5cuXSCQkJfM65GysjIfJzVtWtW7fUB3s8yiXdLjs38UYeE1yB+ETq3AZ5PG80bdqUzzvPGfC9hQsX8tRly9wCw/8cO3aM/7llMkx6OnXqxBt7+rTSZcbVq1e5oobJ9DlFixYtmlqpD3/OnDmp3RZ5ZFqFgNeNO2nVqhUHZG7yd8jkFP1SSqllPIOR54zxRkTyGL7kWku5t0yET7gGZM+WB4XASl0PV5ZXevbt21c20LMzc+bMmfKvTJuTdO3ataYnkwvM9OSTT6b8S0SPynSmw9IzWnlXaJ6xZxjGRA8CMvef80zXfUqp41wurlm+Pm8Vp8e1QlwvmSifKVq06FR5UAisJk2acCuIK9kd8Q9r69atAzoFmKfCMpk2J+nfv39JK6wlwbfOjIj6uzl+9yf5HVZx33338TKjXNePERGf3/Tw9GeeJbpIKcXrqvzpGsrGkz14opjpQVhybXdmXlDu1q1bXXlQCCxeQ5mnlsqyysimTZu428DvlTOVa1gWXyCONWjQIO4mCGiAq1Onjk5KSuLxu+PdDMhskvweq+AJIq1bt+YHZ1uzZcvGq9pxnsKVUk+4VonkGbk8HphfKQHYX63h21m8eDH3ffM6GaYKaCbhVjxllohqy0K6nUaNGvGCLQEpR764DMPgRdUda+DAgXxrvUHm3V+io6Pp0qVLNwzD4L5TTzwnv8tqXIGWh6oFpOXrqQ0bNlzn5VHlifa14/LAEDjbtm3jX+LispBuZ8OGDQWUUn8FolI//fTTKYP9ZZqcJDY2lp+/BGQW5dixY7l1zFPun5bpcsMtuzCD9w4ePHiOiHgvUPMULVq0ozwwBI5hGDeIqJgspztp2LDhsEAEZd5EUmu9RKbHgb6ReTdT+/bt9e7du6/zGtVaa37QmBkphQO+c+nSJd4Y2OPr0yMxMTGhmVmUA3yvSpUqHJR5AD23fD2yZcsWbl2bOhwoPT179uQ0vyfT40B+C8q7du3i1vHvhmF8ypPIZEI88Kz8bsi8ggUL8vC9fV6Opb6zJUuW8HhYy++sECwMw+Db5JyynNzRpUsXbrH6tbXco0cPTrNjp1in4ZegzLP0DMM4mN56FpkwTH4/ZF79+vU5KO+WJ9nnXDsVTJMJgMAwDIPXuua7l0wpVKjQr/4MzK5toKbIdDjQWpl3XzMM46phGHFyyVYv8E4k4CM8cSQ5OZlnC5qvaNGiz6MLwxoMw+AxN+4OpP+b77//nqcE+60bo2vXrpzmOTIdDrRS5t2XXH3HvAu7L/GuHeAjsbGxXE5fyJNsiieffJJnB12SiQD/MwzjE2+CMt/5LFq0iLsTfLYIy+106tSJ0+zpUC07WiTz7guGYVwxDOMbXk8hzf56vnJIHg8yb968eeZNsZbmzJnDt8uWWNwm2HGA86b7ItX777/Ps6BMn2bLowR4HQZ5fAf6QObdW4ZhXOSuH0+HQHrAkluH2dUPP/zAQdmvu+vYfqNFJzAM4zNfLO5DRAUXLVrEK2aZ2r/coEEDTvNeeXwHelfm3VOuh3jsN8MwZhuG8YYJreO0TC37YHP69Gn/LidQuHDhrjIR4H++aikzIgrfvHnz9Dx58pjWYnbtz8cb1TrdKJl3d0yZMoXPD9vN6/AahvE2EXVPb2F6H8si0wKZxwtv8V6I8iSbqm/fvjz2Dr+sAebtgz6JiCJ+/vnnN0qWLGla2RqGwesUON1LMt+3U6lSJb1v3z5uGW8kolgiesz08a23KinTBJlXrVq1lEX45Un2h/0yMeBfhmEsdGctZU9orXMnJSW91Lt37z/k8Xzh8OHDvt/d13oGyHxnpEOHDqmLB80gokbyi/zEox8RuD3X0M/p8iT7Q6xMDPiXYRgrfdGnnB4iemr79u3f1q5d26et5ri4OP7HzL5RK+gn852e4cOHcxmeJ6LnTdj80xMbZdog89566y1+yMebSvhXlSpVotGFEVhXrlzZR0S8MaopiKgOET0zbty4PfLYmfXRRx9xhc0vj+Uwd1xxzbWB7GU+v67tugIJd70+tGrVKo6LjeVJNt3gwYN5F9kEmSDwn88///yS2S0sDhh8W33y5Mnnnn/++XOpu4dk1qhRozgoPyaP4zAvy3ynyp49u16zZk3Kam68mqlZdzruKleuHK+XcVimEzLv2LFjiT7eZds9rgXTt8gEgf/06tXL46U7M4tHZxBR0zNnzgwbOHBgpvegi4mJ4Rbi6/L7HSbdoMw/aN999x3nn1cPays/FCC8+zYmg/lIZGQkP+T7QWudV55ovwgNDV0lEwX+kz9/fv7nH7JczMSVTWvdMD4+vn+fPn14wXqPurBcw+Kcvv7FYJnv8PBwvWnTJs77fl6vwgJdFql41plHZQgZc23RxtPsA/PcpFWrVg/KRIF/xcXFHZPl4g/ccubRPwkJCf8cMGBAskzX7Rw+fNgnk14s7Pm0+Y2IiNCbN2/mi3VTQG5rb28UgrLvDBo0KGX+gDzJfhMbG5tVJgr8KyYmhrswysiy8Ree2EBEDxw5cmRV9+7dKUuWO89DmDFjBo84yGgDTCf4b/dFjhw5UgMy9yGXCFgLKmO/31o64I1Zs2ZxWb8rT7K/LZcJA/86d+7cLFko/sbdaURU5ejRo7tffvllcnWtpKtLly78Q1JWfoeDvJ6a13Xr1vFDvW+J6D75Jgvgrauw4qMP7dixgx9kPyhPtF8VL168oUwY+NfYsWN3m77tjBu4FciTT3jIGxENWLhw4YWaNWvK5OoCBQpwa2KM/LyDvMX5XLNmDeeTH6J5syOImXjyEfhIWFgYB2T+n4F9XtCvX78KSqlEmUDwn0KFCnFrx//jIm+Dt7bndTmIqMbGjRvjo6Ojb0nz7t27L8jPOMhzkydP5oDM5WL2uhXewKgLH3rooYd45EWyPMl+59q915T1Y8F9U6dO/VOWjZXwrr6JiYlX3nnnHapatSrxv5ndysrqunbtWoVXeSOiF+TfLISHwt2U9Qgyb/DgwfxD7J+F7e8kPDzc5+vHgmdKlizJt06BWjvBLXxbx4so8dTiU6dO/cZdHfI9TsFjsS0+c3EcRl341pIlS/garCtPdEC0b9++iUwg+N8HH3zA06F9spSnmVyzBJ08JM7SChcuzF0qX8v6A945cuQI3x5ZalSRX7YUgoyVKFEimYj+KQsGQODnQGgl+1ChQoW4P/k0ERWWJzuQUpb/gsCaPn06r/jF/fwAGZkj6w14p127dtyfvMiX65t7rUmTJtxsx69vgBUpUkRfvXrVUiMxwFKwoL0J3nrrLR6PPl6e7ICaPHlyLqXUcZlY8L/x48fzjLkCsowguLlGSs2Q9QW8t337dm6Q9pXnPKBct8zvobUcePny5bt54cIF/2xvDnZSSCm1XdYX8A5PhkpOTuaHfAXlCQ+4ChUqDFJKebQ4Dfge/zC+/PLLa+0wEgP86lU0mnyPt39KTk4+JU+2JQwfPpxXwLosEw3+xxffiRMn+ssygqBVAzP4zOHaTWeYPOFWckwmGgKja9euV3ntXllAEFxiYmL4jmmBrB/gG6dOneK7D+tOp7/vvvtekImGwNm+fTvPtkQ3RnDjWWam7E4e7CpXrsxdF0fkCbeUgQMH8jg99CtbRN26dfnOpbwsJwgqy9GXbA7XehdT5Qm3oi9l4iFwFi9evEQWEAQN3uoeCw+ZJC4ujkddPCNPuuVUrFhxAH6ZraNw4cJ0+fJlLhMIIoUKFeKx6hgCZ5JcuXLp69ev87LF1eS5t5zXX3+dV94/KzMBgTN06NBfiOh+WVbgaDxWHWvSmKR79+7cn3xIa323PPGWs2vXrnCl1F6ZCQgcpdT1o0ePPivLChyLr8FfZT0A31m6dCn/85Y88ZZVrVq1oTITEFgtWrQ4jCUzgwYvto4uRJNky5ZNX758mccnF5En3rImTJgQKTPiZLwVjNXxRbpy5covZVmB43TDwz1ztW7dmrsufpUn3g6CYqfrffv26aSkJH3//fdbvmVSrFix61euXImRBQXOEB4efo9S6ntZ7uBbM2bM4Fay9UddSK1bt24VDLdQBw4c4LGKC/bv3/9M9uzZT8m/WwmXx7Bhww5Zat1X8CXu47wuyx186/Tp0zxbtqk8+Zb32WefFQ+GB3779++/SESVONAtXbq0u/y71fAWcgcOHJgoywtsj4c9Yu0Zk7Vq1Yq7LjYTES9XbC9a65DIyMhlMlNOs23btvjUbWB4/7mPP/44Vr7Haho1anSdiHgBKXCGqkqpeFnO4HuLFy/mO+NVsgBs44UXXqgtM+U0EyZMOEtEfFeQQmt915IlS6ZnzZrV0l03s2bN+hTdGI6xNBi6CgMtPDxcX7lyhfuTbb/QV5LMnJPUqVOH0puYsWbNmn/lzJnzulUvlty5c+vExMSHZbrBPly7iQyWZQvm6NOnD3ddXJblYDv16tWrY9XA5Cvx8fEzZb7Zr7/++lKVKlUuyvdbRUxMjMHxWaYbbKOlUsqy9ctpvvvuO45j7WQh2M4HH3zA26T8KTPoJGPHjuXWcj6Zd3bp0qWePXr0OM0P2OTnrOD7779fg24MW+Lhb5tkeQbaPffcY4tx+54qXbo0t5ITieheWRC2ww/8QkNDJzm5tVyzZk3u/J8t856KiOovXrx4R3h4uOUCc8WKFZOIiFtcYBMRERH5edaeLMtA69atm7Fw4cKbISEhjrvW33jjDb7GZ7n2I7W/AQMG8OIolgtIvnTo0KGNRBQh856Kdyc4evTopk6dOiVa7QdqwoQJeOhnE2XLluVyek+WYSAVKFCAli5devbw4cM7cufO/bPV6rcvnD59mh/wDZTlYVuuX5cEmVEnGTZsGI9X5hXyMsQrShHRqzt37lzfrFkzyzwAzZEjh05ISOgo0wuW1NVKq789/vjjlJiYGH/t2rWRVatWLaeU4rtiRzXAunbtyl0X14iIF3pyjocfftjRixTxusXJyclurcTGrVLDMN7duHHjT7Vq1TKs0LLo1KkT/2iWkmkFS+GH5pbY2adIkSK8UtoNwzB+IqIeHTt25MWueG3hjVaoz770ww8/cNfFYlkYTnFUZthJli9ffkhm+HaIqKphGJ+sXLnytwoVKgS0InNy4uLiJss0gmWUUErtlOUWCIMGDdJ//fUXt9aXENED/NxIKcWTkT5xWkCuXr06t5IvaK3zygJxhKJFi/L0XkcVWlotWrTgfqcGMt+3w5NNiCjGMIy533777bZOnToZ2bNnD8g5Kl++fOK1a9cqyDRCwPFIi2mBvnYqVqyot2zZYhiGsdkwjGlExA8cVY4cOQoppVbK9zvBhx9+mDKDj69TWSiOMHbs2MZKqfMy405y7NgxLkBuOXjEFZybG4Yx5fz58x9NmDDhAu+W62/jx4/n1o/95vU7F6/ZOzaQAblgwYL6nXfe4eB0xjCMyUTUSKTxTSv1c/tKvnz5uJXMiw/xXofOxGtDKKX+IzPvJEOHDj1FRJVl3j3Bt0pa61cMw5iwf//+ja+++urNMmXK+OWizJEjBx0+fLibY4b+2N+7Sqkrspz8oVSpUnr69OlkGAbXve+IaJBMnFKqs1LqqvysE8TGxnJQ5s0h0p2D4Bi9e/duE8hffbPlz58/+fLlyz4ZOuNqPT9EREMNwxi1ZcuWL1599dXLUVFRKfPwzdKkSZOdttpVwYEKFy6cQyk1MhABuUKFCvqjjz7iljEH5HVEFJtBt1x5pdRB+Xkn4Ovr3Llz3B35T5lpp1oiT4KTTJs2jZ9A+xS3XPmhChH1J6IXDMMYv23btv3Tp0+/0atXL6patapMhldmzpz5ETecZTrAfFWrVuWhV6/7e2hZ+/bt9TfffMPBOJknShDRYCKqd5vuuPesMhrE10aMGMGt5PVBc8fYvXt3bi37vQXgL/feey/dvHmT82ga7uLgmXhE1Id3QSCiZ69fvz55y5YtP8+cOfN6//79qV69eiljkDMjZ86cdPz48VcwqSQg/q2UuuCPO0ruohgzZgwvTsXB+KTW+jWtdV+tNY/2uB0e/nZGfp8T5MyZU589e5b7yPvKTDvWwYMHCyiltsmT4STLly/f6upD9wtXS7qw1roZEXUlou5E1IsfHCYkJPy2Y8eOq6tXrzZmzJhBsbGx1KdPH2rdujXVqVOHt7JKeZgTGhpKaQNBs2bNjmut+eID/2lvdoOFA/HgwYP1xo0buXvimmEY03kEEBE97s5D3pIlS4byaAt//GgEwtChQ7mVfICIisq8O1qXLl3+JU+Gk9SuXTuZiHgTy4BxBeqiWuvGrguufZoXP8x7RWs91zCMz3ntDp7QYhjGwlOnTh395Zdfbv7444+8Alkz+b1gDu4maNGixYSwsDCfBruwsDDduHFjPXLkSL19+3ZuEXMgnkdEnYmobdr1wN3USSl1TR7HCbgv+ezZs9yXPExm2vF27NjBrWXHDaNJxa2I9evXf23VqZnciudlO7nhxOtBE1FJbmkTURl+qENEj7heKWNRwT9cE4pGrV+/fvPo0aOvNm/enIoUKeJWkObgyw/pWrZsqZ955hk9adIk/eOPP3Jr+KZr5l0/InqUh17yameZ7C/lVvIvTm0lDxs2LGXNZK01j70OPm3btu0tT4qT1K9fn9fDKCvzDZARbi3zDyERVeS1VLTWDfmu5sqVK1u3bNlyMy4uTqe+1q9fr3fs2EHx8fHJSUlJVw3DOG0Yxg9a67eIqCOPJ3Z9nn9keR9JXzQQFjk1IOfPn1+fP3+el+ENmhEXf7N79+5iTh1Sk2rdunW7Zb4BPKG1DuUfd95XkYhqiBf/t+rc98/j4113Ovm11tnk9/gA7wXoyDHJjCfIJCcnbyIivosPTjwO9+mnn54iT46T1K9fn395eYA9gN1NlPXbKYoXL879yPw/+TlLRkMAg8O5c+dy8ywyeZKcZPXq1Z/4cyQGgAnKKKVOybrtFHPmzOEHoLycbk6Z8aD0+uuvc4E7NjDXrFnzOhHVlfkGsBEeceHIa7RSpUrcbcF5Ky0zHbT4dqFYsWIz5MlyCq7MH3300UmZbwAbuS7rtVOsXbuWW8mTMzkaxbkWLFjQivcZlSfMKYoWLcp9Vt1lvgFsYISsz04RHR3NrWSOOzVlpkEpVa9evc3ypDnJqFGjdmM9CbCTihUr8iiOjbIuO0FERIQ+efIkj+NeIfMNt3Lsess8U+vEiRMDZIYBLOxxpdRNWZedYOrUqbyF2ymZYRAGDx78pFOncLIuXbokYZYc2MhoWYedoHbt2qmboTp3AXtfuXDhQuQ999zznTyJTvLFF1/wQ00zBvcD+BKPivLr8qH+kDVrVr13715+uPclT8yRmYZ0LFu27AmlFC+G40hFihS5nJSUVE/mG8Aq+vbte7dSiqdsO45rR5GjPPtR5htuo2XLlnOd+CvNeIhcTEzMYrSWwcIeUEqdlXXX7ho2bKhv3LjBk0T+ITMMd3DkyJGSoaGhh+VJdQoOzKtWreoh8w1gEZOdNlkkd+7c+vfff+dui4Va6zwyw+CG6dOn93daxUirUKFCxtmzZ9GNAVbDu80kyPpqd19++SUH5F1EVFtmGNzEnfDt2rX71MmB+eGHH/4eozHAYhy3AcWzzz7L/cjxRPSYzCx46PLly0VLliy51amBmfM1ceLE8TLfAAFS3WnjkqtXr84B2SCiQVprfoAJ3tq8efPjWbNmNXXfskDKmjWrsX37dkzBhoBq0aIFd1tMl/XTzrgf+ejRo9xtMY3/r8wzZBKPUhg/fvxwp7aWWalSpY79+eefVWTeAfyI1384Juumna1evZoD8tqgXrjeLLxmRJs2bT52amDmfDVr1mw1hslBgPB636tkvbQz3ig2OTn5DBHhYbpZkpKS7qtateoBefKdggPzkCFDpvhoLzUATwyW9dHOHnnkkZQ1komoC5bkNNnx48ebFCpU6A9ZCE6hlLqyePHi54J+SxrwJ95774Ssi3Z177336sTERF79bSwCsp/s2LGja7Zs2Rw3jjJV9uzZj+/YseNFmW8AE3B32SandAvmy5dP//rrr9yPvJGI7pGZBZPw+OXPP/+8bUhIiCwTxyhcuPDp06dPd5N5B/AV11rJjnlOkyNHDr1z587UCSKVZH7BZPxAbPLkyTwQ3BEVKj21a9fmwe7FZd4BfORp7i6T9c6u1q1bxwF5AxHxWGsIBB7iO3LkyPecGpg5Xx06dPiFiCJk3gG8VEEpddoJ1w7fMX/66acckPnB3n14HhNgvLDIc889FycLyin4ohk5ciSPs0T/GPgK39oflXXNrmbMmMEBmXeML4uAbBE8UycmJoZXfnIknvY6fvz472S+ATIhp1JqrVNayDNnzkwNyM/IjEKAcWB+8sknf5UF5xS8tvSkSZP4KTmAN9YrpZJl/bIjV0DmLotHtdZ3yYyCRcTExPzmhFZAejhf06ZNe0HmGcBN82SdsqsPPvggtYXcSmYSLIaI8o0ZMyYuJCTEsbuWTJo06VmsdgXuqlmzJtcVvr23fWOFuyxmz57NE0N41Eg7mVewsBUrVuwJCwu7KgvVCfjiGjp06DvY9BHupGzZsrzy2zhZh+woLCxML1u2jAPyOSKqIfMKFsctyT179rxbuHDhv2ThOkW/fv2GaK3zyrwDuHA/6wAnrI9cpEgRvWvXLg7IPHa/rcwo2MjJkyeHNGjQ4LgTbt3S07lz5w8QmEEqWbIk70HX2An1vlatWvrkyZPJhmHsRV13iJs3b7YePnz4T1myZLF9BZX4oqtbt+6biYmJ98t8Q3AqVqxYmFLqNSe0kKOjo/WlS5euGYaxTmtdQuYVbExrHfn111//kD9/fkf2M5coUeKnAwcOYJH8IBcaGsqBq5fdW8hZsmTRY8aM4REWiYZhLJL5BIfg2JWQkPBhkyZNzslKYHd8EebOnXvzypUrH8FyhUGrsFJqjt0DMm/htGbNGu4//omIhqM+BwHDMN6YNm3anjx58sj6YHshISFJQ4cOfQJD5oIO767xrt0DcqVKlXR8fHzq0psYYRFMiKjN6dOnZ3fr1u2krBh2xllTSiU+/PDDA06dOlVK5hscqTLvLyzrgt106NBBJyUl3eTuCgTkIMVTM4lowPr161eWK1fOsHsrIy3OS9GiRWf99NNP1WS+wVEeVUp9JsvfTngdZNeiQjew6zSk0FqXNwzjzX//+987ChUqJOuMbblazV9OmTKlB7ozHKmZUmqXLHc7adq0qT5y5Aj3H/9gGMYorTUvmASQEphDeB49EY2YPn362qJFizqp1XyiS5cusVjW0BlcO4bEKqW22PXujlvH7733Xsr6Fdwg0lrzmGqAv3MF51pE9PyHH374ZalSpRyxhoZS6mqBAgUmzJ8/v7bMM9hHREREfqXUeDuPQeadpl0P83YS0XNExOOqAe5Ma12NiPosWrRoU9WqVW3ZIkmLB54opeJatmz5FpY6tCXe5mihUuq6LFs7KFasmF6+fHnK2GMiepmImmK4G2QKEdUnom5r167d3LRpU1sHZ1c/8+WcOXPOmzRpEm8tD/ZQRynFGx3Yrv5ly5ZNv/rqq/ry5cs8VXo8r13BPRgygwAecXVr1Cai9nv27Pm0c+fON+14gaRytZp/qFev3lvbtm3DBWJto5VSP9qxvrVu3Vr/9ttv3Do+wNcOERWUmQPwiis4l+Vbr/Pnz/eZMWPGhYceeihlnVc7Ukqdv/vuu9c9//zzTWRewRLGKqX+tFtA5mC8detWDsYXiWgwN2jwoBlMx7dgRFSHF9v+/fffj4wZM4Z4RpLduLo0fomMjFwxb968cJlPCIhcru6K87K8rIobJu3bt9d79uxJGXOstX6Frw8i4rwA+A+PASai+4noASLqv2/fvhPjxo3TDRs2lPXWslyB+YZSak+5cuXmzpo1K0LmE/zmXqXUdu5ikuVkVd27d9e//PJL6gSQN4moKoIxWAK3nrXWpVxdHK3OnTt3YN68edS+fXsKDw+XddlyXMH5ilLqt/Lly89esWIFgrN/vamUOmqX7op+/fqlDm+7xg/DiagMZuSBZWmtsxJRASIqTEQVb9y4sXLz5s03x44dqx999FGdM2dOWccthcc2K6USatSo0VfmDUwxjUfGyHKwGl7F7ZVXXtFnzpxJ2U3aMIyxRFSEB1rIDAFYlusBYRjf0nGQNgxjErcuvv/+e3rjjTeoZcuW2qqr1rlazt/LPIHP8D56G60+/rhmzZp66tSp+q+//uJAzHhadF4i4vQD2BsPmucJHK7+6Ipa6yWGYVw6cuQIbw6phwwZops1a6YjIiLkteF3ri6N1D7n913TfME3ePLE71btruC1YF544QW9f//+lP/Pu0gTUVeutxhNAUHDFaibGIaxgy+CQ4cOXVu8ePG1V1555UazZs2MAgUKBPwCVkqdLlCgQIfY2NhscXFxWWUe4I54gahnrThdmhsCMTExtHr1am4N81ZMVw3D+JyIeIo3ALi6PvIRUSfDML4xDOPMiRMn/ly5cuWfo0ePvty2bVujXLlyqa1ZvwZsDipKqZkNGzbMO378eAynuzNuXfKohOXyXAZS/vz5qVevXqmBOMkwjLOGYazEvngAHtBah/LaHLywi2EYx/h14MCB41988cUfb731VtLTTz9946GHHqKCBQvKa9DnXDMEVyilStepU6fYhx9+WIAfdMo0B7OKFSvyspQPKKV2yPMXCHXr1tUvvfQSrV+/nlvCCa46tF1r3VCmHQAygfupXS1qXuVukGEYqwzD2MdTXC9fvnzgwIEDv65Zs+bYrFmzzo0YMeJqz549k3ktD25lh4WF+ayF7ep73hwZGdn6pZdeun/jxo0lsJ6zKqmUet3fdzKpcuXKlTLi5/XXX6e4uDheg+KMYRi/Gobxs2EY84ionEwwAJjMNQORA/bLvOWOYRjrDcPYYhjGVn6dPXt2265du3auWrVq34wZM+KHDx/+Z8+ePa82bdo0uUKFCuTpQ0dXdwq3oHeFhYW1a9GiRfV///vfPHQqaB4QxcTEhLpax3v9GZDLlCmTMqHj3//+d/Lu3bt5R2gOvtwK3mYYxjoi6oklMwEsztXS5hkuPPmFF/wfaRjGfMMwVmutv+MgfunSpe8PHDiwY926dcfmzp2b9Oabb94YMGCA0aFDB6pfvz6VKFHiv33brhcH59TXdaXUfKXUw/fdd1+1F198sdC+ffscO5KjbNmyPFSsi1LqggyavlStWrWUyUnDhw+nZcuW3Tx79uxJwzA2u350uex4uvN9uFsBcCBXP3Y5IupuGMa7hmF8wg+EXF0lqa/Vf/zxx7qdO3duW7NmzeE5c+b8+cYbb1zr379/SvBu0KDBjVKlSu3Lnj37OKVUO6VU7Ro1apQZNGhQniVLljhlned7lFJPKaWSvG0h33vvvZoXverSpUvKUMlp06YZ33zzzZVjx45xH/CProe//ISOz/1SnurP3VgyQQAQpETf9lM8ycAwjFmGYSx2jcf+1BXMF124cGH+77//PmnHjh39v/3226hPPvnk3lmzZhWZNGlSic2bN/MTSts9LORx3A899FDfqKioc1FRUUZUVBSl92rdujV1796dBg0aRK+99lry5MmTb8yfP//i2rVrT+zYsWP7mTNnONjyD94y1zlLfS02DGMGEfV2jXHnqaFB0yUEAD7EwcM1/ZxnN+YnopK8cS0RVXEt6PQATx7jPduIqC53p8jvsDpX331vwzDeMwxjttZ67u1ehmHMcf1oTXctAj+Qx6nzcDQi4o587M4BAIHFQVtrzfPObdmdwetA2DXtAAAAAAAAAAAAAAAAAAAAAAAAAAAAAAAAAAAAAAAAAAAAAAAAAAAAAAAAAAAAAAAAAAAAAAAAAAAAAAAAAAAAAAAAAAAAAAAAABkbqJR61/V6x/VK/f+BfE0Sr4z+O154ufOS9cvsV3rHlGnKbPrkZzP7kt/ri1dqDPnvKz4+vroMOpCBHj16FFVKJSilyPUy0rxS/xteeOGFl7uvtDEk5XX06NGFRBQh4w+ko2vXrjU1AICJ4uPjE4monow/kI7OnTsXlycQAMCXjh07dpWInpDxB9LRt2/fu/mWQ55EAABfiY+Pv0hELWX8gYwhKAOAaY4dO3ZKa11NBh7IGIIyAJgmPj7+oNa6kAw8kL4QBGUAMFN8fPw+rXVOGXwgHdynLE8gAIAvxcfH79Fah8r4A+mIjo7OJk8gAIAvcVAmouwy/kA60FIGALMdPXp0t9Y6m4w/kL4QeQIBAHzp2LFju7TWPPwW3CFPIACAL7mCclYZeyAD8gQCAPgSui88JE8gAIAvYfSFh+QJBADwpfj4+L1EFCZjD2RAnkAAAF/ioKy1ziFjD2RAnkAAAF9CS9kDsbGxWeQJBADwJbSUPRAdHX2XPIEAAL6EoOyBqKiorPIEAgD4kqv7IlzGH0gHWsoAYDa0lD2DadYAYCoEZc9gPWUAMBW6LzzAoy8QlAHATMeOHdtPRBEy/kA6OnbsyGMHEZQBwDS8HRQRFZTxB9LRo0ePogjKAGCm+Pj4E0RUWcYfSEeXLl2qIygDgJni4+P/JKJGMv5AOjp37lwGQRkAzHTs2LHTWuuaMv5AOmbOnHn3iBEjbsbGxmq88MILLzNef/31Fy9yj92s3aW1jjYM44xhGPxr9hYRPUhEDxBRdf51I6JaRFSPiBporRvybYjWujERNSWi5lrrZkT0cDqvpvw319/5vfzi/94k9eX6nigiesj1vQ1TX6501He9+Pjylfq39F782QaprzTf2cikF6c/JQ/evNLmP6OX/Ix4pabjdi8+3ykvPv9pX2nLJm05mvCSdcWt46SpT82J6BHxepSIWtzh1fIOr9T38XfxK+33p9R1UZ//9kr7ntT/7c7nPHzd7pyl/i1tWd5yzaUpb1k3UutR6rUjr8G6rpe8/upwvOB+Y3654gafv2eIqB8R8R05uIt3BNBaF3K9cmqteZEinlSS9sX/Le2LZwL6+iWPYaeXVfIgz6mTX7xEgD9f8vhOfMn65MmL5zykxhSOGXzOQrG4PQAAAACA1fwfoST12I5nxhQAAAAASUVORK5CYII=;" vertex="1" parent="wo_QYc2rkXZs_NssMeJh-51">
          <mxGeometry x="48.52530612244899" y="35.00142857142857" width="47.9487432867884" height="65.94307196562835" as="geometry" />
        </mxCell>
        <mxCell id="wo_QYc2rkXZs_NssMeJh-52" value="&lt;h1&gt;&lt;font face=&quot;Helvetica&quot;&gt;Flame&lt;/font&gt;&lt;/h1&gt;" style="text;strokeColor=none;fillColor=none;html=1;align=center;verticalAlign=middle;whiteSpace=wrap;rounded=0;fontSize=16;fontFamily=Architects Daughter;fontSource=https%3A%2F%2Ffonts.googleapis.com%2Fcss%3Ffamily%3DArchitects%2BDaughter;" vertex="1" parent="1">
          <mxGeometry x="-840" y="-290" width="60" height="30" as="geometry" />
        </mxCell>
        <mxCell id="wo_QYc2rkXZs_NssMeJh-53" value="&lt;div style=&quot;text-align: left;&quot;&gt;&lt;span style=&quot;font-family: Helvetica; background-color: transparent; color: light-dark(rgb(0, 0, 0), rgb(255, 255, 255));&quot;&gt;&lt;a href=&quot;https://unece.org/sites/default/files/2021-09/GHS_Rev9E_0.pdf&quot;&gt;1.4.10.3 Globally Harmonized System of Classification and Labelling of Chemicals (GHS)&lt;/a&gt;&lt;/span&gt;&lt;/div&gt;&lt;span style=&quot;color: rgb(17, 17, 17);&quot;&gt;&lt;div style=&quot;text-align: left;&quot;&gt;&lt;span style=&quot;font-family: Helvetica; background-color: transparent;&quot;&gt;&lt;a href=&quot;https://unece.org/sites/default/files/2021-09/GHS_Rev9E_0.pdf&quot;&gt;© United Nations, 2021&lt;/a&gt;&lt;/span&gt;&lt;/div&gt;&lt;/span&gt;" style="text;strokeColor=none;fillColor=none;html=1;align=center;verticalAlign=middle;whiteSpace=wrap;rounded=0;fontSize=16;fontFamily=Architects Daughter;fontSource=https%3A%2F%2Ffonts.googleapis.com%2Fcss%3Ffamily%3DArchitects%2BDaughter;" vertex="1" parent="1">
          <mxGeometry x="-869" y="54" width="640" height="30" as="geometry" />
        </mxCell>
        <mxCell id="wo_QYc2rkXZs_NssMeJh-54" value="" style="group" vertex="1" connectable="0" parent="1">
          <mxGeometry x="-440.45" y="-264" width="288" height="273" as="geometry" />
        </mxCell>
        <mxCell id="wo_QYc2rkXZs_NssMeJh-55" value="" style="rhombus;whiteSpace=wrap;html=1;hachureGap=4;fontFamily=Architects Daughter;fontSource=https%3A%2F%2Ffonts.googleapis.com%2Fcss%3Ffamily%3DArchitects%2BDaughter;rounded=0;strokeColor=light-dark(#000000,#EDEDED);strokeWidth=10;fillColor=none;" vertex="1" parent="wo_QYc2rkXZs_NssMeJh-54">
          <mxGeometry x="67" y="47.5" width="146" height="141" as="geometry" />
        </mxCell>
        <mxCell id="wo_QYc2rkXZs_NssMeJh-56" value="" style="shape=image;verticalLabelPosition=bottom;labelBackgroundColor=default;verticalAlign=top;aspect=fixed;imageAspect=0;image=data:image/png,iVBORw0KGgoAAAANSUhEUgAAAWUAAAHrCAYAAAAXP4wTAAAAAXNSR0IArs4c6QAAAARnQU1BAACxjwv8YQUAAAAJcEhZcwAADsMAAA7DAcdvqGQAAFu6SURBVHhe7Z0LnE3l+sffkTDGuI7cLyG5534JDVG5FQeDhDmEE3KUSuU2paRcCqdcSohcEo6US3U0IZQ7kSKGMGRE436Z9bz/zzNnz/lPz97D3jN77b3W2r/v5/P9dI6Z2et913rXs9/1rvd9XqUAAAAAAAAAAAAAAAAAAAAAAAAAAAAAIU50dHQurXVZ+e8AAACCQ9Pjx4/P1lpnlz8AAAAQQOrUqXOnUmrh+vXrbxBRKflzAAAAgaWEUuri/PnzNRG1lj8EAAAQWN5QSunXXnuNg/IL8ocAAAACRwWl1DUOyr1799aGYbwrfwEAAEDgeEkpRRyUa9euzUF5jvwFAAAAgaGoUmonB2Q2R44cHJTna63D5C8CAAAwn4eUUtfTgjL7448/fqu1zi9/EQAAgPlsShu6SHPBggVntdaV5C8CAAAwl0YyILPPPfecQUS15C8DAAAwl49lQGYfeughnhbXUP4yAAAA86itlEqUAZmNjIzkl30fyD8AAABgHp2UUikyIKe5Y8eOC/IPAAAAmMevMhCnd8qUKTzWDAAAIACEK6UMGYjT26VLFx5Xvl/+IQAAAP+z0dOsi/QWKlSIx5VXyD8EAADgX3il3gkZhD156NChDfKPAQAA+Je/K6VuyADsyRkzZvxERCXlBwAAAPAfo283dJFm+/btU7TWHeQHAAAA8A+8u8hRGXwzMiIiQqekpDwpPwQAAIB/KC0D7+385ptv1ssPAQAA4B8WyaB7O115MHgKHQAAAH8RExNzx+3mJnuyWrVqPF+5u/w8AAAAWaOyDLjempCQcBhJ7wEAwL+8KIOtt06cOPEsEVWUHwgAACDzTJPB1lsbNGiQQkSD5AcCAADIBK1atcqplFoig60vJiYmztZaZ5OfDQAAwEfCw8NLKKWOyEDri1OnTj2tteZ5zgAAALLIvZmZeZHepk2bEhHVlR8MAADAdx72dmn1rTx9+vQq+cEAAAB8Z6kMsJnxnXfe4YUkkfLDAQAA+MZFGWAzY7169XghST/54QAAAHwjy0MXaR46dOhDrTWvDgQAAJAJeNGHW3DNrHFxcb8RUSl5EAAAAN4xXAbWrFihQgUeV24oDwIAAMA7lsvAmlV/+OGHHfIgAAAAvGOtDKpZ9emnn+YdSQrIAwEAALg1nNntSxlUsyrvSHLt2rXZ8mAAAABuwf33389zijfJoOoPZ8+evVFrnUceEwAAQAaULl26ii978vligwYN+IVfK3lMAAAAGXDHHXc8qJS6KgOqv9y9ezeGMAAAwAda+3PhiHTQoEG8wi9CHhQAAIBnTA3K+fLl05cvX54rDwoAAMAzHJTdgqk/nTlzZgKmxwEAgHe0kUHU31auXPkmkhQBAIB3PCqDqBlu2bLlQ3lgAAAA7sTKAGqGPXr04BV+UfLgAAAA/spbMoCaYfbs2XVSUtIYeXAAAAB/ZaMMoGY5fvz4m1rrorIAAAAA/p8kGTzNsmTJkkZKSsrfZQEAAAD8Pzdk8DRR+vTTT5drrXPJQgAAAPgvhofgaZoNGzY8Q0RlZCEAAAD8l4AGZe4t79q1a5YsBAAAgP9i2hLrjOzevXsKEXEiJAAAAIKAB2U2MTFxFna8BgAAd4ISlIcNG5ZIRNVkYQAAINQJSlCOjIykCxcuvCwLAwAAoU5QgjL7+uuvH9da8x6BAAAAXLgFy0BZoEABunLlyvuyQAAAEMq4BctAOmXKlENEVFIWCgAAQhW3QBlIixcvfjMlJaW7LBQAAIQqboEy0M6ZM2evLBQAAIQqbkEy0FasWNEgooKyYAAAEIq4BclguHTp0nOYiQEAAB4CZDCsW7fuDa11jCwcAACEGkGbpyz96quvZmLpNQAg1LFMUG7evDknKqosCwgAAKGEZYIyu23btq+11tlkIQEAIFSwVFDu0KGD1lrXlIUEAIBQwVJBOSwsTO/Zs+dzrXVuWVAAAAgFLBWU2a5du57VWteRBQUAgFDAckE5W7Zs+pdffnlbFhQAAEIBywVltnfv3jwTo6osLAAAOB1LBuXs2bPrkydPvodVfgCAUMOSQZkdOHDgMSKqIgsMAABOxrJBOUeOHMbJkycnyQIDAICTsWxQZv/5z3+eQAY5AEAoYemgHB4ern///feZ6cqLMWYAgKOxdFBmhw0blkxEjVzlRVAGADgaywflPHnyGOfPnx8mCw4AAE7E8kGZHTFixGEiyikLDwAATsMWQTlPnjx08eLF6bLwAADgNGwRlNkxY8ZcJKIisgIAAOAkbBOU8+fPry9evPiWrAAAADgJ2wRl9o033vhRa13UVXbMxAAAOA5bBeWoqKiUS5cu1ZaVAAAAp2CroMzlfeutty7JSgAAbEh0dHT2/v37546Li8s9c+bM3AcPHsyJ/eBsF5R1kSJFNBF1lxUBANiPwUqpa0opQyl1WSn173z58jXv0aPHXQsWLIjSWueQf+Bw7pABzy5OnTp1IxGFywoBAOzFG/LmTuf53Llz94+NjS37008/FZJ/6ETKlCmTy8N5sIUlS5bkJPhdZZ0AADaibt26fBNzL9ntJk8n/3zZo48+WnXz5s0l5Gc4iQIFCuTzUH/b+P7776/H8BMANmbgwIEPcI9Y3twZSGFhYav69evX4PTp005dsMBfOrLetrFMmTL6xo0baYmKAAB2Y86cOfy4/oO8uW9nVFTUu//5z3+cOA2ruqyr3Zw7d26C1jpKVgwAYB++kTe2lx4YN25cM4e9XHrUQz1t5b333nuNiHrLigEAbMIdd9wxVd7YPnhi0KBBg7TW2eXn2pTRHupoOxcsWPC5rBgAwCaUL1+exyDdbmwfvNmvX7++RFRSfrYNWeGhfrazUqVKRETc63cCRdetW9eGiCLlDwBwJP3797/TDwsmro0ePfo9B/SYd3momy2dN2/eUSKKkBW0Ic8ULFjwUFJSUn/5AwCczO2mxXljyqJFi4ZrrfnloV35xUO9bGnFihV5ld/fZAXtxJIlS+7gGT/caWjfvv0RIrpH/g4ATuW0vKkzY65cuVJ+/fXXWK01r4yzIwdlnezs/PnzN2qtee61LZk0aRK/RE57EU1Lly5dpLVGJjwQEnwqb+jM2qBBg5+JqL48gE1wVFCuUKHCDSLqIStpFwYPHpxXKbUxrT7FihUzLly40F7+HgBO5B/yhs6KY8eOXUdEd8mDWJm4uDheCXdI1sXuzp8/f49d9/Jr164dz7femq4+NGjQoJ1a6wLydwFwGg/Kmzkr5syZUx8+fPhVOw1jREdH51FKHZF1sbuuseXnZH3tQJUqVSoopX5NX5877rjD2Lt371z5uwA4jXryZs6qLVq0SCSiavJAVqVGjRp3K6VOyno4waVLl/5gtycXJjIykqdrJsv6REdH8wIZW7/EBOB21JEN3w/SF1988aU8kFWJiIhoppT600M9bG+tWrV4g9Wmss42oAXP6pH1YZcvX77cIVP+APCIGUFZ161b9zoR8dCIHXhCKXVd1sEh0urVq7fLCtuAhzKaQ1+5cuVkImog/wAAp8DJhTw2/qy6YsWKL22STvIps86BFWzUqBHnW35EVtridJD1SO/s2bN/lH8AgFMwLShHR0dfJqLH5AEtyCCzzoFV3Lhx43pZaYszXtYhvSVKlDCIqJv8IwCcAA9fmBWQaP/+/e/KA1qQIR7K7igfffRRHltuLStuYX6SdZBOmDCBX2LacsofALfClDHlNPv06cP7AFqdybLcDpQOHjz4jKy4heF2I+vwF/Pnz5+SnJxs2wUyAGQEvzBxa/D+Mjw8XF+6dGmRPKjF+Mt8WKc6cODAG7LiFsabpzcaMWJEkvxDAOwOb08vG7tfff/995MtnkXOmwDgCJOSkqbIylsQfjnsVnZP5s+fX1++fBlZ5ICjWCcbur9t2LAhv/0fLA9sETjJjVuZneprr712xQZzfMvIct/KyZMnX7R5hkIA/oLHCfr+9tChQzMsuvS6uCyrk+XEPikpKS/Lk2AxeIqiW9kzsly5clynF+SHAGBH+M11QB7dx4wZc5WICssCWIBRsqxO97PPPvtYa80bHFiVtbLMt9MGdQLAK9rIxm2W9957LyfHaScLYAGOyrI63Xbt2t3QWpeVJ8JC7JNlvp1t2rThITLOYQKAreFNNt0auFnu37//nAUTlfOMBLeyOtmwsDCdmJj4rDwRFmK/LPPt5DodOXJkpPwgAGxDdHQ0z4bYLBu3mb711lvcW+aUjJagTp06/Lh7U5YzFBw1atRNrXV+eU6CTUxMTA6l1M+yvN44atQoXuVnu4x4AKSSL1++coFO7N64cWNtGMYYWZYgUiNQLzqtZqlSpfgLspc8IcGmTJkyPKzymyyvN5YrV47rxEvmAbAlvA19QB/d+RHz/PnzvNeaVZIUDQ3Ui04rumHDhi8tOD2OEyddkGX11vXr139NRJHyQwGwA32CEZAWL17M+QqsMgtjYjDOgVUcMGDAaSKqIk9KkPl7Vp5e+vXrd46IqssPBcAOLJANOhD26dPnita6pixMoOnfvz+PJ8+X5QslCxcuzI/7VsuHwavzMv1F6arT8/JDAbAD52SDDoTFixfXWmvuDQWVihUr8sacjtrBOjN++eWX/FLNSmQ5jeo333xzWH4oAFYnPKsNPyv+9NNPP8gCBYFSWXlMdop9+/YlK82IUUqNlWX01aefftpqdQLgtnBycLfGHCinTJlCFshVUFeWKxTlx33DMCbJkxNEvpVl9NVixYpxnfh9AQC2IV425ED6t7/9jcf9BspCBZgPZblC1e3bt2+10BJlv2xg+8MPP3yvteY5zwDYgmOyEQfSQoUKcU8m2Ltdn5flClVfffVVnoXBTw5WwJDly4zDhw9PIqKG8sMBsBzt2rXLrZRKlI040O7evXuP1rqALF+A4HMQtDF1q1mvXj3OG9FFnqQgwL11v1yX+vXrYw8/YA8KFCjQOCuT8/3l1KlTeZv4B2X5AgS/4XcrUyh74cIFK4wrc3twK1tmTU5OXiIPAIAVGWCFWQedO3fml30xsnABYqEsT6i7evXq0/IkBYE1slxZ8bPPPuPOBwCWh5OB++URMStGRUXxyz7eRTqgNGzYkKcDfiXLE+q+9NJL/CUZrOGkNPzyki/NoUOH8tQ4q6weBcAjnDaTpwq5NeBgmJCQsE0WMADwCy2/3vxOsEmTJvzydbY8WQHmqixXVqxbty7XiVdtAmBNXKkqfU4gbpYLFy4Mxu7K0VZ4UrCihmGclCcrUBQqVIiTCF2TZcqqycnJx+WxALASvP1T0MeT0+zXrx8/MvNMiEDyb1kO+F/37NmTFMR9FPkln99zW69du5brFOxhGQAyhFfRuTXcYMlbRBmG8a4spMn4ZR6sE124cOEFIqomT1iAGG3GE8y4ceOuE1FPeTAArEJT2WiD7enTp3nOdKDglz5uZYD/ddiwYTeJ6B/ypAWIN80Iyn/729/4ZZ/Vd+8GIcwm2WiD7eLFi38noryyoCYxXR4f/r/t2rXjADZCnrQAwC+gp8jy+MOSJUtabbcbAP6C33siWfWpp566RkSPy4KaAN/4u+Xx4f/r2nGchxECSoUKFfhLeassj788d+7cKq0170kJgHUoUqQIb/vj1mCDbbVq1QL1eFlSKcV5dt3KAP9r7ty5U8f4g7BdVzEztyZbtWrVxSC8UAbgtrSRjdUqnjlzJhCBINZKM0+s6pkzZzi7WqDTqnJua9Oe4iZNmsQbK+SRBwUg2HBuA7cGawUXL158lIh4up6ZvCOPC93dvn37hSAEsFayHP60f//+PCxTRh4UgGAzQzZWqzho0CAewjBzV2XOq3tRHhe6u2rVKs6uFujdoNfKcvjT5s2bWyF/NwD/j2uTUMsm4alYsSLfNDxdzyx4nqrbcaG78+fP52sR6KDs90Uj6S1RooROSUmxwhZkAPyXRo0a3aWU2iMbq5VMTEz8WpbbH7iWlv8ujwc9++677wY6KJc1czyZDQsL0xcvXrwsDwxA0MiRI0dFfyd78bcffvhhiknTlhpZve5WcuzYsfxSLJ88iSbyoiyDGe7bt48DPwCWobLZvZGs+vjjj3MPrbksuB8YbvW6W8mXX36Zg3JReRJNgueOcyJ6t3L42zVr1nC9sGcfsAwc7NwaqpXMmzev33cgrlChAs/oQAIiH3z++ef5y/FeeS7NoFKlSoWUUptlGcxwxowZXC9+YgTAElgmh/Kt/Oqrr1b7eToWZwf7Qx4HZuzQoUM5ePGWYYGgVqByW8fFxXG9essCABAsDspGakUHDhx4RmtdThY+C/BefBi68EFXUOaFRoGgRaCuz6BBg/z+JAZAVjBtCas/LVasGM9X5hvVXyTIY8BbO2TIEA7K7eSJNIll8vhm2alTJw7KM2UBAAgWbo3Uqm7cuHG9LHwm6S4/G97eYcOGmfXCVcIv+a7I45tldHQ0B+UPZCEACAaWSmx/OwcMGHDTDztF8A3/ofxseHtfe+01Dso15Ak1AU5CFZChC7ZatWoIysAylJYN1Mrmz59fX7lyZaqshC/kzJmzglLqqPxseHvffvttDsqcUc9sNshjm2mpUqVSN4bVWvMXNgBBpb1soFZ37ty5O4iIVyFmlibICJc5eeqYH55UbgfP7jgrj22mefLk4aC8wKQFSsAiVChYsOAX3377baDeVGcWW0yHS2/Dhg058f1DsiI+8Iv8TOidS5Ys4Z6y2TvBcC6SgO+VaBjGCiIKl4UBDqFMmTJ/dy3fPTt16tT75M8txGeycdpA2rFjR7ysiJdUDcYN7xTj4+MDkfvimDxuILx8+XK81jq/LAxwCE2bNuUNJjm7Fb+suPT000+3lL9jEUxNi2iWsbGxKZlM57lOfhb03r179/K0RDODcvFAvuBL7/nz5/cEcAk5CDS9evVqnS7RDTeylJiYmKfk71mAL2XjtItHjx7lzHZec+edd1ZXSh2XnwO999SpU2bnUz4jjxkoz5w5c1RrzS++gRMZMmQIPwadkxe+adOm32qtOV1k0Bk8eDDnfvhWltEu9urVK8nH6Vm95GdA30xJSfnTz0vd08PLnIO2kOnEiRO8c3p5WSjgLJLkhedec7169d47f/580Meu2rZtW0Ip9aOHMtrGXbt2vSrrdQuCMlbpFO+++24OypvM2JorJibmDqUUr6hzO26gTExM/IOIeLokcDCn5IVP84EHHtj+559/mj216JY0b968jt0TvNerV48fp3kc8nZwD8jt76H3ula9vWPSJraVgjWWnCaCcmhwy15o27Zt5wVhZ+D/cd999/Fy2YAtZTXLiRMnHrtV4nXXdlc/yb+DvtmjRw+eeTFKnt+s0rBhQ56GFvQ8JL///jsPh2H4wuHcbt876tmzZ0+TX5xkSI0aNR5xwiKKXLly0YEDB57TWvMjsCf4iSBZ/h30zREjRvDMi5Hy5GYRXkHXQR4rGJ4/fz6RiO6WBQTOYrC88J4cNWrUP2/V0zOL6tWr8wyRoD4y+svatWvzdCZ+BPbEaKfUM5jOnj2btNYvyZObRQoHekl1RqakpBwholKygMBZ8P5vbhffg5c//vjj5+Ufm021atV4taFjglW3bt1meVh+zctmsbuIH9y4ceMNIuojzm9W4GElDvJBb4PZsmXjoLwX85SdDwcItwaQgTc3bNjQLpBr750WlNlhw4aNJSLeRigNTp5zTf4e9N2zZ89eIqIG6c5tpomOjuZ2zsMWlmh/UVFRHJQ3BCCvBwgy3BNwawAZWahQoaSTJ082lR9iFk4MyhyAe/fu/RoR3dOmTRvu9bzl4Xegj3J2PsMw/vDjMBsnHQr6y700K1SowPX7IpOrRIHNcGsAt5CaNWv2DRFxfgbTadCggRODcqp169ZdoJSa4tT6BdpGjRpx0OJ59/6AF/xYaiVpw4YNuX5LsKN1aODWAG4jjR07dmkgXjg89NBD/KIPyXngbe3Tpw8HrdOyDWWCaq4xfkt9WbZv357rt8gqq22Bubg1AC+kjRs3jjV7DnPnzp05/WXQlrVC+zh+/HgOWjtkG/KRKkqpFVadhomecujgdvG9sWzZsqcuXrzYRX6YP+nbt29DpdQf8tgQSj///HNeODJUtiEv4RWAXV1pYi3VQ07vhQsX1gZrzQAILG4X31t79eq1W2vNCx9M4bnnniuDlW7QGw8dOsRBuYhsQ17APU8e2z8gP9Nqnjx5ElPiQgS3i++DtHz58o/M2ulh0qRJvLzVEhP3obU1DIOHuXyFn8Tmu4bILNtDTvPQoUNnsMw6NHC7+L6YP3/+c6dOnTJlGMO1SeRX8pgQprd69eoclHm2hLfcq5Saq5T6wU4vknft2nWViCrLygDn4XbxfbV169Y/iwUR/sSWO4/AwNm5c2ceunhGNhxJzpw5yymlliulvldKXbdD7zi933//Pe9mE5DpqCC4uF38zDhr1qzFJq324x6N2/EgTHPUqFEcrLrJhpOOsq5ttnh2hiVnVnjjhg0bOOEST9mzEr3feOONZZkczwcZ4HbxM2NkZOSV48ePd5Qf7gd452C340GY5oIFC25cvHjxcdFuuIPQWSn1nVJqv2uYwlY9Y2l8fLzVgjLf7yeLFy9+3TCM926RBRH4iNvFz6TUvHnzk/LDs0qVKlV4TzJ5LAj/Z9myZTnYblNK8ZQ4frLa55pNwYtJbDNmfDstFpR51lVi2hfd4sWLk82ciRVquF38LEjTpk3bKw+QFVzb8MjjQCjlndk5JzVvBsyBIk35e7Z1/fr1PHZuhaCcWyn1Sfrz26hRI06bGiN/EWQOt4ufFXPnzm0cPXrU32k+HXVzQZgZLTSmzENFbittt27dylu3AT/gdvGzKEVHR/NeYv6cjYFVfTDk3bZtmxWCMr805acSt/L16NGDy4csdn7A7eT6w7feeotXH/lrA0tONO52DAhDyR9//JE34Q3mlDgOuBku5sqePbs+deoUv1gFWcTt5PrL77//fow/AnOBAgW4d+D2+RCGkgkJCbyzCidNCha8q4tbudL7yiuvHNVa83xwkAXcTqy/LFGixOnk5OQs7wTRrl073tvOtvNLIfSHSUlJl26xz6PZVPDm3U7VqlV5CKOf/GPgG24n1p926NCBB8J488lMM2XKFN4yyTK7QEAYDFNSUk4HqRfK74eOyPJk5L59+3jVJMgCbifV377//vvztNZ55IG9JT4+nhcCzJOfC2GomDdvXg7KPxJRMXl/BIBx3vSS0xwxYgSPfSPFaBbw+mRn1ty5c188ePDgk/LAvlCmTJkJ8nMhDBXLli3LSZfWZqVzk0nq+7oAp1KlSjyfepD8IOA9pgdltmrVqgnXr1+/Tx7cW/r27dtOfiaEoWKDBg04KH8cyKXMuXLl4i3f/pRl8cbdu3cnBbKsTiMgQZl96qmnNhIRjw/7zJIlS/gCB6ysEFrJjh07clCeJe8Ls4iOjuYhwzcze8+NHDnykgXmVNuWTJ30THpzxowZEzL7DRoeHr7ew2dC6HiffvppDsrvy3vCRPip9hdZDm+tUKECz8IYLj8UeEcggzL7R3x8fG9ZCG/o0qUL7xQR6PJCGHTHjRvHQfkdeU+YQb58+fIrpRbKMvjq3r17eaNX7L6dCQIe5AoUKHD+119/bSELcjuWLFnC+6lx5i+3z4TQyS5cuJBfnmXpZbk3uBKAPSWPnxmnTJlyVmudTx4D3J6AB2W2XLlyWxMTE3ljVK/h1YE5cuTgqXFBKTOEwfL777/noHyPvCdMgI9xUB4/M3bp0oUzxwVrsYutCVaAo/vuu2/hn3/+ySuFvKZz586c9J638pGfB6FjTUriyQwBGQpYII+dWYsWLRqwIRenEaygnGqzZs2WEBFvZOkVS5Ys4aT3SfJzIHSqERER3Evm/202vM+hT3OSb+ehQ4c4wyPwEb9ehEx4s1WrVmsuX75cQhYsIwoXLvy5h8+B0JE2atSIV/Px06GZ8CIR3jnI7fhZce7cuTwLA/v3+YhbsuogSDVq1Fh1/PjxB2XhPBEXF1c72D18CAPlgAEDOCj/IO8DP/MfMzpo/fv3517+QHkwcGsuyhMZJI2iRYvu3rlz5/2ygBmwysNnQOg4Z8yYwYGNN4E1i/fM6pxVrVqVx5U/kAcEt8bvjyxZkMLDw39csWLFP7XWYbKg6encuXNf9JZhKOiaeeHPnXzS08XsjllSUtInWmteIQi8ZLc8iRbw9JgxYzgzVYbEx8fzVBuk84SO9+LFize01rxZqb/hTG48/c3Uzs1//vMfzm7n9TsjoNQX8iRaxOTHH398bkaNkb95q1atyuNg8u8gdIz169fn8eTvtNa8cMqf8JPoj2aMI0vfe++9q0SU6WRkocgMeRIt5NXatWtvzWgoY9myZXe5tpSXfwehI3zmmWd4THZsRvdAJuHPmmJ2DznNZ599lheR1JGFABkzSp5Ei5ly5513Jrz66quPyIIz5cuXb46tojJnsWLFUpX/Dq3j4sWLeUrZy7LdZ5GWgezMPProo7zwhY8JvGSAPIkWlL/Rr1asWHGV7DG48mEs9fA30AsnTZrk9m/QOp48eZI3S41N3+azSCNXQA5IL5mtXLky9/Zv+Y4I/JVegbxAWZTLeblr167N0lfg3nvvfcXD70IvPHjwIJUrV45XXZk+tgh9s0aNGjyezOurOWubP2jKWRrlcQJhSkoKv1AEXvKEjYJyelcOGDCgAL/w++ijjzp6+Dn0wo0bN17ZsGFDB6XUDvkzGFxffPFF7mHylFV/wC/MAzZkIU1ISLgpCwQyxq5BmcucnC9fvufHjh37UalSpeTPoRcuWrToHG9yOXTo0CZmLSCAmXPDhg3+WnjBc5yDmvJ2zZo1fL8CL7FrUIZ+cNy4cTwHNnUzzipVqnyFtmAN8+fPz4/8PGshl7xhfYS3X1siPz/Qvvvuu4HKcucIEJRD2EGDBvFqscrcEA4cOFA3Z86cQRlzhH/1iSee4KCcpaGL8PDw4kqpXfKzg2FcXBy3syqyjMADuXLl6o6gHLq2bduWb5bB3BZ4Zsvnn3/Ob8nRHoLsF198kdU97jjF7XL5ucFyyJAh3M7+KQsJPFCyZEkE5RCW3/Cn3yWZX5zOnz//W2wkEDwLFy7MveRrRPTYX+/W2+OaMlpTKfWJle7rXr16cTv7WJYXeKBmzZoxnNNYnkQYGpYsWZJvFt5i63/wFKy5c+fyOCQW5QTBwYMH8zU5TETl018XL3nIKkMW6eUFJIZhcFoEcDtatGjRyuwsUdC6cq/MMAy3LF5ElHfevHlzeV64/Btorj/88MNfnl684aGHHopQSrVXSp2yUg85zaZNm3Lvf6MsN/BAly5dqimlTsiTCENDfstvGMbXHIRl22CWLVvGweGK/DtojrVr106ddZGJBD5DlVJ/ys+zitWrV09NrCQLDTwwZMgQXi3E2aLcTiR0vrlz5+apStsz2rKHiIovXbr07WzZslmu9+VE58yZw1+SW+R1yIicOXPyxsP8Au2a/CwrycNkCMpeEhcXl00ptV2eRBg6Goax71b5bnke85w5c+ZjcYm5ul7wGUTEO7Z7A78I5N2nLf+FyZu/Iij7xlZ5EmHoaBjGASIqJRtFerTWpVeuXMnbxVs+ANjV0aNH87XYw08n8vynp3DhwkWVUi+6nnBtcz0QlH2DB+DdTiIMDQ3D+FVrXVY2CgkRFV6/fv2onDlzJsnPgFn3999/57m8feR5TwdPd+utlOLZMpfk31tdV7J+f+aFdjT8MsftJMLQ8MKFC8e9nX5FROFff/11n1y5crl9Dsy8rh2r92mtC8hz7qKGUmq6aws02/SO04ug7Bs8V9ntJMLQ8Pz5878TUUXZKDKCtyb68ssve2Aqpf88fPgwT7noJM+1UqqMUup93pbSzulV+YUygrIP5MyZkx9d3U4kDA0NwzhDRPfKdnE7vvrqq+cwjznrxsbGcsA6kZiYWDjd6eUddXhV3jeuF6y27B2nGRkZiTFlXyhZsmS4PIkwNCxQoAAH5RNExFOrfIJX/i1YsGCg/Ezom5wXonHjxr8rpXjWxZNKqc9cL/Ecs6KS2xmCsm/wI4XbiYTO9+677+agnOkt4DkX8/jx41+1e0/OAnKqg6OuhVyOCcZpRkVFIShnArcTCZ1vrVq1OCh/xcFVNghv4ZdTvXv35hvO7fMhZO+66y4E5Uxg25cIMPO2aNGCg/IirfUdskH4AhEVa9++/SH5+RCyxYsXR1DOBPvliYTOt1OnThyUP5KNITNcvHix6r333ot2BN2sWLEignIm6CdPJHS+/fr181tQ5ulOP//8cw1+0y6PA0PbBx54AEE5E9wvTyR0vsOGDeOERJyi02/Mnz+/tjwODG1jYmIQlH2ldOnSHJTxBj3EnDZtGveUJ8v2kBW4x9ypUydsKwX/p2vFIvIp+0LLli3rIm9u6PnNN99wvoVHZXvIKufOnctXokSJI/J4MDR99dVX+ct/rWwn4BYMHTqUs4TtkycTOtvjx4/z8EU+2R78wddff82bd1o28ToMnK4nsimyjYBbMHPmzDuVUivkyYTOlZMKMbIt+JNnnnnmeWzCCpcvX85PZLx/IPCRxfJkQudas2ZN7r3w/HTTuHLlSqkiRYrslMeGoeWmTZv4+z+PbB/g9vBbeLcTCp1ply5dOChzzgVT+fDDDwdhx/TQ9uDBg/zSF/hKhQoVnpEnEzrXkSNHclCeKduBGdSuXftrzMYIXVNSUvhLGfhKTEwMv5hxO6HQmX788cc8zsfJ001nw4YNnK/5uCwDdL6unaw5OT/IJOjNhIj79+8nTr8pG4AZ8Nzlxx57bIQsA3S+nTt39vtc+FDjvDyp0Hnmy5ePb5SzRJRXNgCzOHr0aDH0lkPPUaNG8RPZI7I9AO+ZI08qdJ6u7HCriCinbABm0r1792eRkTC0dA2T8eI0kBnKly/fSJ5U6DxfeuklDsrjAr1n2u7duyOwe3pouWPHDt5/kPOhgMzwxBNP8CMmxpUd7tKlS4mIRsvrHwgeeugh9JZDyGvXrp3RWleS7QB4ycyZM6OUUknyxEJneeLECe69/FNe/0CwatUqnomBPCshYJkyZXjmxbeBeqHsSA4ePMhjjEvlyYXOkfdLMwzjMhHVl9c/UJQuXfpNWS7oPDt06MBtbaHWOptsA8AHoqKi3pInFzpH1xSl80TEu5gHhfHjxxfFEIbznThxIre1GfL6Ax/p1KkT70LiuB114X+dMWMG3yh75XUPNDly5MBMH4e7efNmnnnxN3ntA0ZMTMwdUVFR3Xbv3n2X/JmdmDZtGpf/qjzB0Blyuk4ielhe90DTtWvXJ/Hl71yzZ8+ub9y4YVpqWK/goKyU+qVAgQLbt23bxrMY7EyiPMnQ/laoUIF7ySlaa07VGlS++OILHsI4LMsInaFrXz7+0g0653hKWcGCBfdu3769qfyhXYiKimotTzK0v7wtDy8akdc7GPAc6cKFC/8gywid4YsvvshBeb287sEgLVG8kSdPnmOBnpzvL/r37889KcxXdpj//ve/+XGyv7zewWLo0KE8Pc6tnND+fv755zxM1lBe84CTI0eOmHQFo3z58iVt3rw5aG+5s8jP8kRD+xoWFqYvXLhwk4i6ygsdLFydlmuyrND+nj9/3iCiQvKaB5z777+/uehh8lDGjzZ9+fecPNHQvjZp0oSHLn4hoiLyQgeTokWL9pRlhfb2vvvu46GLLVrr3PJ6B5wBAwbU87RZZIECBVL27dtXUP6+lalevXpfDGE4x7feeouD8lZ5nYNNv379ZEcG2twRI0aQYRivyWsdFN59913ehypeFpKNioo6+tNPP9kmMcfIkSPvU0qdlvWA9jQhIYHH+J6S1znYrFy5kpf2fy/LC+3r5s2beeiCn7Qtw79lIdOMioo6f/DgwcLyDyzMLlkHaD8rV67MveSbVn3xnDt37k9kmaE9veuuu3jo4iIRlZLXOWiEhYXNkgVNb8GCBQ8eOHCguPw7K1K2bNlxeLS0vzw9SWu9XV5fq9C2bdv0L8ihje3bty8H5RPyGgeVGjVqcJZ9t8KmNyoq6sv9+/dXlX9rQbhndV2WH9rLTZs2carOR+XFtRhY3ecAP/vsM34qGysvblBxrexzK6w0X758ydu3b69k1UfKdGySZYf2sVixYnyT/EFE/I7AyuyQZYf28+LFi5ZYMeqJC7KwnoyMjFy/bds2fvtsWcqUKdMBQxj29R//+AcH5TXBzArnDUWKFGkryw7t5aOPPspDFwfktbUKC2SBMzJv3ry/b9iwobHWOrv8ECvw4osv1lJKnZHlhvbwyy+/5KDM6VgtTWxsbFml1E1ZfmgfZ8+ezcNkw+W1tQoNfOld5sqVa9/q1at7yA+xAgkJCbmUUl/LMkPrGxkZyT0XngpXTV5Xq+HKTnhQ1gHaw4iICH358mWedcF5c6xHrVq1yviaxDt79uwXPvnkk65WfMwsX778CFleaH179OjBveSj8npakfj4eH5SnCvrAO1h//79U4cuiMiaU3779evHqTt/lwX3wt/ff//9Z+TnBZuxY8fy0lyve/7QGq5YsYJ7yUPl9bQq4eHhE9DO7Om2bdtSd0iX19QyzJw5k9d8fyEL7qXnx48fP1RrzcMGliEsLAx799nI8PBwffXq1etEVFJeS6sSHR3N85URlG1m9erVuZd8jYgsv/5iiiy8D14ZOnToq1rrHPJDg8XDDz98P24Y++jai+87IoqU19KqxMXF8a7HaGM2c8qUKdzWeNGctcmZM+eYLDawi08++eR7VhljXrBgAeco+NFDOaEF/fjjjzkpzGQbzIOXYCsym5mUlHSDiB6UF9Jy3H///W2yGJRZiomJeccKeUl5yl7+/PlneygjtKDJyckpRNRZXkcbgGEyG8kvk1NSUnZorXl7L1OpU6fOnVrrZvLfvWbIkCH8KObTDIwMvNS4ceMVSUlJQX8MffbZZ3mhiywftJitWrXix8nrWusC8hpanbx589aX9YHWdfv27dzWAvJEVrNmzYcMw1id1RWD/lrPT+XKlfvs4MGDvJAjaBw8eDBntmzZznooH7SQ06dP5xvlM3n97EB0dDRPjcvqEyYMgI0bN+ZeMi8Y4W29zCasevXqE1NSUs4QUU75Q1/wZ+rLlMjIyF3x8fEt5UECSefOnaM9lA1aRN726Y8//uCpcIG4UczihqwXtJ7Lli3jL/9X5cUzg1KlShWvVq3ajykpKclZ6pVHRETw+IdbZbLooUmTJvWSxwoUrhOC5DEWtVGjRnyjcO4VO4Ndri1uuXLl0vImB+rLv+p99913nYOy/IFP8MC0rIwf5Ee7UzExMcvk8QJFzZo1R+ER05q6tn2aKK+ZzXhd1gtay6lTp3I7m5PV8V1vCQsLe79GjRqU5aDswqzdeq/XrVt3YTBeAC5atKg8toqypgcO8EpX62375CNDZL2gdSxQoEBqik4iaicvnIlccG3IynugZplVslJ+9HqhQoWOL1myJJ88qJlorbPdc889SB5jMfmR0jCMRCK6V14zO1G4cOGn8SRmXV966aXU4BioXrJSqj23B1dQPi9/mBl4A0G3ivlRbrzJPXr06CQPbCazZ8/mPbhkWWAQHTx4MAflA1l6EWIBmjZtym35iqwfDL68fP/06dP8Ipnz4QSKNRzn6tWr55+gXKxYsUB86/PnU9GiRTctWbKEdz4JCEWLFj3soSwwSK5atYqD8mJ5nezGk08+yTc87/PmVkcYXMeMGcNtjDeHDhR3K6V+4WM3bdqUg3KS/AWf6dChQ8cAfutzcL7QoUOHQoF4tHjrrbd4TMkfC2RgFs2RIwcnICKtdR55nWwKvvAtZvHixTlnMi+p7ikvlonwqtTUTm3Lli05KB+Rv+AzU6ZMyauU4py2bpU0UYqMjHxv8uTJRczc0eTChQtRBQoU4F2S5fFhgOVVfFprv7wEsQi/yjrC4Dp37tzUXdH5nZK8WCbBCdm4Z5x6fN5uyjCMePlLmSW1+x0EjerVq7ffvn07JxMyhXHjxiEHrgWcPHkyj/O9IK+Pjdkr6wiDZ61atbiXepWI6soLZRIc+PulL4Mr8+F78hczC4/BuFU0QHLAXDFgwIDKZk2fi4qKSvBwXBhAf/nll5u2yNTlPe/LOsLguX79es46yMmiAkU5Xo+Rvgw9e/bkjsez8hczRa1atWrISgbBK5GRkc/FxcXVzOraccmkSZN46TU2vQySxYoV4x7EEbtPhRM8JOtpZfPnz+/2b06xffv2qS/YAthL5skK0+QTeN++fTkod5e/nBWs8oiflCtXricGDBgQ/euvv/JmlVmGiEoUKVLkZw/HggHwiSee4KC8VmsdsJk3ZlOlSpWCsp5WlmclyH9zgjwF7ujRo9y+3pHXyCS4DT/qKV7ylE8i4i9rv3FOHiSIcoW5Z/tWs2bN2n700UelZWF9Zd68eTz177qHY9lOvvjy36zsBx98wDfNQnlNbA7PtXa7Ma3qmTNnjIiICL7HbVNmb5w4cWLahqiByOnO1zzDHY5eeOEFDsr3yT/KCnzTuB3IAvKUtg/y5s3bJTY2tsXq1aszPbTRpEkT3o34sodj2EqmWbNmF/2YetVUDx06xI21h7weDsDjzWk1eazTMIy9VapU4Udu27f/NOvWrcsB+QIRdZMXxiSqKaU2ynKkOXr0aP8uWilYsCBvCul2IAvJNwDPDf2nUqp3q1atHuUpdbIet2L79u08N3qtXW4mT5YuXZpvsEsnTpyYUqhQoe/kz60mjycz/n5PYBFskcJz9+7dBhF1bdGiBWdM+03+3K7u3r2b74UvtNaBSOPQQCn16a1iB/fa/br+olWrVg/bpZG5TgzPrZ6slHo6IiJi0IMPPvjUiBEjHlyxYsUtZ3AMHTq0q4lJmEz3gQce4Ib4FW84unbtWt5pJVH+jpV0jSeflNfBIVh+Vd8jjzzCvcmDvPt8XFwcrwk4IH/HjrryW1zy9xhuBtRWSn0ryyCdNWsW/9d/jBkzht+M82oUt4NZXA7QLI8Xb1VKvamUevHuu+9+rlOnTs3i4uL+suP2oUOHGhUvXpwf/eXn2MLY2Fj+Nu6fVp9//OMfnLHMsjNL3nvvPe4lx6W/Bg5iiayv1fzqq694qti/0uUb2SN/x26WL19eX7p0iXv/I8X18Dd8znorpVbfqoec5vLly/l3/Ifr0f4beSAby4FqkytIv6KUelkpNYDHp+38wu+VV17h1Jf/m++rtc5RvHhxyw7JbNiwgYMyj8U5ER5Kc6uzVaxatWpaond+okrje/l7djM+Pp6/aHgvPLNX7nHM8DoF8Lp16/wblF04cadePlH8spC3hv/dNXRhyQDmjQsXLuQeQtP0F+3jjz/mm86SL3D++OMPXjTC+a2dCOeNcauzVfzwww956GhR+vH8sLAwzmjm9rt28Y033kjNxEZEDf96KfxKI6UUrwTmnEBex4odO3b4Pyg3aNCAx1vdDgat444dO5LlJHm+6Zo2bTrJlwYUCEuWLMlB4Sci8st8cwvCCa/c6m0FK1SowMGLvxB5Ydj/CAsLmyN/1y526NCB68RPiv1MnPM+Wim1PjOJzI4cOeL/oPzCCy/wSzK3g0HreOnSpT28GEZeu127dvG/rZO/H0xbt27NQfljv76RthYclC31RZjmJ598wuf+XVlgpRRvleb2+1a3YsWK+vz58zxsMdWk9lRZKfWhUorzIWfqmp4/f54nSpjCWXkwaA3Lli3LN9qqjBplv379YgOYhvW2Pv/88xkFBqdgyaB8//3383n/3dMjfunSpa0+9dVNXrW3f/9+rtM2Tx2SLMI5LPg9E/eOszTvPyUlhWOnKXD33e2AMPg+9thj3DCXywuWxm+//cZLf3+UfxcsOZWiYRhvy3I6hSJFilgyKO/YsYPP+zda69yyzA0aNLBCnhuf/PTTT9O+ZGrJ+mQBDsY873iz631Tlq5jVFQUB2WeWOB/qlWrxuOVbgeFwfeVV17hxsmrsjJk8ODB/NLP7W+D4ffff88zLwbLMjqFSpUqWS4o//3vf+c2wuOu/DjuRvv27fPLv7GyL7/8Mge7o0TURtYlE/BsDX5vtkEptdOf6zIqV67M553XTfif/v37V8pqNx6a42effcZBrrG8ZulxbRrwl5SCwTIhIcHvuQCsxP3338+BwjL3St68eXViYiKfcx7Gygiee+v2t1a0R48eaS/2OmY0ZOclvJHHRFcg5gU//EXq1y/TFi1a8HnnNQP+Z+HChbx02TKPwPD/PXbsGC8c+ctiGE906dKFN/b0a6PLjFevXuWGGi7L5xRatWrVwkpj+HPmzEkbtuDe8K0Ietu4nW3atOGAzF3+Tplcol9WKbXMtYLxEG9EJI/hT125lPvKQvgF14Ts2fKgMLhyPlxGXi9P7Nu3r0KwV2fmyZPH6/Lale7du9fxZXGBmT7++ONpOUYekeX0gKVXtPKu0LxizzCMST4EZB4/55Wu+5RSx13XhReJ+b1X7ElXhrg+slB+o0SJEvzG3O3AMHg2b96ce0HcyG4Lf7G2bds2qEuAeSms04PywIEDy1ghlwQ/OrsC8kAv5+/+ID/DKt5zzz2cZpTb+jEi4vPrCR6C4VWii5RSnFflD9dUNn5q4fnFpgdhqWu7M/OCco8ePTgjktuBYfDkHMq8tFReq4zYvHkzDxsEvHGm6ZqWxTeIYxkyZAgPEwQ1wNWvX18nJyfz/N0JXgZkhl9IuX2WFeQFIm3btuUXZ9ty5MjBWe24ThFKqb+5skTyilx+QcemBeCA9IZv5eLFi3nsm/NkmEpQKwn/Ki+ZJaJ68iLdiqZNm3LClqBcR765DMPgpOqOZfDgwfxozW/y3eofCGNiYujSpUs3DMPgsVNfeEZ+lgXldstT1YLS8/XVDRs2XOf0qPJE+xsel3E7OAyO27dv52/iUvIi3YoNGzYUVkr9GYxG/eSTT6ZO9pdlchJxcXH8/iUoqyjHjRvHvWNecv+kLJcX/GUXZph1Dx48eI6IeC9Q8yhRokRneWAYPA3DuEFEJeV1uh1NmjQZEYygzJtIaq15XNvpfC3rbqYdO3bUe/bsuc45qrXW/KIxM/AsAbfPhpn30qVLvDGwz/enT8TGxubKTFIO6H+rV6/OQZkn0HPP1ye2bt3KvWtTpwN5snfv3lzm92R5HEjAgvLu3bu5d/ybYRifaq2jZEF8gPerdPt8mDmLFCnC0/f2ZXEu9e1ZsmQJz4e1/M4KoaJhGOu01nnkdfKGbt26cY81oL3lXr16cZkdu8Q6HQEJyrxKzzCMg57yWWQCfnpyOwbMnI0aNeKgzJsHmItrpwJe0utWCBh4DcNYylv6yOvkLUWLFv0lkIHZtQ3UVFkOB8IbDLjV358ahnHVMIx4mbI1C/xLHgNmXl44kpKSwqsFzadEiRLPYgjDGhqGwXNuvJ1I78Z3333HS4IDNozRvXt3LjPn7nU6K2Xd/SXjGjvmXdj9CU+tdDsezJxxcXF8nT6XJ9kUHn/8cV4ddEkWAgZewzA+yUpQ5iefRYsW8XCC35Kw3MouXbpwmX2dqmVHeAGDW/2zqmEYVwzD+JrzKaTbX89f8LJjt2PCzDlv3jzzllhL5syZw4/LlkhuE+pygMvK8EUa77//PgcR05fZ8iwBzsMgj+9AOBevW/0zq6t3fJGHfnydAukDltw6zK5u2rSJg3JAd9ex/UaLTtAwjH/7I7kPERVZtGgRZ8wydXy5cePGXGZObOV03pF191XXSzzmV8MwZhuG8boJveP0mHrtQ83Tp0/zfwNHsWLFustCwMDrr54yQ0QRW7ZsmZ4/f37Tesyu/fl4o1qn86qsuzdOnTqVzw+zh/PwGobxFhH19JSY3s/wghe38sDMyYm3eC9EeZJNpX///jz3Dt+sQTarL/okRBT5008/vV6mTBnTrq1hGJynwOm8IOt9K6tWrar37dvHPeONRBRHRI+aPr/1r3CSH7dywcxZs2bN1CT88iQHgv2yMDCwGoax0Jtcyr6gtc6XnJz8Qt++fblH63bMrHr48GEO+E5nkKx3Rnbq1CktedAMImoqPyhA+PQlAm+ta+rndHmSA0GcLAwMrIZhrPTHmLIniOiJHTt2fFOvXj2/9prj4+P5vZWZY6NWYICstydHjhzJ1/A8ET1rwuafvrBRlg1m3jfffJNf8vGmEoGlevXqvAOuX29Y6JtXrlzZR0S8MaopEFF9Inpq/Pjxe+WxM+tHH33EDbaQPJbDuG3GNdcGspf5/Lq26womeOr1o6tWrSKtdTN5kk1n6NChvItsoiwQDJyfffbZJbN7WBww+LH65MmTzzz77LPn+CWGLIcvvvrqqxyUH5XHcRgvynqnmTNnTr1mzZrUbG5a6w5mPel4S8WKFTlfBuckdisrzJzHjh1L8vMu297hSpi+VRYIBs4+ffr4nLozs/DsDCJqcebMmRGDBw/O9B50sbGx3EN8TX6+w/AYlPkL7dtvv+X6c/aw9vKPggTvvo3FYH4yKiqKX/Jt0loXkCc6IOTKlWuVLBQMnIUKFeLx2b/L62Im3Ni01k0SEhIG9uvXjxPW+zSE5ZoW5/T8F0NlvSMiIvTmzZu57vs5X4UFhizS4FVnPl1DmLGuLdpWBu29SZs2be6XhYKBNT4+/pi8LoGAe85a65qJiYn/GDRoUIos1608fPiwXxa9WBjOD/O/+kZGRuotW7bwzbo5KI+1t4bnVCMo+8khQ4akrh+QJzlgxMXF8be9W8Fg4IyNjeUhjPLy2gQKXthARPcdOXJkVc+ePSlbtmxuZZTOmDGDZxxktAGmE/jf8EXu3LnTAjKPIZcOWg8qY36T1wdm3lmzZvG15hWdQWW5LBgMrOfOnZslL0qg4QTrRFT96NGje1588UXioRVZzjS7devGXyQV5Gc4CB4zT63runXr+KXeN0R0j/wlC8Ar+ZDx0Y/u3LmTX2TzCELwKFWqVBNZMBhYx40bt8f0bWe8gHuBvPiEp7wR0aCFCxdeqFOnjlt5CxcuzL2JsfLvHcSbXM81a9ZwPS9lcUcQM1korw3MvOHh4RyQ+T1PcN8XDBgwoLJSKkkWEAbOokWLGkGZF3kLeGt7zstBRLU3btyYEBMT85cy79mzh/M4O5VnpkyZwgGZr4vZeSuyAmZd+NEHHniAZ17w+5Xg4tq915T8sdB733333T/ktbESvKtvUlLSlbfffptq1KhB/N/MbmVldbp3716ds7wR0XPyZxaCp8Jx0hy3tgQz59ChQ/mLODCJ7W9HRESEX/PHQt8tU6YMPzoFK3eCV/BjHSdR4qXFp06d+pWHOuTvOAWei23xlYvjMevCvy5ZsoTvwQbyRAeFjh07NpcFhIH3gw8+2OuvVJ5m4lol6OQpcZamWLFiPKTylWw/MGseOXKEH48sNasoIFsKwYwtXbp0ChH9Q14YAAT8Hgi9ZD9atGhRHk8+TUTF5MkOJvGyoDDwTp8+faPWmsf5AcgI3rzWre3AzNuhQwceT17kz/zmWaZ58+bcbce3b5AtXry4vnr1qqVmYgBLgYT2Jvjmm2/yfPQJ8mQHlSlTpuRVSh2XhYWBd8KECbxirrC8RiC0cc2UmiHbC8y6O3bs4NlE/eU5DyquR+b30FsOvgULFrx54cKFwGxvDuxEUaXUDtleYNbkxVApKSn8kq+IPOFBp3LlykOUUj4lp4GmSC+++OJaO8zEAAHlZXSa/C9v/5SSknJKnmxLMHLkSM6AdVkWGgZFOnHixEB5jUDIUhsr+MzRtZvOCHnCrQSnknQrOAy83bt3v8q5e+UFAqFFbGwsPzEtkO0D+sdTp07xeLJ1l9Pfc889vLTUreAwOO7YseMDDGOEPLzKzJTdyUPdatWq8dDFEXnCLcXgwYN5nh7GlS1igwYNjmmtK8nrBEIKTq+LsWQTdOW7eFeecCvyhSw8DJ6LFy9eIi8QCBl4q3skHjLJ+Ph4nnXxlDzplqNKlSqD8M1sHYsVK0aXL1/mawJCiKJFi/JcdUyBM8m8efPq69evJ/G2aPLcW47XXnuNM++flZWAwXP48OE/E9G98loBR8Nz1ZGTxiR79uzJ48mHtNZ3yhNvOXbv3h2hlPpRVgIG1etHjx59Wl4r4Fj4HvzFQzuAfnLp0qW8ywjvMmMPatasOVxWAgbXVq1aHUbKzJCBk61jCNEkc+TIoS9fvszzk4vLE29ZJk6cyPuSuVXGqfJWMPLfLCitXLmSX8ICZ9MDL/fMtW3btjx0wU8itiMkdrret2+fTk5O1vfee6/leyYlS5a8fuXKlVh5oYAziIiIuEsp9Z287tC/zpgxg3vJ1p91IWnbtm2bUHiEOnDgAM9VXLB///6ncubMyWvg3X7HQtKIESMOWSrvK/AnPMZ53cN1h3709OnTvFq2hTz5luff//53qVB44bd///6LRFSVA93SpUt7yp9bUOPAgQOT5PUCtoenPSL3jMm2adOGhy62EBGnK7YXWuuwqKioZbJSTnP79u0JadvA8P5zH3/8cZz8HavZtGnT60TECaSAM6ihlEqQ1xn638WLF/OT8Sp5AWzDc889V09WymlOnDjxLBHxU0EqWus7lixZMj179uyWHrqZNWvWpxjGcAxLQ2GoMNhGREToK1eu8Hiy7RN9JcvKOcn69euTp4UZa9as+WeePHl4fM+SN0u+fPl0UlLSg7LcwD64dhMZKq8tNMd+/frx0AUPEdmbhg0b1rdqYPKXCQkJM2W9mV9++eWF6tWrX5S/bxVjY2MNrXU+WW5gG1orpSzbvpzmt99+y2k6O8iLYDs++OAD3iblD1lBJzlu3DjuLReUdWcuXbrUu1evXqf5BZv8Oyv43XffrcEwhi3h6W+b5fUMtnfddZdd5u37ZLly5biXnEREd8sLYTv4hV+uXLkmO7m3XKdOHR78ny3rngYRNVq8ePHOiIgIywXmKlWqJBMR97iATYiMjCzkWrXndj2DaY8ePYyFCxfeDAsLc9y9/vrrr/M9Psu1H6n9GTRoECdHsVxA8qeHDh3aSESRsu5p8O4ER48e3dylS5ckq31BTZw4ES/9bEKFChX4OvEmxW7XMVgWLlyYli5devbw4cM78+XL95PV2rc/PH36NL/gGyyvh21xfbskyoo6yREjRvB8Zc6QlyGcUYqIXt61a9f6li1bWuYFaO7cuXViYmJnWV5gSbpbKfvbY489RklJSQnXrl0bXaNGjYpKKX4qdlQHrHv37jx0cY2IONGTc3jwwQcdnaSI8xanpKR4lYmNe6WGYbyzcePGH+rWrcsNOOg9iy5duiRqrcvKsgJLwS/NLbGzT/HixTlT2g3DMH4gol6dO3fmZFecW3ijFdqzP920aRMPXSyWF8MpHJUVdpLLly8/JCt8K4iohmEYn6xcufLXypUrB7shU3x8/BRZRmAZSiuldnm4bgF3yJAh+s8//7yhtV5CRPfxeyOlFC9G+sRpAblWrVrcS76gtS4gL4gjKFGiBC/vddRFS2+rVq143KmxrPet4MUmRBRrGMbcb775ZnuXLl2MnDlzBuUcVapUKenatWuVZRlB0OGZFtOCfe9UqVJFb9261TAMY4thGNOIiF84qty5cxdVSq2Uv+8EP/zww9QVfHyfyoviCMaNG9dMKXVeVtxJHjt2jC8g9xx8whWcHzIMY+r58+c/mjhx4gXeLVd+vtlOmDCBez/2W9fvXDhn77hgBuQiRYrot99+m4PTGcMwphBRU1HGN6w0zu0vCxYsyL1kTj7Eex06E84NoZT6j6y8kxw+fPgpIqom6+4L/KiktX7JMIyJ+/fv3/jyyy/fLF++fEBuyty5c9Phw4d7OGbqj/15Ryl1RV6nQFi2bFk9ffp0MgyDF018S0RDZOGUUl2VUlfl3zrBuLg4Dsq8OYTHNQiOoW/fvu2C+a1vtoUKFUq5fPmyX6bOuHrPDxDRcMMwXt26devnL7/88uXo6OjUdfjy2P6yefPmu2y1q4IDKVasWG6l1OhgBOTKlSvrjz76iHvGHJDXEVFcBsNylZRSB+XfO0G+v86dO8fDkf+QlXYqvO2924lwitOmTeM30H6Fe678UoWIBhLRc4ZhTNi+ffv+6dOn3+jTpw/VqFHDrRxZcebMmR/x3GpZDmA+NWrU4KlXrwV6alnHjh31119/zcE4hRdKENFQImp4i+E4ni9tidkg/nbUqFHcS14fMk+MPXv25N5ywHsAgfLuu++mmzdvch1Ng4c4eCUeEfXjXRCI6Onr169P2bp1608zZ868PnDgQGrYsGHqHGRZPm/MkycPHT9+/CUsKgkK/1JKXQjEEyUPUYwdO5aTU3EwPqm1fkVr3V9rzbM9bgVPfzsjP88J5smTR589e5Znl/SXlXYsBw8eLKyU2i5PhpNcvnz5NtcYekBw9aSLaa1bElF3IupJRH34xWFiYuKvO3fuvLp69WpjxowZFBcXR/369aO2bdtS/fr1eSur1Jc5uXLl4iDwv0DQsmXL41prvvlA4OhodoeFA/HQoUP1xo0beXjimmEY03kGEBE95s1L3jJlyuRyzbYw/UsjGA4fPpx7yQeIqISsu6Pp1q3bP+XJcJL16tVLISLexDJouAJ1Ca11M9cN1zGd/DLvJa31XMMwPuPcHbygxTCMhadOnTr6888/3/z+++8vcpCXnwvMgYcJWrVqNTE8PNyvwS48PFw3a9ZMjx49Wu/YsYN7xByI5xFRVyJqnz4fuJd0UUpdk8dxgjyWfPbsWR5LHiEr7Xh27tzJvWXHTaNJJ61fv/4rqy7N5F48p+3kVXycD5qIynBPm4jK80sdInrYZepcVBAYXAuKXl2/fv2WMWPGXH3ooYeoePHiXgVpDr78kq5169b6qaee0pMnT9bff/8994ZvulbeDSCiR3jqJWc7y+R4KfeSf3ZqL3nEiBGpOZO11jz3OvRo3749JypyOzFOsVGjRpwPo4KsNwAZwb1l/iIkoiqcS0Vr3YSfaq5cubJt69atN+Pj43Wa69ev1zt37qSEhISU5OTkq4ZhnDYMY5PW+k0i6szziV1/z1+yvI+kPzoIi5wakAsVKqTPnz/PaXhDZsaFG3v27Cnp1Ck1aa5bt26PrDcAvqC1zsVf7ryvIhHVFvK/1eKxf54f73rSKaS1ziE/xw/wXoCOnJPM8gKZlJSUzUTET/GhCc/DffLJJ6fKk+MkGzVqxN+8PMEeALvDaRLc2rgTLFWqFI8ja9d7loymAIYG586dy8eryORJcpKrV6/+JJAzMQAwgfJKqVOybTvFOXPm8AvQZK11HlnxkOS1117jC+7YwFynTp3rRNRA1hsAG8EzLhx5j1atWpWHLbibXE5WOmThx4WSJUvOkCfLQdJHH310UtYbABvBO7PLdu0I165dy73kKZmcjeJcFixY0Ib3GZUnzCmWKFGCx6x6ynoDYANGyfbsFGNiYriXfElrXUdWGiilGjZsuEWeNCf56quv7kE+CWAnqlSpwrM4OJeLW3u2u5GRkfrkyZM8j3uFrDf4K47Nt8wrtU6cODFIVhgAC/OYUuqmbMtO8N133+Ut3PjlJbgVQ4cOfdypSzjZbt26JWOVHLARY2QbdoL16tVL2wzVuQns/cWFCxei7rrrrm/lSXSSn3/++QyTJvcD4E94VlRA04cGwuzZs+sff/yRX+59wQtzZKWBB5YtW/Y3pdRFeTKdYvHixS8nJyc3lPUGwCr079//TqXUJtl2naBrR5GjvPpR1hvcgtatW8914re0S4qNjV2M3jKwMPcppc56aLu2tkmTJvrGjRu8SOTvssLgNhw5cqRMrly5DsuT6iBp1apVvWS9AbAIU5y2WCRfvnz6t99+42GLhVrr/LLCwAumT58+0GkNI71FixY1zp49i2EMYDV4t5lE2V7t7hdffMEBeTcR1ZMVBl7Cg/AdOnT41MmB+cEHH/wOszGAxXDcBhRPP/00jyMnENGjsrLARy5fvlyiTJky2xwcmGnSpEkTZL0BCBK1nDYvuVatWhyQDSIaorXmF5ggq2zZsuWx7Nmzm7pvWTDNnj27sWPHDizBBkGlVatWPGwxXbZPO8vjyEePHuVhi2m8046sM8gkPEthwoQJIx3cW+bNLI/98ccf1WXdAQggnP/hmGybdnb16tUckNeGdOJ6s+CcEe3atfvYwYGZWrZsuRrT5ECQ4Hzfqzy0S9vKG8WmpKScISK8TDeL5OTke2rUqHFAnnwHScOGDZvqp73UAPCFoR7ao219+OGHU3MkE1E3pOQ0mePHjzcvWrTo7/IiOMgrixcvfibkt6QBgYT33jvhoS3a0rvvvlsnJSVx9rdxCMgBYufOnd1z5MjhuHmUaebMmfP4zp07n5f1BsAEeLhss1OGBQsWLKh/+eUXHkfeSER3ycoCk+D5y5999ln7sLAwt4viFIsVK3b69OnTPWTdAfAXrlzJjnlPkzt3br1r1660BSJVZX2ByfALsSlTpvBEcEc0KE/Wq1ePJ7uXknUHwE88ycNlst3Z1XXr1nFA3kBEPNcaBAPeIXr06NHvOTgwU6dOnX4mokhZdwCySGWl1Gkn3Dv8xPzpp59yQOYXe/fgfUyQ4cQizzzzTLy8UA6SRo8ezfMsMT4G/AU/2h/10NZs6YwZMzgg847xFRCQLQKv1ImNjV0oL5aDvDlhwgRO/A9AVsmjlFrrlB7yzJkz0wLyU7KiIMhwYH788cd/kRfOQRqTJ0/mt+QAZIX1SqkUD+3LdroCMg9ZPKK1vkNWFFiE2NjYX53QC8hAmjZt2nOyzgB4yTwPbcqWfvDBB2k95DayksBiEFHBsWPHxoeFhTl215LJkyc/jWxXwFvq1KnDbYUf723fWeEhi9mzZ/PCkCta6w6yrsDCrFixYm94ePhVeVEdIg0fPvxtbPoIbkeFChU489t4D23IdoaHh+tly5ZxQD5HRLVlXYHF4Z7k3r173ylWrNif8uI6xQEDBgzTWheQdQfABY+zDnJCfuTixYvr3bt3c0DmufvtZUWBjTh58uSwxo0bH3fCo5snu3bt+gECM5CUKVOG96Br5oR2X7duXX3y5MkUwzB+RFt3CDdv3mw7cuTIH7Jly2b7BupBatCgwRtJSUn3ynqD0KRkyZLhSqlXnNBDjomJ0ZcuXbpmGMY6rXVpWVdgY7TWUV999dWmQoUKOXKcuXTp0j8cOHAASfJDnFy5cnHg6mP3HnK2bNn02LFjeYZFkmEYi2Q9gUPgb9rExMQPmzdvfk42AgdI+fLl27Jy5cqHka4wZCmmlJpj94DMWzitWbOGx49/IKKRaM8hgGEYr0+bNm1v/vz53RqE3Q0LC0sePnz43zBlLuTg3TXesXtArlq1qk5ISEhLvYkZFqEEEbU7ffr07B49epyUDcPm8k2Z9OCDDw46depUWVlv4Eiq8f7CHtqCrezUqZNOTk6+ycMVCMghCi/NJKJB69evX1mxYkVebGLrXoaQSpQoMeuHH36oKesNHMUjSql/e7j+tpHzILuSCt3ArtMgFa11JcMw3vjXv/61s2jRom6Nxsbyl8wXU6dO7YXhDEfSUim128N1t40tWrTQR44c4fHjTYZhvKq15oRJAKQG5jBeR09Eo6ZPn762RIkSTuo1n+jWrVsc0ho6A9eOIXFKqa12fbrj3vF7772Xmr+CO0Raa55TDYA7ruBcl4ie/fDDD78oW7asU3JoXC1cuPDE+fPn15N1BvYhMjKykFJqgp3nIPNO066XebuI6Bki4nnVANwerXVNIuq3aNGizTVq1LBlj0TIXzDxrVu3fhOpDm0Jb3PEecOve7i2lrdkyZJ6+fLlqXOPiehFImqB6W4gUxBRIyLqsXbt2i0tWrSwe3Dm8l/OkyfPvMmTJ/PW8sAe1FdK8UYHtmt/OXLk0C+//LK+fPkyL5WewLkrtNa5ZQUB8AnXsEY9Iuq4d+/eT7t27cqPj7a7QdLJveZNDRs2fHP79u24QazNGKXU93Zsb23bttW//vor944P8L1DREVk5QDIEq7gXIEfvc6fP99vxowZFx544IHUPK+yQdrE83feeee6Z599trmsK7AE45RSf9gtIHMw3rZtGwfji0Q0lDs0eNEMTIcfwYioPifb/u23346MHTuWeEWSbKA2kG/4n6OiolbMmzcvQtYTBIW8ruGK8x6ulyXljknHjh313r17U+cca61f4vuDiLguAAQOngNMRPcS0X1ENHDfvn0nxo8fr5s0aeLWcC0sB+YbSqm9FStWnDtr1qxIWU8QMO5WSu1wDTHJ62RJe/bsqX/++ee0BSBvEFENBGNgCbj3rLUu6xriaHPu3LkD8+bNo44dO1JERIRbY7agHJyvKKV+rVSp0uwVK1YgOAeWN5RSR+0yXDFgwIC06W3X+GU4EZXHijxgWbTW2YmoMBEVI6IqN27cWLlly5ab48aN04888ojOkyePWyO3mJzmNLF27dr9Zd2AKUzjmTEeroOl5CxuL730kj5z5kzqbtKGYYwjouJaa17UAoA9cL0gDOdHOg7ShmFM5t7Fd999R6+//jq1bt1aWzhrHfecv5N1An6D99HbaPX5x3Xq1NHvvvuu/vPPPzkQM7wsugARcfkBsDc8aZ4XcLjGo6torZcYhnHpyJEjvDmkHjZsmG7ZsqWOjIx0uzmCID9Kp405v+9a5gv8Ay+e+M2qwxWcC+a5557T+/fv1wzvIk1E3bndYjYFCBlcgbq5YRg7+SY4dOjQtcWLF1976aWXbrRs2dIoXLiwFW7g04ULF+4UFxeXIz4+PrusA7gtnCDqaSsul+aOQGxsLK1evZp7w7wV01XDMD4jIl7iDQBwDX0UJKIuhmF8bRjGmRMnTvyxcuXKP8aMGXO5ffv2RsWKFdN6s4EO2BxUZjZp0qTAhAkTMJ3u9nDvkmclLPdwLoNmoUKFqE+fPmmBONkwjLOGYazEvngA+IDWOhfn5uDELoZhHGMPHDhw/PPPP//9zTffTH7yySdvPPDAA1SkSBG3m9AEefrWCqVUufr165f88MMPC/OLTlnmUKZKlSqclvI+pdROD+cv4DZo0EC/8MILtH79eu4JJ7ra0A6tdRNZdgBAJuBxalePmrPcDTEMY5VhGPt4ievly5cPHDhw4Jc1a9YcmzVr1rlRo0Zd7d27dwrn8uBednh4uD972Dz2vCUqKqrtCy+8cO/GjRtLI5+zKqOUei0ITzKp5s2bN3XGz2uvvUbx8fGcg+KMYRi/GIbxk2EY84iooiwwAMBkXCsQOWC/yFvuGIax3jCMrYZhbGPPnj27fffu3btWrVq1b8aMGQkjR478o3fv3ldbtGiRUrlyZcrES0cOQNyD3h0eHt6hVatWtf71r3/x1KmQeUEUGxuby9U7/jGQAbl8+fKpCzr+9a9/pezZs4d3hObgy73g7YZhrCOi3kiZCYDFcfW0I1yLXzjh/2jDMOYbhrFaa/0tB/FLly59d+DAgZ3r1q07Nnfu3OQ33njjxqBBg4xOnTpRo0aNqHTp0unHtmUQ4ilf85VSD95zzz01n3/++aL79u1z7EyOChUq8FSxbkqpCzJo+tOaNWumLk4aOXIkLVu27ObZs2dPGoaxxfWly9eOlzvfg6cVAByIaxy7IhH1NAzjHcMwPuEXQq6hkjRX//777+t27dq1fc2aNYfnzJnzx+uvv35t4MCBqcG7cePGN8qWLbsvZ86c45VSHZRS9WrXrl1+yJAh+ZcsWeKUPM93KaWeUEole/hy8sm7775bc9Krbt26pU6VnDZtmvH1119fOXbsGI8Bf+96+ctv6PjcL+Wl/jyMJQsEAAhRxNj2E7zIwDCMWYZhLHbNx/7UFcwXXbhwYf5vv/02eefOnQO/+eab6E8++eTuWbNmFZ88eXLpLVu2FLHjy0Kex/3AAw/0j46OPhcdHW1ER0eTJ9u2bUs9e/akIUOG0CuvvJIyZcqUG/Pnz7+4du3aEzt37txx5swZDrb8hbfMdc7SXGwYxgwi6uua454nlIaEAAB+hIOHa/k5r24sRERleONaIqruSuh0n9a6Du/ZRkQNeDhFfobVcY3d9zUM4z3DMGZrrefeSsMw5ri+tKa7ksAP5nnqPB2NiCKxOwcAIOhw0NZa57frtlWcB8KuZQcAAAAAAAAAAAAAAAAAAAAAAAAAAAAAAAAAAAAAAAAAAAAAAAAAAAAAAAAAAAAAAAAAAAAAAAAAAAAAAAAAAAAAAAAAAAAAAAAAAAAAAAAAAAAAAAAAAAAAAAAgYwYrpd5x+bbLtP8fTCcLM/p3CL1Rti+z9XRMWabMlk/+bWaVn+sP02LI/0xISKglgw7IgF69epVQSiUqpcilkc60f4MQQm9NH0NSPXr06EIiipTxB3ige/fudZRSGkIIzTIhISGJiBrK+AM80LVr11LyBEIIoT89duzYVSL6m4w/wAP9+/e/0/XI4XYiIYTQHyYkJFwkotYy/oCMQVCGEJrmsWPHTmmta8rAAzIGQRlCaJoJCQkHtdZFZeABnglDUIYQmmlCQsI+rXUeGXyAB1xjym4nEUII/WVCQsJerXUuGX+AB2JiYnLIEwghhP6UgzIR5ZTxB3gAPWUIodkePXp0j9aaO4DAC3hM2e0kQgihvzx27NhurTV3AIGXuJ1ECCH0l66gnF0GHpAxbicRQgj9JYYvfMftJEIIob/E7AvfcTuJEELoLxMSEn4konAZeEDGuJ1ECCH0lxyUtda5ZeABGeN2EiGE0F+ip+wDcXFx2eQJhBBCf4qesg/ExMTcIU8ghBD6UwRlH4iOjua5g24nEUII/aVr+CJCxh/gAfSUIYRmi56yb2CZNYTQVBGUfQP5lCGEporhCx9wzb5AUIYQmuaxY8f2E1GkjD/AA507d+a5gwjKEELT5O2giKiIjD/AA7169SqBoAwhNNOEhIQTRFRNxh/ggW7dutVCUIYQmmlCQsIfRNRUxh/gga5du5ZHUIYQmumxY8dOa63ryPgDPDBz5sw7R40adTMuLk5DCKEZ/vnnn5zkHrtZe4vWOsYwjDOGYfC32ZtEdD8R3UdEtfjbjYjqElFDImqstW7CjyFa62ZE1IKIHtJatySiBz3Ygn/m+jn/Lsv/3jxN1+dEE9EDrs9tkqarHI1c8vGlaT/zJP9t4zTTfWZTk+Typ9YhK6avf0bKvxGmleNW8vlOlc9/etNfm/TX0QRlW/HqOOna00NE9LDwESJqdRtb38a03+PPYtN/fmpbF+3ZzfS/k/a/vfk7H73VOUv7Wfpr+Zd7Lt31lm0jrR2l3TvyHmzgUt5/9Tle8Lgx64obfP6eIqIBRMRP5MBbeEcArXVRl3m01tm01mFC/rf03mGC8hh20ip1kOfUyWYPsPL4TlS2J1/kNQ9pMYVjBp+zXEhuDwAAAAAAgNX4P+iRcKf97amRAAAAAElFTkSuQmCC;" vertex="1" parent="wo_QYc2rkXZs_NssMeJh-54">
          <mxGeometry x="114.87" y="80.82" width="50.26" height="69.12" as="geometry" />
        </mxCell>
      </root>
    </mxGraphModel>
  </diagram>
</mxfile>
